SplineFontDB: 3.2
FontName: sosisunicode
FullName: Sosis Unicode
FamilyName: Sosis Unicode
Weight: Book
Copyright: Copyright (c) 2024, BrenokOS Test
Version: 1.0 Werconian Type
ItalicAngle: 0
UnderlinePosition: -21.504
UnderlineWidth: 10.752
Ascent: 213
Descent: 43
InvalidEm: 0
sfntRevision: 0x00010000
LayerCount: 2
Layer: 0 1 "Back" 1
Layer: 1 1 "Fore" 0
XUID: [1021 205 -1082218627 17853]
StyleMap: 0x0040
FSType: 0
OS2Version: 4
OS2_WeightWidthSlopeOnly: 1
OS2_UseTypoMetrics: 0
CreationTime: 1726658310
ModificationTime: 1753482275
PfmFamily: 17
TTFWeight: 400
TTFWidth: 5
LineGap: 23
VLineGap: 0
Panose: 2 0 5 3 0 0 0 0 0 0
OS2TypoAscent: 213
OS2TypoAOffset: 0
OS2TypoDescent: -43
OS2TypoDOffset: 0
OS2TypoLinegap: 23
OS2WinAscent: 408
OS2WinAOffset: 0
OS2WinDescent: 137
OS2WinDOffset: 0
HheadAscent: 408
HheadAOffset: 0
HheadDescent: -137
HheadDOffset: 0
OS2SubXSize: 166
OS2SubYSize: 178
OS2SubXOff: 0
OS2SubYOff: 35
OS2SupXSize: 166
OS2SupYSize: 178
OS2SupXOff: 0
OS2SupYOff: 123
OS2StrikeYSize: 13
OS2StrikeYPos: 66
OS2CapHeight: 213
OS2XHeight: 145
OS2Vendor: 'PfEd'
OS2CodePages: 0000009f.00000000
OS2UnicodeRanges: e00006ff.520020fb.00000028.00000000
Lookup: 1 0 0 "'dnom' Denominators lookup 0" { "'dnom' Denominators lookup 0 subtable"  } ['dnom' ('latn' <'dflt' > 'DFLT' <'dflt' > ) ]
Lookup: 1 0 0 "'numr' Numerators lookup 0" { "'numr' Numerators lookup 0 subtable"  } ['numr' ('latn' <'dflt' > 'DFLT' <'dflt' > ) ]
Lookup: 1 0 0 "i" { "i-1"  } ['isol' ('DFLT' <'dflt' > 'arab' <'dflt' > 'bopo' <'dflt' > 'cher' <'dflt' > 'copt' <'dflt' > 'cyrl' <'dflt' > 'grek' <'dflt' > 'latn' <'dflt' > 'lisu' <'dflt' > ) ]
Lookup: 1 0 0 "'locl' Localized Forms lookup 13" { "'locl' Localized Forms lookup 13-1 Werconia"  } ['locl' ('DFLT' <'dflt' > 'arab' <'dflt' > 'armn' <'dflt' > 'cher' <'dflt' > 'cyrl' <'dflt' > 'grek' <'dflt' > 'latn' <'dflt' > 'lisu' <'dflt' > ) ]

StartChar: uni0000
Encoding: 0 0 1
GlifName: uni0000
Width: 219
GlyphClass: 1
Flags: W
HStem: 1 27<65 173> 186 27<45 153>
VStem: 18 27<38 186> 173 27<28 175>
LayerCount: 2
Fore
SplineSet
65 28 m 1,0,-1
 109 28 l 1,1,-1
 173 28 l 1,2,-1
 173 175 l 1,3,-1
 65 28 l 1,0,-1
18 1 m 1,4,-1
 18 213 l 1,5,-1
 109 213 l 1,6,-1
 200 213 l 1,7,-1
 200 1 l 1,8,-1
 109 1 l 1,9,-1
 45 1 l 1,10,-1
 18 1 l 1,4,-1
45 38 m 1,11,-1
 153 186 l 1,12,-1
 109 186 l 1,13,-1
 45 186 l 1,14,-1
 45 38 l 1,11,-1
EndSplineSet
Substitution2: "'smcp' Lowercase to Small Capitals lookup 1 subtable" uni0000.taboldstyle
EndChar

StartChar: exclam
Encoding: 33 33 6
GlifName: exclam
Width: 65
GlyphClass: 1
Flags: W
HStem: 0 26<18 46> 193 20G<18 46>
VStem: 18 28<0 26 51 213>
LayerCount: 2
Fore
SplineSet
18 0 m 1,0,-1
 18 26 l 1,1,-1
 46 26 l 1,2,-1
 46 0 l 1,3,-1
 18 0 l 1,0,-1
18 51 m 1,4,-1
 18 213 l 1,5,-1
 46 213 l 1,6,-1
 46 51 l 1,7,-1
 18 51 l 1,4,-1
EndSplineSet
Substitution2: "'dnom' Denominators lookup 0 subtable" exclam.denominator
Substitution2: "'numr' Numerators lookup 0 subtable" exclam.numerator
Substitution2: "'smcp' Lowercase to Small Capitals lookup 1 subtable" exclam.taboldstyle
EndChar

StartChar: quotedbl
Encoding: 34 34 7
GlifName: quotedbl
Width: 95
GlyphClass: 1
Flags: W
HStem: 163 50<20 40 56 76>
VStem: 20 20<163 192.867> 56 20<163 185.4>
LayerCount: 2
Fore
SplineSet
52 213 m 1,0,-1
 80 213 l 1,1,-1
 76 163 l 1,2,-1
 56 163 l 1,3,-1
 52 213 l 1,0,-1
17 213 m 1,4,-1
 43 213 l 1,5,-1
 40 163 l 1,6,-1
 20 163 l 1,7,-1
 17 213 l 1,4,-1
EndSplineSet
Substitution2: "'dnom' Denominators lookup 0 subtable" quotedbl.denominator
Substitution2: "'numr' Numerators lookup 0 subtable" quotedbl.numerator
Substitution2: "'smcp' Lowercase to Small Capitals lookup 1 subtable" quotedbl.taboldstyle
EndChar

StartChar: numbersign
Encoding: 35 35 8
GlifName: numbersign
Width: 192
GlyphClass: 1
Flags: W
HStem: 0 21G<23 53.8 117 147.6> 50 26<9 31 62 126 157 174> 144 26<17 47 78 140 170 183> 193 20G<54.7442 84 147.209 178>
LayerCount: 2
Fore
SplineSet
9 50 m 1,0,-1
 9 76 l 1,1,-1
 36 76 l 1,2,-1
 47 144 l 1,3,-1
 17 144 l 1,4,-1
 17 170 l 1,5,-1
 51 170 l 1,6,-1
 58 213 l 1,7,-1
 84 213 l 1,8,-1
 78 170 l 1,9,-1
 144 170 l 1,10,-1
 150 213 l 1,11,-1
 178 213 l 1,12,-1
 170 170 l 1,13,-1
 183 170 l 1,14,-1
 183 144 l 1,15,-1
 168 144 l 1,16,-1
 157 76 l 1,17,-1
 174 76 l 1,18,-1
 174 50 l 1,19,-1
 153 50 l 1,20,-1
 144 0 l 1,21,-1
 117 0 l 1,22,23
 118 0 118 0 126 50 c 1,24,-1
 58 50 l 1,25,-1
 51 0 l 1,26,-1
 23 0 l 1,27,-1
 31 50 l 1,28,-1
 9 50 l 1,0,-1
62 76 m 1,29,-1
 129 76 l 1,30,-1
 140 144 l 1,31,-1
 73 144 l 1,32,-1
 62 76 l 1,29,-1
EndSplineSet
Substitution2: "'dnom' Denominators lookup 0 subtable" numbersign.denominator
Substitution2: "'numr' Numerators lookup 0 subtable" numbersign.numerator
Substitution2: "'smcp' Lowercase to Small Capitals lookup 1 subtable" numbersign.taboldstyle
EndChar

StartChar: dollar
Encoding: 36 36 9
GlifName: dollar
Width: 160
GlyphClass: 1
Flags: W
HStem: 0 21G<64 93> 18 28<48.8293 64 93 112.049> 90 29<93 110.895> 93 27<49.3076 64> 168 27<50.834 64 93 111> 193 20G<64 93>
VStem: 13 27<54.6687 63 128.413 157.851> 64 29<0 18.5457 46 90 120 168 194.772 213> 120 29.4975<53.9012 81.5695>
LayerCount: 2
Fore
SplineSet
13 143 m 128,-1,1
 13 188 13 188 64 195 c 1,2,-1
 64 213 l 1,3,-1
 93 213 l 1,4,-1
 93 195 l 1,5,6
 146 192 146 192 147 150 c 1,7,-1
 119 150 l 1,8,9
 116 166 116 166 93 168 c 1,10,-1
 93 119 l 1,11,12
 150 114 150 114 149.497522749 68.2745701557 c 0,13,14
 149 23 149 23 93 18 c 1,15,-1
 93 0 l 1,16,-1
 64 0 l 1,17,-1
 64 18 l 1,18,19
 16 23 16 23 13 63 c 1,20,-1
 41 63 l 1,21,22
 44 49 44 49 64 46 c 1,23,-1
 64 93 l 1,24,0
 13 98 13 98 13 143 c 128,-1,1
40 143 m 128,-1,26
 40 124 40 124 64 120 c 1,27,-1
 64 168 l 1,28,25
 40 162 40 162 40 143 c 128,-1,26
93 45 m 1,29,30
 120 48 120 48 120 67.5 c 128,-1,31
 120 87 120 87 93 90 c 1,32,-1
 93 45 l 1,29,30
EndSplineSet
Substitution2: "'dnom' Denominators lookup 0 subtable" dollar.denominator
Substitution2: "'numr' Numerators lookup 0 subtable" dollar.numerator
Substitution2: "'smcp' Lowercase to Small Capitals lookup 1 subtable" dollar.taboldstyle
EndChar

StartChar: percent
Encoding: 37 37 10
GlifName: percent
Width: 224
GlyphClass: 1
Flags: W
HStem: 0 29<146.951 177.77> 83 26<146.918 177.968> 104.497 28.5027<45.1856 76.3029> 185.498 27.5015<44.748 75.6924>
VStem: 12 26<140.109 178.564> 83 29<139.637 178.401> 114 26<36.0478 75.9484> 185 29.4951<37.0091 75.4097>
LayerCount: 2
Fore
SplineSet
38 159.5 m 128,-1,1
 38 133 38 133 60.6071452868 133 c 0,2,3
 83 133 83 133 83 158.826112682 c 0,4,5
 83 185 83 185 60.5683818769 185.498480403 c 128,-1,0
 38 186 38 186 38 159.5 c 128,-1,1
12 160.422038105 m 0,6,7
 12 213 12 213 58 213 c 2,8,-1
 61 213 l 2,9,10
 112 213 112 213 112 158.230191407 c 0,11,12
 112 104 112 104 62.2692854165 104.497307146 c 0,13,14
 12 105 12 105 12 160.422038105 c 0,6,7
11 0 m 1,15,-1
 184 213 l 1,16,-1
 212 213 l 1,17,-1
 38 0 l 1,18,-1
 11 0 l 1,15,-1
140 56 m 128,-1,20
 140 29 140 29 162.5 29 c 128,-1,21
 185 29 185 29 185 56.151690181 c 0,22,23
 185 83 185 83 162.531691207 83 c 128,-1,19
 140 83 140 83 140 56 c 128,-1,20
114 55.0561803663 m 0,24,25
 114 109 114 109 162 109 c 2,26,-1
 163 109 l 2,27,28
 215 109 215 109 214.495097568 53.9656349081 c 0,29,30
 214 0 214 0 164.250081311 0 c 0,31,32
 114 0 114 0 114 55.0561803663 c 0,24,25
EndSplineSet
Substitution2: "'dnom' Denominators lookup 0 subtable" percent.denominator
Substitution2: "'numr' Numerators lookup 0 subtable" percent.numerator
Substitution2: "'smcp' Lowercase to Small Capitals lookup 1 subtable" percent.taboldstyle
EndChar

StartChar: ampersand
Encoding: 38 38 11
GlifName: ampersand
Width: 193
GlyphClass: 1
Flags: W
HStem: 0 28<56.9428 118.094> 93 26<59.3777 126 152 184> 186 27<58.8906 110.875>
VStem: 13 27<43.7614 83.5829 129.649 169.522> 123 28<164 175.484> 126 26<0 9 35.011 93>
LayerCount: 2
Fore
SplineSet
40 63.9325185843 m 0,0,1
 40 29 40 29 83 28 c 1,2,-1
 86 28 l 2,3,4
 119 28 119 28 126 41 c 1,5,-1
 126 93 l 1,6,-1
 78 93 l 2,7,8
 56 93 56 93 47.5106672534 85.5718338467 c 0,9,10
 40 79 40 79 40 63.9325185843 c 0,0,1
13 60.0056180366 m 0,11,12
 13 109 13 109 59 108 c 1,13,14
 14 108 14 108 14 154.203411939 c 0,15,16
 14 211 14 211 82 213 c 1,17,-1
 83 213 l 2,18,19
 146 213 146 213 151 164 c 1,20,-1
 123 164 l 1,21,22
 120 186 120 186 84 186 c 2,23,24
 84 186 84 186 83 186 c 2,25,-1
 82 186 l 1,26,27
 40 184 40 184 40 149.137979602 c 0,28,29
 40 133 40 133 49.0827023399 125.935675958 c 128,-1,30
 58 119 58 119 78 119 c 2,31,-1
 126 119 l 1,32,-1
 152 119 l 1,33,-1
 184 119 l 1,34,-1
 184 93 l 1,35,-1
 152 93 l 1,36,-1
 152 0 l 1,37,-1
 126 0 l 1,38,-1
 126 9 l 1,39,40
 109 0 109 0 82.2001513032 0 c 0,41,42
 13 0 13 0 13 60.0056180366 c 0,11,12
EndSplineSet
Substitution2: "'dnom' Denominators lookup 0 subtable" ampersand.denominator
Substitution2: "'numr' Numerators lookup 0 subtable" ampersand.numerator
Substitution2: "'smcp' Lowercase to Small Capitals lookup 1 subtable" ampersand.taboldstyle
EndChar

StartChar: quotesingle
Encoding: 39 39 12
GlifName: quotesingle
Width: 59
GlyphClass: 1
Flags: W
HStem: 163 50<20 40>
VStem: 20 20<163 192.867>
LayerCount: 2
Fore
SplineSet
17 213 m 1,0,-1
 43 213 l 1,1,-1
 40 163 l 1,2,-1
 20 163 l 1,3,-1
 17 213 l 1,0,-1
EndSplineSet
Substitution2: "'dnom' Denominators lookup 0 subtable" quotesingle.denominator
Substitution2: "'numr' Numerators lookup 0 subtable" quotesingle.numerator
Substitution2: "'smcp' Lowercase to Small Capitals lookup 1 subtable" quotesingle.taboldstyle
EndChar

StartChar: parenleft
Encoding: 40 40 13
GlifName: parenleft
Width: 100
GlyphClass: 1
Flags: W
HStem: 193 20G<41 96>
VStem: 13 27<37.4676 133.832>
LayerCount: 2
Fore
SplineSet
13 83 m 128,-1,1
 13 177 13 177 69 213 c 1,2,-1
 96 205 l 1,3,4
 67 182 67 182 54.2883082666 157.047419931 c 0,5,6
 40 129 40 129 40 86.3785350231 c 0,7,8
 40 2 40 2 96 -40 c 1,9,-1
 69 -47 l 1,10,0
 13 -11 13 -11 13 83 c 128,-1,1
EndSplineSet
Substitution2: "'dnom' Denominators lookup 0 subtable" parenleft.denominator
Substitution2: "'numr' Numerators lookup 0 subtable" parenleft.numerator
Substitution2: "'smcp' Lowercase to Small Capitals lookup 1 subtable" parenleft.taboldstyle
Substitution2: "'rtla' Right to Left Alternates lookup 0 subtable" parenright
EndChar

StartChar: parenright
Encoding: 41 41 14
GlifName: parenright
Width: 101
GlyphClass: 1
Flags: W
HStem: 193 20G<5 61>
VStem: 62 27<34.0976 125.803>
LayerCount: 2
Fore
SplineSet
5 -40 m 1,0,1
 34 -17 34 -17 47.3502726393 9.22374982727 c 0,2,3
 62 38 62 38 62 79.3789534488 c 0,4,5
 62 161 62 161 5 205 c 1,6,-1
 33 213 l 1,7,8
 89 179 89 179 89 83.5 c 128,-1,9
 89 -12 89 -12 33 -47 c 1,10,-1
 5 -40 l 1,0,1
EndSplineSet
Substitution2: "'dnom' Denominators lookup 0 subtable" parenright.denominator
Substitution2: "'numr' Numerators lookup 0 subtable" parenright.numerator
Substitution2: "'smcp' Lowercase to Small Capitals lookup 1 subtable" parenright.taboldstyle
Substitution2: "'rtla' Right to Left Alternates lookup 0 subtable" parenleft
EndChar

StartChar: asterisk
Encoding: 42 42 15
GlifName: asterisk
Width: 111
GlyphClass: 1
Flags: W
HStem: 165 28<13 19.496 92.504 99> 194 20G<42 70>
VStem: 42 28<185 214>
LayerCount: 2
Fore
SplineSet
13 165 m 1,0,-1
 13 193 l 1,1,-1
 42 185 l 1,2,-1
 42 214 l 1,3,-1
 70 214 l 1,4,-1
 70 185 l 1,5,-1
 99 193 l 1,6,-1
 99 165 l 1,7,-1
 76 160 l 1,8,-1
 95 120 l 1,9,-1
 68 120 l 1,10,-1
 58 144 l 1,11,-1
 44 120 l 1,12,-1
 17 120 l 1,13,-1
 38 160 l 1,14,-1
 13 165 l 1,0,-1
EndSplineSet
Substitution2: "'dnom' Denominators lookup 0 subtable" asterisk.denominator
Substitution2: "'numr' Numerators lookup 0 subtable" asterisk.numerator
Substitution2: "'smcp' Lowercase to Small Capitals lookup 1 subtable" asterisk.taboldstyle
EndChar

StartChar: plus
Encoding: 43 43 16
GlifName: plus
Width: 129
GlyphClass: 1
Flags: W
HStem: 91 28<13 52 79 116>
VStem: 52 27<51 91 119 153>
LayerCount: 2
Fore
SplineSet
13 91 m 1,0,-1
 13 119 l 1,1,-1
 52 119 l 1,2,-1
 52 153 l 1,3,-1
 79 153 l 1,4,-1
 79 119 l 1,5,-1
 116 119 l 1,6,-1
 116 91 l 1,7,-1
 79 91 l 1,8,-1
 79 51 l 1,9,-1
 52 51 l 1,10,-1
 52 91 l 1,11,-1
 13 91 l 1,0,-1
EndSplineSet
Substitution2: "'dnom' Denominators lookup 0 subtable" plus.denominator
Substitution2: "'numr' Numerators lookup 0 subtable" plus.numerator
Substitution2: "'smcp' Lowercase to Small Capitals lookup 1 subtable" plus.taboldstyle
EndChar

StartChar: comma
Encoding: 44 44 17
GlifName: comma
Width: 64
GlyphClass: 1
Flags: W
HStem: -39 51<21 35>
VStem: 16 32
LayerCount: 2
Fore
SplineSet
16 -39 m 1,0,-1
 21 12 l 1,1,-1
 48 12 l 1,2,-1
 35 -39 l 1,3,-1
 16 -39 l 1,0,-1
EndSplineSet
Substitution2: "'dnom' Denominators lookup 0 subtable" comma.denominator
Substitution2: "'numr' Numerators lookup 0 subtable" comma.numerator
Substitution2: "'smcp' Lowercase to Small Capitals lookup 1 subtable" comma.taboldstyle
EndChar

StartChar: hyphen
Encoding: 45 45 18
GlifName: hyphen
Width: 135
GlyphClass: 1
Flags: W
HStem: 91 28<16 119>
LayerCount: 2
Fore
SplineSet
16 91 m 1,0,-1
 16 119 l 1,1,-1
 119 119 l 1,2,-1
 119 91 l 1,3,-1
 16 91 l 1,0,-1
EndSplineSet
Substitution2: "'dnom' Denominators lookup 0 subtable" hyphen.denominator
Substitution2: "'numr' Numerators lookup 0 subtable" hyphen.numerator
Substitution2: "'smcp' Lowercase to Small Capitals lookup 1 subtable" hyphen.taboldstyle
EndChar

StartChar: period
Encoding: 46 46 19
GlifName: period
Width: 58
GlyphClass: 1
Flags: W
HStem: 0 28<16 42>
VStem: 16 26<0 28>
LayerCount: 2
Fore
SplineSet
16 0 m 1,0,-1
 16 28 l 1,1,-1
 42 28 l 1,2,-1
 42 0 l 1,3,-1
 16 0 l 1,0,-1
EndSplineSet
Substitution2: "'dnom' Denominators lookup 0 subtable" period.denominator
Substitution2: "'numr' Numerators lookup 0 subtable" period.numerator
Substitution2: "'smcp' Lowercase to Small Capitals lookup 1 subtable" period.taboldstyle
EndChar

StartChar: slash
Encoding: 47 47 20
GlifName: slash
Width: 95
GlyphClass: 1
Flags: W
LayerCount: 2
Fore
SplineSet
5 -18 m 1,0,-1
 65 222 l 1,1,-1
 92 222 l 1,2,-1
 33 -18 l 1,3,-1
 5 -18 l 1,0,-1
EndSplineSet
Substitution2: "'dnom' Denominators lookup 0 subtable" slash.denominator
Substitution2: "'numr' Numerators lookup 0 subtable" slash.numerator
Substitution2: "'smcp' Lowercase to Small Capitals lookup 1 subtable" slash.taboldstyle
EndChar

StartChar: zero
Encoding: 48 48 21
GlifName: zero
Width: 160
GlyphClass: 1
Flags: W
HStem: 1 27<62.4812 97.4688> 186 26.5057<63.4185 98.7175>
VStem: 13 28<59.0542 154.795> 120 28<59.5916 155.367>
LayerCount: 2
Fore
SplineSet
13 105.220546091 m 0,0,1
 13 212 13 212 81.2691153748 212.505697151 c 0,2,3
 148 213 148 213 148 111 c 0,4,5
 148 1 148 1 82 1 c 2,6,-1
 81 1 l 1,7,-1
 80 1 l 1,8,9
 13 0 13 0 13 105.220546091 c 0,0,1
41 107 m 128,-1,11
 41 28 41 28 80 28 c 2,12,-1
 81 28 l 2,13,14
 120 28 120 28 120 107 c 128,-1,15
 120 186 120 186 81 186 c 2,16,17
 81 186 81 186 80 186 c 0,18,10
 41 186 41 186 41 107 c 128,-1,11
EndSplineSet
Substitution2: "'dnom' Denominators lookup 0 subtable" zero.denominator
Substitution2: "'numr' Numerators lookup 0 subtable" zero.numerator
Substitution2: "'smcp' Lowercase to Small Capitals lookup 1 subtable" zero.taboldstyle
EndChar

StartChar: one
Encoding: 49 49 22
GlifName: one
Width: 157
GlyphClass: 1
Flags: W
HStem: 0 28<12 72 99 150> 193 20G<50.9286 99>
VStem: 72 27<28 181>
LayerCount: 2
Fore
SplineSet
13 127 m 1,0,-1
 13 157 l 1,1,-1
 72 213 l 1,2,-1
 99 213 l 1,3,-1
 99 28 l 1,4,-1
 150 28 l 1,5,-1
 150 0 l 1,6,-1
 99 0 l 1,7,-1
 72 0 l 1,8,-1
 12 0 l 1,9,-1
 12 28 l 1,10,-1
 72 28 l 1,11,-1
 72 181 l 1,12,-1
 13 127 l 1,0,-1
EndSplineSet
Substitution2: "'dnom' Denominators lookup 0 subtable" one.denominator
Substitution2: "'numr' Numerators lookup 0 subtable" one.numerator
Substitution2: "'smcp' Lowercase to Small Capitals lookup 1 subtable" one.taboldstyle
EndChar

StartChar: two
Encoding: 50 50 23
GlifName: two
Width: 163
GlyphClass: 1
Flags: W
HStem: 1 26<46 150> 186 27<50.5735 109.553>
VStem: 126 24<134.025 172.272>
LayerCount: 2
Fore
SplineSet
150 160.868371347 m 0,0,1
 150 101 150 101 59 37 c 1,2,-1
 46 27 l 1,3,-1
 150 28 l 1,4,-1
 150 1 l 1,5,-1
 12 1 l 1,6,-1
 12 27 l 1,7,8
 25 35 25 35 39.4476644692 45.9333677064 c 0,9,10
 62 63 62 63 81.5974845132 82.2912738177 c 0,11,12
 126 126 126 126 126 155.573642618 c 0,13,14
 126 186 126 186 79 186 c 2,15,16
 79 186 79 186 78 186 c 2,17,-1
 77 186 l 2,18,19
 43 186 43 186 38 164 c 1,20,-1
 9 164 l 1,21,22
 13 212 13 212 74.8740857306 212.982128345 c 0,23,24
 76 213 76 213 77 213 c 2,25,-1
 81 213 l 2,26,27
 150 213 150 213 150 160.868371347 c 0,0,1
EndSplineSet
Substitution2: "'dnom' Denominators lookup 0 subtable" two.denominator
Substitution2: "'numr' Numerators lookup 0 subtable" two.numerator
Substitution2: "'smcp' Lowercase to Small Capitals lookup 1 subtable" two.taboldstyle
EndChar

StartChar: three
Encoding: 51 51 24
GlifName: three
Width: 164
GlyphClass: 1
Flags: W
HStem: 0 28<50.6067 110.414> 93 26<62 99.0068> 186 27<51 110.169>
VStem: 9 29<38.8674 49 164 173.938> 127 26.5294<42.2262 74.9533> 127 23.5308<137.611 171.64>
LayerCount: 2
Fore
SplineSet
9 49 m 1,0,-1
 38 49 l 1,1,2
 43 28 43 28 78 28 c 2,3,4
 78 28 78 28 80 28 c 2,5,-1
 82 28 l 1,6,7
 127 29 127 29 127 58.0664612223 c 0,8,9
 127 93 127 93 62 93 c 1,10,-1
 62 119 l 1,11,12
 127 119 127 119 127 155.025211865 c 0,13,14
 127 185 127 185 82 186 c 1,15,-1
 80 186 l 2,16,17
 43 186 43 186 38 164 c 1,18,-1
 9 164 l 1,19,20
 13 212 13 212 77.8471503847 212.982532582 c 0,21,22
 79 213 79 213 80 213 c 2,23,-1
 82 213 l 1,24,25
 150 212 150 212 150.530831816 157.324322952 c 0,26,27
 151 109 151 109 99.0268765111 108.019375029 c 1,28,29
 153.991556738 107.10599556 153.991556738 107.10599556 153.529411008 57.176388891 c 0,30,31
 153 0 153 0 80.3007262592 0 c 0,32,33
 13 0 13 0 9 49 c 1,0,-1
EndSplineSet
Substitution2: "'dnom' Denominators lookup 0 subtable" three.denominator
Substitution2: "'numr' Numerators lookup 0 subtable" three.numerator
Substitution2: "'smcp' Lowercase to Small Capitals lookup 1 subtable" three.taboldstyle
EndChar

StartChar: four
Encoding: 52 52 25
GlifName: four
Width: 160
GlyphClass: 1
Flags: W
HStem: 0 21G<93 122> 74 25<38 93 122 150> 193 20G<78.4386 122>
VStem: 93 29<0 74 99 176>
LayerCount: 2
Fore
SplineSet
38 99 m 1,0,-1
 93 99 l 1,1,-1
 93 176 l 1,2,-1
 38 99 l 1,0,-1
10 74 m 1,3,-1
 10 99 l 1,4,-1
 93 213 l 1,5,-1
 122 213 l 1,6,-1
 122 99 l 1,7,-1
 150 99 l 1,8,-1
 150 74 l 1,9,-1
 122 74 l 1,10,-1
 122 0 l 1,11,-1
 93 0 l 1,12,-1
 93 74 l 1,13,-1
 10 74 l 1,3,-1
EndSplineSet
Substitution2: "'dnom' Denominators lookup 0 subtable" four.denominator
Substitution2: "'numr' Numerators lookup 0 subtable" four.numerator
Substitution2: "'smcp' Lowercase to Small Capitals lookup 1 subtable" four.taboldstyle
EndChar

StartChar: five
Encoding: 53 53 26
GlifName: five
Width: 174
GlyphClass: 1
Flags: W
HStem: 0 28<57.875 112.809> 119 26<64.0693 110.929> 187 26<46 158>
VStem: 17 29<37.7344 49 96 107.629 123 187> 133 28<47.234 98.2629>
LayerCount: 2
Fore
SplineSet
17 49 m 1,0,-1
 45 49 l 1,1,2
 50 28 50 28 83 28 c 2,3,4
 83 28 83 28 85 28 c 2,5,-1
 88 28 l 2,6,7
 133 28 133 28 133 72.5 c 128,-1,8
 133 117 133 117 88 119 c 1,9,-1
 86 119 l 2,10,11
 51 119 51 119 46 96 c 1,12,-1
 17 96 l 1,13,-1
 17 213 l 1,14,-1
 18 213 l 1,15,-1
 46 213 l 1,16,-1
 158 213 l 1,17,-1
 158 187 l 1,18,-1
 46 187 l 1,19,-1
 45 123 l 1,20,21
 49 132 49 132 60.9090371803 137.95451859 c 0,22,23
 75 145 75 145 95.6013234955 145 c 0,24,25
 161 145 161 145 161 74.4924763783 c 0,26,27
 161 0 161 0 88 0 c 2,28,-1
 87 0 l 1,29,30
 21 1 21 1 17 49 c 1,0,-1
EndSplineSet
Substitution2: "'dnom' Denominators lookup 0 subtable" five.denominator
Substitution2: "'numr' Numerators lookup 0 subtable" five.numerator
Substitution2: "'smcp' Lowercase to Small Capitals lookup 1 subtable" five.taboldstyle
EndChar

StartChar: six
Encoding: 54 54 27
GlifName: six
Width: 171
GlyphClass: 1
Flags: W
HStem: 0 27<60.7456 85 86 108.466> 112 25<59.2368 110.608> 186 27<63.0504 117.17>
VStem: 15 27<45.5508 94.8646 113 165.685> 129 27<162 175.094> 130 29.4982<46.8113 93.3487>
LayerCount: 2
Fore
SplineSet
15 69 m 1,0,-1
 15 76 l 1,1,-1
 15 78 l 1,2,-1
 15 139 l 2,3,4
 15 212 15 212 80.0626573052 212.985797838 c 0,5,6
 81 213 81 213 82 213 c 2,7,-1
 84 213 l 1,8,9
 156 212 156 212 156 162 c 1,10,-1
 129 162 l 1,11,12
 129 186 129 186 87 186 c 2,13,-1
 84 186 l 1,14,15
 42 184 42 184 42 139 c 2,16,-1
 42 113 l 1,17,18
 50 137 50 137 84 137 c 2,19,20
 84 137 84 137 85 137 c 2,21,-1
 88 137 l 2,22,23
 160 137 160 137 159.498239324 68.258787427 c 0,24,25
 159 0 159 0 88 0 c 2,26,-1
 85 0 l 2,27,28
 19 0 19 0 15 69 c 1,0,-1
42 70.2470673729 m 0,29,30
 42 28 42 28 85 27 c 1,31,-1
 86 28 l 1,32,33
 129 28 129 28 130 69 c 1,34,-1
 130 71 l 2,35,36
 130 111 130 111 87 112 c 1,37,-1
 85 112 l 1,38,39
 85 112 85 112 84 112 c 0,40,41
 42 112 42 112 42 70.2470673729 c 0,29,30
EndSplineSet
Substitution2: "'dnom' Denominators lookup 0 subtable" six.denominator
Substitution2: "'numr' Numerators lookup 0 subtable" six.numerator
Substitution2: "'smcp' Lowercase to Small Capitals lookup 1 subtable" six.taboldstyle
EndChar

StartChar: seven
Encoding: 55 55 28
GlifName: seven
Width: 154
GlyphClass: 1
Flags: W
HStem: 0 21G<27 64.3297> 182 31<7 119>
LayerCount: 2
Fore
SplineSet
148 213 m 1,0,-1
 148 182 l 1,1,-1
 54 0 l 1,2,-1
 27 0 l 1,3,-1
 119 182 l 1,4,-1
 7 182 l 1,5,-1
 7 213 l 1,6,-1
 148 213 l 1,0,-1
EndSplineSet
Substitution2: "'dnom' Denominators lookup 0 subtable" seven.denominator
Substitution2: "'numr' Numerators lookup 0 subtable" seven.numerator
Substitution2: "'smcp' Lowercase to Small Capitals lookup 1 subtable" seven.taboldstyle
EndChar

StartChar: eight
Encoding: 56 56 29
GlifName: eight
Width: 169
GlyphClass: 1
Flags: W
HStem: 0 29<58.7703 113.102> 93.502 27.498<55.8066 112.596> 186 27<56.7246 113.665>
VStem: 13 28<43.9979 80.3969 134.343 171.893> 129 28<42.3505 79.427 134.686 172.05>
LayerCount: 2
Fore
SplineSet
41 62.3189595374 m 0,0,1
 41 31 41 31 84 29 c 1,2,-1
 86 29 l 2,3,4
 129 29 129 29 129 60.8160858792 c 0,5,6
 129 93 129 93 84.8240132752 93.5019998491 c 0,7,8
 41 94 41 94 41 62.3189595374 c 0,0,1
41 152.939488502 m 0,9,10
 41 121 41 121 83 121 c 0,11,12
 130 121 130 121 129.48876031 154.230579846 c 0,13,14
 129 186 129 186 85.4381745548 186 c 0,15,16
 41 186 41 186 41 152.939488502 c 0,9,10
13 57.9928573251 m 0,17,18
 13 99 13 99 49 108 c 1,19,20
 14 111 14 111 14 153.249783362 c 0,21,22
 14 213 14 213 84 213 c 2,23,-1
 86 213 l 2,24,25
 157 213 157 213 157 155.479339467 c 0,26,27
 157 135 157 135 148.39795978 121.619048546 c 0,28,29
 139 107 139 107 122 105 c 1,30,31
 157 98 157 98 157 57.7415957832 c 0,32,33
 157 0 157 0 85.0781567279 0 c 128,-1,34
 13 0 13 0 13 57.9928573251 c 0,17,18
EndSplineSet
Substitution2: "'dnom' Denominators lookup 0 subtable" eight.denominator
Substitution2: "'numr' Numerators lookup 0 subtable" eight.numerator
Substitution2: "'smcp' Lowercase to Small Capitals lookup 1 subtable" eight.taboldstyle
EndChar

StartChar: nine
Encoding: 57 57 30
GlifName: nine
Width: 170
GlyphClass: 1
Flags: W
HStem: 0 28<54.5 107.59> 75 27<59.2109 109.06> 186 27<59.2109 108.619>
VStem: 13 27<120.551 167.041> 14 28<38.645 52> 127 29<46.9907 101 119.237 167.449>
LayerCount: 2
Fore
SplineSet
13 144 m 128,-1,1
 13 213 13 213 83 213 c 2,2,-1
 84 213 l 2,3,4
 151 213 151 213 155 144 c 1,5,-1
 156 144 l 1,6,-1
 156 137 l 1,7,-1
 156 136 l 1,8,-1
 156 74 l 2,9,10
 156 0 156 0 88 0 c 2,11,-1
 86 0 l 1,12,13
 14 1 14 1 14 52 c 1,14,-1
 42 52 l 1,15,16
 42 29 42 29 80.7233296289 28.0319167593 c 0,17,18
 82 28 82 28 83 28 c 2,19,-1
 86 28 l 1,20,21
 128 30 128 30 127 74 c 1,22,-1
 127 101 l 1,23,24
 119 76 119 76 85 75 c 1,25,-1
 83 75 l 2,26,0
 13 75 13 75 13 144 c 128,-1,1
40 143 m 2,27,28
 40 103 40 103 83 102 c 1,29,-1
 84 102 l 2,30,31
 127 102 127 102 127 144 c 128,-1,32
 127 186 127 186 84 186 c 128,-1,33
 41 186 41 186 40 144 c 1,34,-1
 40 143 l 2,27,28
EndSplineSet
Substitution2: "'dnom' Denominators lookup 0 subtable" nine.denominator
Substitution2: "'numr' Numerators lookup 0 subtable" nine.numerator
Substitution2: "'smcp' Lowercase to Small Capitals lookup 1 subtable" nine.taboldstyle
EndChar

StartChar: colon
Encoding: 58 58 31
GlifName: colon
Width: 62
GlyphClass: 1
Flags: W
HStem: 68 25<17 45> 129 24<17 45>
VStem: 17 28<68 93 129 153>
LayerCount: 2
Fore
SplineSet
17 68 m 1,0,-1
 17 93 l 1,1,-1
 45 93 l 1,2,-1
 45 68 l 1,3,-1
 17 68 l 1,0,-1
17 129 m 1,4,-1
 17 153 l 1,5,-1
 45 153 l 1,6,-1
 45 129 l 1,7,-1
 17 129 l 1,4,-1
EndSplineSet
Substitution2: "'dnom' Denominators lookup 0 subtable" colon.denominator
Substitution2: "'numr' Numerators lookup 0 subtable" colon.numerator
Substitution2: "'smcp' Lowercase to Small Capitals lookup 1 subtable" colon.taboldstyle
EndChar

StartChar: semicolon
Encoding: 59 59 32
GlifName: semicolon
Width: 61
GlyphClass: 1
Flags: W
HStem: 129 24<17 45>
VStem: 17 28<86.472 93 129 153>
LayerCount: 2
Fore
SplineSet
17 129 m 1,0,-1
 17 153 l 1,1,-1
 45 153 l 1,2,-1
 45 129 l 1,3,-1
 17 129 l 1,0,-1
12 42 m 1,4,-1
 17 93 l 1,5,-1
 44 93 l 1,6,-1
 31 42 l 1,7,-1
 12 42 l 1,4,-1
EndSplineSet
Substitution2: "'dnom' Denominators lookup 0 subtable" semicolon.denominator
Substitution2: "'numr' Numerators lookup 0 subtable" semicolon.numerator
Substitution2: "'smcp' Lowercase to Small Capitals lookup 1 subtable" semicolon.taboldstyle
EndChar

StartChar: less
Encoding: 60 60 33
GlifName: less
Width: 130
GlyphClass: 1
Flags: W
LayerCount: 2
Fore
SplineSet
13 98 m 1,0,-1
 13 126 l 1,1,-1
 114 161 l 1,2,-1
 114 133 l 1,3,-1
 39 112 l 1,4,-1
 114 87 l 1,5,-1
 114 60 l 1,6,-1
 13 98 l 1,0,-1
EndSplineSet
Substitution2: "'dnom' Denominators lookup 0 subtable" less.denominator
Substitution2: "'numr' Numerators lookup 0 subtable" less.numerator
Substitution2: "'smcp' Lowercase to Small Capitals lookup 1 subtable" less.taboldstyle
Substitution2: "'rtla' Right to Left Alternates lookup 0 subtable" greater
EndChar

StartChar: equal
Encoding: 61 61 34
GlifName: equal
Width: 138
GlyphClass: 1
Flags: W
HStem: 63 29<17 121> 115 28<17 121>
LayerCount: 2
Fore
SplineSet
17 115 m 1,0,-1
 17 143 l 1,1,-1
 121 143 l 1,2,-1
 121 115 l 1,3,-1
 17 115 l 1,0,-1
17 63 m 1,4,-1
 17 92 l 1,5,-1
 121 92 l 1,6,-1
 121 63 l 1,7,-1
 17 63 l 1,4,-1
EndSplineSet
Substitution2: "'dnom' Denominators lookup 0 subtable" equal.denominator
Substitution2: "'numr' Numerators lookup 0 subtable" equal.numerator
Substitution2: "'smcp' Lowercase to Small Capitals lookup 1 subtable" equal.taboldstyle
EndChar

StartChar: greater
Encoding: 62 62 35
GlifName: greater
Width: 130
GlyphClass: 1
Flags: W
LayerCount: 2
Fore
SplineSet
16 60 m 1,0,-1
 16 87 l 1,1,-1
 91 112 l 1,2,-1
 16 133 l 1,3,-1
 16 161 l 1,4,-1
 118 126 l 1,5,-1
 118 98 l 1,6,-1
 16 60 l 1,0,-1
EndSplineSet
Substitution2: "'dnom' Denominators lookup 0 subtable" greater.denominator
Substitution2: "'numr' Numerators lookup 0 subtable" greater.numerator
Substitution2: "'smcp' Lowercase to Small Capitals lookup 1 subtable" greater.taboldstyle
Substitution2: "'rtla' Right to Left Alternates lookup 0 subtable" less
EndChar

StartChar: question
Encoding: 63 63 36
GlifName: question
Width: 170
GlyphClass: 1
Flags: W
HStem: 0 28<70 97> 83 27<97 118.41> 185 28<52.3389 112.076>
VStem: 7 29<152 169.573> 70 27<0 28 40 83> 133 27<123.794 166.586>
LayerCount: 2
Fore
SplineSet
70 0 m 1,0,-1
 70 28 l 1,1,-1
 97 28 l 1,2,-1
 97 0 l 1,3,-1
 70 0 l 1,0,-1
7 152 m 1,4,5
 7 213 7 213 81.4228884457 213 c 0,6,7
 160 213 160 213 160 144.940869095 c 0,8,9
 160 84 160 84 97 83 c 1,10,-1
 97 40 l 1,11,-1
 70 40 l 1,12,-1
 70 110 l 1,13,-1
 97 110 l 1,14,15
 133 111 133 111 133 144.786281485 c 0,16,17
 133 185 133 185 82.1048298571 185 c 0,18,19
 36 185 36 185 36 152 c 1,20,-1
 7 152 l 1,4,5
EndSplineSet
Substitution2: "'dnom' Denominators lookup 0 subtable" question.denominator
Substitution2: "'numr' Numerators lookup 0 subtable" question.numerator
Substitution2: "'smcp' Lowercase to Small Capitals lookup 1 subtable" question.taboldstyle
EndChar

StartChar: at
Encoding: 64 64 37
GlifName: at
Width: 266
GlyphClass: 1
Flags: W
HStem: -60 27<99.1416 193.659> -3 27<196.859 215.221> 0 28<108.445 148.635> 119 26<107.462 147.156> 186 27<100.146 170.705>
VStem: 13 27<31.0402 120.499> 67 27<44.6597 103.749> 165 29<45.464 100.448> 167 27<25.5469 34 117 145> 226 27<-14.592 -3 37.6874 124.938>
LayerCount: 2
Fore
SplineSet
157 29 m 1025,0,-1
13 77.8535901097 m 0,1,2
 13 213 13 213 131 213 c 2,3,-1
 133 213 l 2,4,5
 253 213 253 213 253 79.5957802236 c 0,6,7
 253 -3 253 -3 207 -3 c 2,8,-1
 206 -3 l 1,9,10
 167 -2 167 -2 167 34 c 1,11,12
 162 0 162 0 122.983384758 0 c 0,13,14
 67 0 67 0 67 70.0684891144 c 0,15,16
 67 142 67 142 126 145 c 1,17,-1
 127 145 l 2,18,19
 158 145 158 145 167 117 c 1,20,-1
 167 145 l 1,21,-1
 194 145 l 1,22,-1
 194 71 l 1,23,-1
 194 34 l 1,24,25
 197 24 197 24 205 24 c 2,26,-1
 206 24 l 1,27,28
 226 26 226 26 226 77.4551796393 c 0,29,30
 226 186 226 186 137 186 c 2,31,-1
 135 186 l 1,32,-1
 133 186 l 1,33,34
 40 184 40 184 40 75.7901090259 c 0,35,36
 40 -33 40 -33 134 -33 c 2,37,-1
 137 -33 l 2,38,39
 224 -33 224 -33 226 -3 c 1,40,-1
 253 -3 l 1,41,42
 250 -59 250 -59 136 -60 c 1,43,-1
 134 -60 l 1,44,45
 13 -59 13 -59 13 77.8535901097 c 0,1,2
94 74.3571653557 m 0,46,47
 94 29 94 29 126 28 c 1,48,-1
 127 28 l 2,49,50
 165 28 165 28 165 72.7077798856 c 0,51,52
 165 118 165 118 126 119 c 1,53,-1
 125 119 l 2,54,55
 94 119 94 119 94 74.3571653557 c 0,46,47
EndSplineSet
Substitution2: "'dnom' Denominators lookup 0 subtable" at.denominator
Substitution2: "'numr' Numerators lookup 0 subtable" at.numerator
Substitution2: "'smcp' Lowercase to Small Capitals lookup 1 subtable" at.taboldstyle
EndChar

StartChar: A
Encoding: 65 65 38
GlifName: A_
Width: 186
GlyphClass: 1
Flags: W
HStem: 0 21G<4 39.2069 148.759 184> 58 26<60 125> 193 20G<71.0516 111.512>
LayerCount: 2
Fore
SplineSet
60 84 m 1,0,-1
 125 84 l 1,1,-1
 93 175 l 1,2,-1
 60 84 l 1,0,-1
4 0 m 1,3,-1
 78 213 l 1,4,-1
 104 213 l 1,5,-1
 184 0 l 1,6,-1
 156 0 l 1,7,-1
 135 58 l 1,8,-1
 51 58 l 1,9,-1
 33 0 l 1,10,-1
 4 0 l 1,3,-1
EndSplineSet
Substitution2: "'dnom' Denominators lookup 0 subtable" A.denominator
Substitution2: "'numr' Numerators lookup 0 subtable" A.numerator
EndChar

StartChar: B
Encoding: 66 66 39
GlifName: B_
Width: 172
GlyphClass: 1
Flags: W
HStem: 0 28<46 113.562> 94 28<46 111.701> 186 27<45 110.613>
VStem: 17 29<28 94 122 186> 127.5 29.5<136.062 171.304> 131.497 31.5025<42.8222 78.9922>
LayerCount: 2
Fore
SplineSet
17 213 m 1,0,-1
 81 213 l 2,1,2
 157 213 157 213 157 152.199678456 c 0,3,4
 157 114 157 114 127 108 c 1,5,6
 163 100 163 100 163 60 c 0,7,8
 163 0 163 0 82 0 c 2,9,-1
 17 0 l 1,10,-1
 17 94 l 1,11,-1
 17 213 l 1,0,-1
46 28 m 1,12,-1
 82 28 l 2,13,14
 131 28 131 28 131.497499937 60.8349958748 c 0,15,16
 132 94 132 94 82 94 c 2,17,-1
 46 94 l 1,18,-1
 46 28 l 1,12,-1
45 122 m 1,19,-1
 82 122 l 2,20,21
 128 122 128 122 127.5 154 c 128,-1,22
 127 186 127 186 81 186 c 2,23,-1
 45 186 l 1,24,-1
 45 122 l 1,19,-1
EndSplineSet
Substitution2: "'dnom' Denominators lookup 0 subtable" B.denominator
Substitution2: "'numr' Numerators lookup 0 subtable" B.numerator
EndChar

StartChar: C
Encoding: 67 67 40
GlifName: C_
Width: 207
GlyphClass: 1
Flags: W
HStem: 1 27<78.7913 141.479> 186 27<76.1418 138.989>
VStem: 11 29<69.1353 146.013> 168 29<51.8037 67 142 158.641>
LayerCount: 2
Fore
SplineSet
11 108.104286502 m 0,0,1
 11 213 11 213 106 213 c 0,2,3
 191 213 191 213 197 142 c 1,4,-1
 168 142 l 1,5,6
 161 186 161 186 107 186 c 0,7,8
 40 186 40 186 40 107.865067219 c 0,9,10
 40 28 40 28 110 28 c 0,11,12
 161 28 161 28 168 67 c 1,13,-1
 197 67 l 1,14,15
 190 1 190 1 109 1 c 0,16,17
 11 1 11 1 11 108.104286502 c 0,0,1
EndSplineSet
Substitution2: "'dnom' Denominators lookup 0 subtable" C.denominator
Substitution2: "'numr' Numerators lookup 0 subtable" C.numerator
EndChar

StartChar: D
Encoding: 68 68 41
GlifName: D_
Width: 208
GlyphClass: 1
Flags: W
HStem: 0 28<46 127.726> 186 27<46 130.478>
VStem: 18 28<28 186> 167 30<70.6282 145.743>
LayerCount: 2
Fore
SplineSet
46 28 m 1,0,-1
 100 28 l 1,1,2
 167 31 167 31 167 108.791357501 c 0,3,4
 167 186 167 186 101 186 c 2,5,6
 101 186 101 186 100 186 c 2,7,-1
 46 186 l 1,8,-1
 46 28 l 1,0,-1
17 213 m 1,9,-1
 100 213 l 2,10,11
 197 213 197 213 197 106.5 c 128,-1,12
 197 0 197 0 100 0 c 2,13,-1
 18 0 l 1,14,-1
 17 213 l 1,9,-1
EndSplineSet
Substitution2: "'dnom' Denominators lookup 0 subtable" D.denominator
Substitution2: "'numr' Numerators lookup 0 subtable" D.numerator
AlternateSubs2: "Alternate Substitution lookup 2 subtable" D.mart
EndChar

StartChar: E
Encoding: 69 69 42
GlifName: E_
Width: 172
GlyphClass: 1
Flags: W
HStem: 0 27<46 163> 98 27<46 147> 186 27<46 163>
VStem: 18 28<27 98 125 186>
LayerCount: 2
Fore
SplineSet
18 0 m 1,0,-1
 18 213 l 1,1,-1
 163 213 l 1,2,-1
 163 186 l 1,3,-1
 46 186 l 1,4,-1
 46 125 l 1,5,-1
 147 125 l 1,6,-1
 147 98 l 1,7,-1
 46 98 l 1,8,-1
 46 27 l 1,9,-1
 163 26 l 1,10,-1
 163 -1 l 1,11,-1
 18 0 l 1,0,-1
EndSplineSet
Substitution2: "'dnom' Denominators lookup 0 subtable" E.denominator
Substitution2: "'numr' Numerators lookup 0 subtable" E.numerator
EndChar

StartChar: F
Encoding: 70 70 43
GlifName: F_
Width: 165
GlyphClass: 1
Flags: W
HStem: 0 21G<17 45> 98 27<45 146> 186 27<45 162>
VStem: 17 28<0 98 125 186>
LayerCount: 2
Fore
SplineSet
17 0 m 1,0,-1
 17 213 l 1,1,-1
 162 213 l 1,2,-1
 162 186 l 1,3,-1
 45 186 l 1,4,-1
 45 125 l 1,5,-1
 146 125 l 1,6,-1
 146 98 l 1,7,-1
 45 98 l 1,8,-1
 45 0 l 1,9,-1
 17 0 l 1,0,-1
EndSplineSet
Substitution2: "'dnom' Denominators lookup 0 subtable" F.denominator
Substitution2: "'numr' Numerators lookup 0 subtable" F.numerator
EndChar

StartChar: G
Encoding: 71 71 44
GlifName: G_
Width: 209
GlyphClass: 1
Flags: W
HStem: 1 27<78.7913 146.349> 83 25<110 169> 186 27<76.1418 138.989>
VStem: 11 29<69.1353 146.013> 169 28<44.6055 83 142 156.682>
LayerCount: 2
Fore
SplineSet
11 108.104286502 m 0,0,1
 11 213 11 213 106 213 c 0,2,3
 191 213 191 213 197 142 c 1,4,-1
 168 142 l 1,5,6
 161 186 161 186 107 186 c 0,7,8
 40 186 40 186 40 107.865067219 c 0,9,10
 40 28 40 28 110 28 c 0,11,12
 156 28 156 28 169 52 c 1,13,-1
 169 83 l 1,14,-1
 110 83 l 1,15,-1
 110 108 l 1,16,-1
 197 108 l 1,17,-1
 197 83 l 1,18,-1
 197 49 l 1,19,20
 183 1 183 1 109 1 c 0,21,22
 11 1 11 1 11 108.104286502 c 0,0,1
EndSplineSet
Substitution2: "'dnom' Denominators lookup 0 subtable" G.denominator
Substitution2: "'numr' Numerators lookup 0 subtable" G.numerator
EndChar

StartChar: H
Encoding: 72 72 45
GlifName: H_
Width: 191
GlyphClass: 1
Flags: W
HStem: 0 21G<17 45 146 174> 99 27<45 146> 193 20G<17 45 146 174>
VStem: 17 28<0 99 126 213> 146 28<0 99 126 213>
LayerCount: 2
Fore
SplineSet
17 0 m 1,0,-1
 17 213 l 1,1,-1
 45 213 l 1,2,-1
 45 126 l 1,3,-1
 146 126 l 1,4,-1
 146 213 l 1,5,-1
 174 213 l 1,6,-1
 174 0 l 1,7,-1
 146 0 l 1,8,-1
 146 99 l 1,9,-1
 45 99 l 1,10,-1
 45 0 l 1,11,-1
 17 0 l 1,0,-1
EndSplineSet
Substitution2: "'dnom' Denominators lookup 0 subtable" H.denominator
Substitution2: "'numr' Numerators lookup 0 subtable" H.numerator
EndChar

StartChar: I
Encoding: 73 73 46
GlifName: I_
Width: 79
GlyphClass: 1
Flags: W
HStem: 0 28<10 26 53 70> 186 27<10 26 53 70>
VStem: 10 60<0 28 186 213>
LayerCount: 2
Fore
SplineSet
10 186 m 1,0,-1
 10 213 l 1,1,-1
 26 213 l 1,2,-1
 53 213 l 1,3,-1
 70 213 l 1,4,-1
 70 186 l 1,5,-1
 53 186 l 1,6,-1
 53 28 l 1,7,-1
 70 28 l 1,8,-1
 70 0 l 1,9,-1
 53 0 l 1,10,-1
 26 0 l 1,11,-1
 10 0 l 1,12,-1
 10 28 l 1,13,-1
 26 28 l 1,14,-1
 26 186 l 1,15,-1
 10 186 l 1,0,-1
EndSplineSet
Substitution2: "'dnom' Denominators lookup 0 subtable" I.denominator
Substitution2: "'numr' Numerators lookup 0 subtable" I.numerator
Substitution2: "'smcp' Lowercase to Small Capitals lookup 1 subtable" hyphen.taboldstyle
EndChar

StartChar: J
Encoding: 74 74 47
GlifName: J_
Width: 176
GlyphClass: 1
Flags: W
HStem: 1 27<54.7145 111.286> 194 20G<133 160>
VStem: 6 27<49.1914 74> 133 27<49.1914 214>
LayerCount: 2
Fore
SplineSet
6 74 m 1,0,-1
 33 74 l 1,1,2
 33 28 33 28 83 28 c 128,-1,3
 133 28 133 28 133 74 c 2,4,-1
 133 214 l 1,5,-1
 160 214 l 1,6,-1
 160 74 l 2,7,8
 160 1 160 1 83 1 c 128,-1,9
 6 1 6 1 6 74 c 1,0,-1
EndSplineSet
Substitution2: "'dnom' Denominators lookup 0 subtable" J.denominator
Substitution2: "'numr' Numerators lookup 0 subtable" J.numerator
EndChar

StartChar: K
Encoding: 75 75 48
GlifName: K_
Width: 169
GlyphClass: 1
Flags: W
HStem: 0 21G<17 45 123.106 166> 193 20G<17 45 121.826 166>
VStem: 17 28<0 65 98 213>
LayerCount: 2
Fore
SplineSet
17 0 m 1,0,-1
 17 213 l 1,1,-1
 45 213 l 1,2,-1
 45 98 l 1,3,-1
 138 213 l 1,4,-1
 166 213 l 1,5,-1
 85 114 l 1,6,-1
 166 0 l 1,7,-1
 138 0 l 1,8,-1
 68 94 l 1,9,-1
 45 65 l 1,10,-1
 45 0 l 1,11,-1
 17 0 l 1,0,-1
EndSplineSet
Substitution2: "'dnom' Denominators lookup 0 subtable" K.denominator
Substitution2: "'numr' Numerators lookup 0 subtable" K.numerator
EndChar

StartChar: L
Encoding: 76 76 49
GlifName: L_
Width: 168
GlyphClass: 1
Flags: W
HStem: 0 28<45 162> 193 20G<17 45>
VStem: 17 28<28 213>
LayerCount: 2
Fore
SplineSet
17 0 m 1,0,-1
 17 213 l 1,1,-1
 45 213 l 1,2,-1
 45 28 l 1,3,-1
 162 28 l 1,4,-1
 162 0 l 1,5,-1
 17 0 l 1,0,-1
EndSplineSet
Substitution2: "'dnom' Denominators lookup 0 subtable" L.denominator
Substitution2: "'numr' Numerators lookup 0 subtable" L.numerator
EndChar

StartChar: M
Encoding: 77 77 50
GlifName: M_
Width: 242
GlyphClass: 1
Flags: W
HStem: 0 21G<17 45 98.6216 142.514 197 224> 193 20G<17 53.4444 188.556 224>
VStem: 17 28<0 148> 197 27<0 148>
LayerCount: 2
Fore
SplineSet
17 0 m 1,0,-1
 17 213 l 1,1,-1
 45 213 l 1,2,-1
 121 33 l 1,3,-1
 197 213 l 1,4,-1
 224 213 l 1,5,-1
 224 0 l 1,6,-1
 197 0 l 1,7,-1
 197 148 l 1,8,-1
 134 0 l 1,9,-1
 107 0 l 1,10,-1
 45 148 l 1,11,-1
 45 0 l 1,12,-1
 17 0 l 1,0,-1
EndSplineSet
Substitution2: "'dnom' Denominators lookup 0 subtable" M.denominator
Substitution2: "'numr' Numerators lookup 0 subtable" M.numerator
AlternateSubs2: "Alternate Substitution lookup 2 subtable" M.mart
EndChar

StartChar: N
Encoding: 78 78 51
GlifName: N_
Width: 199
GlyphClass: 1
Flags: W
HStem: 0 21G<17 45 141.251 182> 193 20G<17 57.8235 154 182>
VStem: 17 28<0 171> 154 28<43 213>
LayerCount: 2
Fore
SplineSet
17 0 m 1,0,-1
 17 213 l 1,1,-1
 45 213 l 1,2,-1
 154 43 l 1,3,-1
 154 213 l 1,4,-1
 182 213 l 1,5,-1
 182 0 l 1,6,-1
 154 0 l 1,7,-1
 45 171 l 1,8,-1
 45 0 l 1,9,-1
 17 0 l 1,0,-1
EndSplineSet
Substitution2: "'dnom' Denominators lookup 0 subtable" N.denominator
Substitution2: "'numr' Numerators lookup 0 subtable" N.numerator
EndChar

StartChar: O
Encoding: 79 79 52
GlifName: O_
Width: 209
GlyphClass: 1
Flags: W
HStem: 1 27<77.208 133.161> 185 27.4986<74.9388 133.696>
VStem: 11 29<68.5151 144.776> 169 29<67.9505 144.738>
LayerCount: 2
Fore
SplineSet
40 107 m 128,-1,1
 40 29 40 29 105 28 c 0,2,3
 169 28 169 28 169 106.5 c 128,-1,4
 169 185 169 185 104.396964593 185 c 0,5,0
 40 185 40 185 40 107 c 128,-1,1
11 106.217912422 m 0,6,7
 11 212 11 212 104.23365733 212.498575708 c 0,8,9
 198 213 198 213 198 105.993665688 c 0,10,11
 198 0 198 0 106.922312565 0.989974863426 c 0,12,13
 106 1 106 1 104 1 c 0,14,15
 11 1 11 1 11 106.217912422 c 0,6,7
EndSplineSet
Substitution2: "'dnom' Denominators lookup 0 subtable" O.denominator
Substitution2: "'numr' Numerators lookup 0 subtable" O.numerator
EndChar

StartChar: P
Encoding: 80 80 53
GlifName: P_
Width: 180
GlyphClass: 1
Flags: W
HStem: 0 21G<18 46> 85 28<46 123.791> 186 27<46 125.3>
VStem: 18 28<0 85 113 186> 141.5 29.9983<129.041 170.895>
LayerCount: 2
Fore
SplineSet
46 113 m 1,0,-1
 99 113 l 2,1,2
 141 113 141 113 141.5 149.5 c 128,-1,3
 142 186 142 186 100 186 c 2,4,5
 100 186 100 186 99 186 c 2,6,-1
 46 186 l 1,7,-1
 46 113 l 1,0,-1
17 213 m 1,8,-1
 18 213 l 1,9,-1
 46 213 l 1,10,-1
 99 213 l 2,11,12
 171 213 171 213 171.498287651 149.219180653 c 0,13,14
 172 85 172 85 99 85 c 2,15,-1
 46 85 l 1,16,-1
 46 0 l 1,17,-1
 18 0 l 1,18,-1
 18 85 l 1,19,-1
 17 213 l 1,8,-1
EndSplineSet
Substitution2: "'dnom' Denominators lookup 0 subtable" P.denominator
Substitution2: "'numr' Numerators lookup 0 subtable" P.numerator
EndChar

StartChar: Q
Encoding: 81 81 54
GlifName: Q_
Width: 209
GlyphClass: 1
Flags: W
HStem: 0 28<75.3363 133.569> 185 28<74.4307 132.466>
VStem: 10 29<69.4792 144.767> 168 30<68.1624 144.829>
LayerCount: 2
Fore
SplineSet
10 105.645666951 m 0,0,1
 10 213 10 213 104.973003874 213 c 0,2,3
 198 213 198 213 198 110.313531795 c 0,4,5
 198 52 198 52 168 23 c 1,6,-1
 198 -17 l 1,7,-1
 174 -37 l 1,8,-1
 143 7 l 1,9,10
 125 0 125 0 101.45793447 0 c 0,11,12
 10 0 10 0 10 105.645666951 c 0,0,1
39 107 m 128,-1,14
 39 29 39 29 104 28 c 0,15,16
 168 28 168 28 168 106.5 c 128,-1,17
 168 185 168 185 103.396964593 185 c 0,18,13
 39 185 39 185 39 107 c 128,-1,14
EndSplineSet
Substitution2: "'dnom' Denominators lookup 0 subtable" Q.denominator
Substitution2: "'numr' Numerators lookup 0 subtable" Q.numerator
EndChar

StartChar: R
Encoding: 82 82 55
GlifName: R_
Width: 182
GlyphClass: 1
Flags: W
HStem: 0 21G<18 46 139 161.545> 85 28<46 94> 186 27<46 125.302>
VStem: 18 28<0 85 113 186> 141.5 30.0551<129.397 170.488>
LayerCount: 2
Fore
SplineSet
46 113 m 1,0,-1
 99 113 l 2,1,2
 141 113 141 113 141.5 149.5 c 128,-1,3
 142 186 142 186 100 186 c 2,4,5
 100 186 100 186 99 186 c 2,6,-1
 46 186 l 1,7,-1
 46 113 l 1,0,-1
17 213 m 1,8,-1
 18 213 l 1,9,-1
 46 213 l 1,10,-1
 99 213 l 2,11,12
 171 213 171 213 171.555141164 148.603624927 c 0,13,14
 172 97 172 97 126 88 c 1,15,-1
 172 0 l 1,16,-1
 139 1 l 1,17,-1
 94 85 l 1,18,-1
 46 85 l 1,19,-1
 46 0 l 1,20,-1
 18 0 l 1,21,-1
 18 85 l 1,22,-1
 17 213 l 1,8,-1
EndSplineSet
Substitution2: "'dnom' Denominators lookup 0 subtable" R.denominator
Substitution2: "'numr' Numerators lookup 0 subtable" R.numerator
EndChar

StartChar: S
Encoding: 83 83 56
GlifName: S_
Width: 175
GlyphClass: 1
Flags: W
HStem: 0 28<61.8684 119.221> 91.8433 27.1567<59.3125 117.271> 186 27<57.9907 114.073>
VStem: 11 28<134.988 170.092> 12 29<46.8757 63> 135 29<150 166.473> 137 28<42.7813 76.5515>
LayerCount: 2
Fore
SplineSet
11 152.297616706 m 0,0,1
 11 212 11 212 85 213 c 0,2,3
 159 213 159 213 164 150 c 1,4,-1
 135 150 l 1,5,6
 130 186 130 186 87 186 c 2,7,-1
 86 186 l 1,8,9
 40 185 40 185 39 153 c 1,10,11
 39 120 39 120 91 119 c 0,12,13
 165 117 165 117 165 58.3010181061 c 0,14,15
 165 0 165 0 91.943539344 0 c 0,16,17
 16 0 16 0 12 63 c 1,18,-1
 41 63 l 1,19,20
 46 28 46 28 90 28 c 0,21,22
 113 28 113 28 125.255962346 36.681306662 c 0,23,24
 137 45 137 45 137 59.7229898745 c 0,25,26
 137 91 137 91 83.871115891 91.8433156208 c 0,27,28
 11 93 11 93 11 152.297616706 c 0,0,1
EndSplineSet
Substitution2: "'dnom' Denominators lookup 0 subtable" S.denominator
Substitution2: "'numr' Numerators lookup 0 subtable" S.numerator
EndChar

StartChar: T
Encoding: 84 84 57
GlifName: T_
Width: 174
GlyphClass: 1
Flags: W
HStem: 0 21G<75 103> 188 25<5 75 103 170>
VStem: 75 28<0 188>
LayerCount: 2
Fore
SplineSet
5 188 m 1,0,-1
 5 213 l 1,1,-1
 75 213 l 1,2,-1
 103 213 l 1,3,-1
 170 213 l 1,4,-1
 170 188 l 1,5,-1
 103 188 l 1,6,-1
 103 0 l 1,7,-1
 75 0 l 1,8,-1
 75 188 l 1,9,-1
 5 188 l 1,0,-1
EndSplineSet
Substitution2: "'dnom' Denominators lookup 0 subtable" T.denominator
Substitution2: "'numr' Numerators lookup 0 subtable" T.numerator
EndChar

StartChar: U
Encoding: 85 85 58
GlifName: U_
Width: 187
GlyphClass: 1
Flags: W
HStem: 1 27<65.3241 121.793> 194 20G<16 44 143 171>
VStem: 16 28<49.1914 214> 143 28<49.1914 214>
LayerCount: 2
Fore
SplineSet
16 74 m 2,0,-1
 16 214 l 1,1,-1
 44 214 l 1,2,-1
 44 74 l 2,3,4
 44 28 44 28 93.7719862334 28 c 0,5,6
 143 28 143 28 143 74 c 2,7,-1
 143 214 l 1,8,-1
 171 214 l 1,9,-1
 171 74 l 2,10,11
 171 1 171 1 93.5 1 c 128,-1,12
 16 1 16 1 16 74 c 2,0,-1
EndSplineSet
Substitution2: "'dnom' Denominators lookup 0 subtable" U.denominator
Substitution2: "'numr' Numerators lookup 0 subtable" U.numerator
EndChar

StartChar: V
Encoding: 86 86 59
GlifName: V_
Width: 173
GlyphClass: 1
Flags: W
HStem: 1 21G<66.3962 106.792> 193 20G<3 37.4327 137.216 172>
LayerCount: 2
Fore
SplineSet
3 213 m 1,0,-1
 31 213 l 1,1,-1
 86 42 l 1,2,-1
 144 213 l 1,3,-1
 172 213 l 1,4,-1
 100 1 l 1,5,-1
 73 1 l 1,6,-1
 3 213 l 1,0,-1
EndSplineSet
Substitution2: "'dnom' Denominators lookup 0 subtable" V.denominator
Substitution2: "'numr' Numerators lookup 0 subtable" V.numerator
EndChar

StartChar: W
Encoding: 87 87 60
GlifName: W_
Width: 248
GlyphClass: 1
Flags: W
HStem: 1 21G<47.4717 84.6442 164.479 202.434> 193 20G<4 36.586 105.522 142.732 213.414 245>
LayerCount: 2
Fore
SplineSet
4 213 m 1,0,-1
 32 213 l 1,1,-1
 68 56 l 1,2,-1
 111 213 l 1,3,-1
 137 213 l 1,4,-1
 182 56 l 1,5,-1
 218 213 l 1,6,-1
 245 213 l 1,7,-1
 198 1 l 1,8,-1
 170 1 l 1,9,-1
 125 164 l 1,10,-1
 79 1 l 1,11,-1
 52 1 l 1,12,-1
 4 213 l 1,0,-1
EndSplineSet
Substitution2: "'dnom' Denominators lookup 0 subtable" W.denominator
Substitution2: "'numr' Numerators lookup 0 subtable" W.numerator
EndChar

StartChar: X
Encoding: 88 88 61
GlifName: X_
Width: 176
GlyphClass: 1
Flags: W
HStem: 1 21G<6 46.5714 131.905 173> 193 20G<19.3333 33 133.429 173>
LayerCount: 2
Fore
SplineSet
6 1 m 1,0,-1
 76 108 l 1,1,-1
 6 213 l 1,2,-1
 33 213 l 1,3,4
 33 214 33 214 90 129 c 1,5,-1
 147 213 l 1,6,-1
 173 213 l 1,7,-1
 103 108 l 1,8,-1
 173 1 l 1,9,-1
 145 1 l 1,10,-1
 90 85 l 1,11,-1
 33 1 l 1,12,-1
 6 1 l 1,0,-1
EndSplineSet
Substitution2: "'dnom' Denominators lookup 0 subtable" X.denominator
Substitution2: "'numr' Numerators lookup 0 subtable" X.numerator
EndChar

StartChar: Y
Encoding: 89 89 62
GlifName: Y_
Width: 171
GlyphClass: 1
Flags: W
HStem: 0 21G<72 99> 193 20G<16.1429 28 128.429 170>
VStem: 72 27<0 108>
LayerCount: 2
Fore
SplineSet
3 213 m 1,0,-1
 28 213 l 1,1,2
 28 214 28 214 85 129 c 1,3,-1
 142 213 l 1,4,-1
 170 213 l 1,5,-1
 99 108 l 1,6,-1
 99 0 l 1,7,-1
 72 0 l 1,8,-1
 72 108 l 1,9,-1
 3 213 l 1,0,-1
EndSplineSet
Substitution2: "'dnom' Denominators lookup 0 subtable" Y.denominator
Substitution2: "'numr' Numerators lookup 0 subtable" Y.numerator
EndChar

StartChar: Z
Encoding: 90 90 63
GlifName: Z_
Width: 163
GlyphClass: 1
Flags: W
HStem: 0 28<41 153> 185 28<11 125>
LayerCount: 2
Fore
SplineSet
11 0 m 1,0,-1
 11 28 l 1,1,-1
 125 186 l 1,2,-1
 11 185 l 1,3,-1
 11 213 l 1,4,-1
 153 213 l 1,5,-1
 153 186 l 1,6,-1
 41 28 l 1,7,-1
 153 28 l 1,8,-1
 153 1 l 1,9,-1
 11 0 l 1,0,-1
EndSplineSet
Substitution2: "'dnom' Denominators lookup 0 subtable" Z.denominator
Substitution2: "'numr' Numerators lookup 0 subtable" Z.numerator
EndChar

StartChar: bracketleft
Encoding: 91 91 64
GlifName: bracketleft
Width: 84
GlyphClass: 1
Flags: W
HStem: -26 27<46 77> 186 27<46 77>
VStem: 18 59<-26 1 186 213> 18 28<1 186>
LayerCount: 2
Fore
SplineSet
18 -26 m 1,0,-1
 18 213 l 1,1,-1
 77 213 l 1,2,-1
 77 186 l 1,3,-1
 46 186 l 1,4,-1
 46 1 l 1,5,-1
 77 1 l 1,6,-1
 77 -27 l 1,7,-1
 18 -26 l 1,0,-1
EndSplineSet
Substitution2: "'dnom' Denominators lookup 0 subtable" bracketleft.denominator
Substitution2: "'numr' Numerators lookup 0 subtable" bracketleft.numerator
Substitution2: "'smcp' Lowercase to Small Capitals lookup 1 subtable" bracketleft.taboldstyle
Substitution2: "'rtla' Right to Left Alternates lookup 0 subtable" bracketright
EndChar

StartChar: backslash
Encoding: 92 92 65
GlifName: backslash
Width: 95
GlyphClass: 1
Flags: W
LayerCount: 2
Fore
SplineSet
4 222 m 1,0,-1
 33 222 l 1,1,-1
 91 -18 l 1,2,-1
 64 -18 l 1,3,-1
 4 222 l 1,0,-1
EndSplineSet
Substitution2: "'dnom' Denominators lookup 0 subtable" backslash.denominator
Substitution2: "'numr' Numerators lookup 0 subtable" backslash.numerator
Substitution2: "'smcp' Lowercase to Small Capitals lookup 1 subtable" backslash.taboldstyle
EndChar

StartChar: bracketright
Encoding: 93 93 66
GlifName: bracketright
Width: 84
GlyphClass: 1
Flags: W
HStem: -27 28<8 38> 186 27<8 38>
VStem: 8 58<-27 1 186 213> 38 28<1 186>
LayerCount: 2
Fore
SplineSet
8 1 m 1,0,-1
 38 1 l 1,1,-1
 38 186 l 1,2,-1
 8 186 l 1,3,-1
 8 213 l 1,4,-1
 66 213 l 1,5,-1
 66 -27 l 1,6,-1
 8 -27 l 1,7,-1
 8 1 l 1,0,-1
EndSplineSet
Substitution2: "'dnom' Denominators lookup 0 subtable" bracketright.denominator
Substitution2: "'numr' Numerators lookup 0 subtable" bracketright.numerator
Substitution2: "'smcp' Lowercase to Small Capitals lookup 1 subtable" bracketright.taboldstyle
Substitution2: "'rtla' Right to Left Alternates lookup 0 subtable" bracketleft
EndChar

StartChar: asciicircum
Encoding: 94 94 67
GlifName: asciicircum
Width: 132
GlyphClass: 1
Flags: W
HStem: 146 67
LayerCount: 2
Fore
SplineSet
13 146 m 1,0,-1
 54 213 l 1,1,-1
 81 213 l 1,2,-1
 120 146 l 1,3,-1
 98 146 l 1,4,-1
 68 193 l 1,5,-1
 35 146 l 1,6,-1
 13 146 l 1,0,-1
EndSplineSet
Substitution2: "'dnom' Denominators lookup 0 subtable" asciicircum.denominator
Substitution2: "'numr' Numerators lookup 0 subtable" asciicircum.numerator
Substitution2: "'smcp' Lowercase to Small Capitals lookup 1 subtable" asciicircum.taboldstyle
EndChar

StartChar: underscore
Encoding: 95 95 68
GlifName: underscore
Width: 148
GlyphClass: 1
Flags: W
HStem: -29 27<18 129>
LayerCount: 2
Fore
SplineSet
18 -29 m 1,0,-1
 18 -2 l 1,1,-1
 129 -2 l 1,2,-1
 129 -29 l 1,3,-1
 18 -29 l 1,0,-1
EndSplineSet
Substitution2: "'dnom' Denominators lookup 0 subtable" underscore.denominator
Substitution2: "'numr' Numerators lookup 0 subtable" underscore.numerator
Substitution2: "'smcp' Lowercase to Small Capitals lookup 1 subtable" underscore.taboldstyle
EndChar

StartChar: grave
Encoding: 96 96 69
GlifName: grave
Width: 79
GlyphClass: 1
Flags: W
HStem: 172 41
VStem: 14 50
LayerCount: 2
Fore
SplineSet
14 213 m 1,0,-1
 41 213 l 1,1,-1
 64 172 l 1,2,-1
 42 172 l 1,3,-1
 14 213 l 1,0,-1
EndSplineSet
Substitution2: "'dnom' Denominators lookup 0 subtable" grave.denominator
Substitution2: "'numr' Numerators lookup 0 subtable" grave.numerator
Substitution2: "'smcp' Lowercase to Small Capitals lookup 1 subtable" grave.taboldstyle
EndChar

StartChar: a
Encoding: 97 97 70
GlifName: a
Width: 146
GlyphClass: 1
Flags: W
HStem: -1 28<44.3386 92.6528> 63 28<43.4911 108> 119 26<48.1485 96.1785>
VStem: 8 30<33.1275 57.0379> 108 25<0 22.4 40.4316 63 91 107.281>
LayerCount: 2
Fore
SplineSet
8 45.9716063325 m 0,0,1
 8 91 8 91 71 91 c 2,2,-1
 108 91 l 1,3,4
 108 118 108 118 74.1021152962 118.968510992 c 0,5,6
 73 119 73 119 71.7956036586 119 c 0,7,8
 43 119 43 119 40 101 c 1,9,-1
 11 101 l 1,10,11
 14 145 14 145 70.1841786449 145 c 0,12,13
 133 145 133 145 133 90 c 2,14,-1
 133 41 l 1,15,-1
 133 0 l 1,16,-1
 108 0 l 1,17,-1
 106 25 l 1,18,19
 102 -1 102 -1 68 -1 c 2,20,-1
 65 -1 l 2,21,22
 38 -1 38 -1 22.9108848835 11.5742625971 c 128,-1,23
 8 24 8 24 8 45.9716063325 c 0,0,1
38 45.2015352387 m 0,24,25
 38 27 38 27 68 27 c 2,26,-1
 72 27 l 2,27,28
 102 27 102 27 108 53 c 1,29,-1
 108 63 l 1,30,-1
 73 63 l 2,31,32
 71 63 71 63 68.8527312442 63.0650687502 c 0,33,34
 38 64 38 64 38 45.2015352387 c 0,24,25
EndSplineSet
Substitution2: "'dnom' Denominators lookup 0 subtable" a.denominator
Substitution2: "'numr' Numerators lookup 0 subtable" a.numerator
AlternateSubs2: "Alternate Substitution lookup 2 subtable" a.mart
Substitution2: "'smcp' Lowercase to Small Capitals lookup 1 subtable" a.sc
EndChar

StartChar: b
Encoding: 98 98 71
GlifName: b
Width: 173
GlyphClass: 1
Flags: W
HStem: -1.6013 27.6013<68.6949 115.04> 118.506 26.4941<65.0374 113.818> 193 20G<18 46>
VStem: 18 28<0 29 49.8633 98.8612 125 213> 134 29<44.3991 97.7345>
LayerCount: 2
Fore
SplineSet
18 0 m 1,0,-1
 18 74 l 1,1,-1
 18 213 l 1,2,-1
 46 213 l 1,3,-1
 46 125 l 1,4,5
 54 145 54 145 91.2835875082 145 c 0,6,7
 163 145 163 145 163 70.2057959076 c 0,8,9
 163 -1 163 -1 98.059843043 -1.6012977496 c 0,10,11
 55 -2 55 -2 46 29 c 1,12,-1
 46 0 l 1,13,-1
 18 0 l 1,0,-1
47 74.5052603244 m 0,14,15
 47 51 47 51 59.2109644288 38.2802453866 c 0,16,17
 71 26 71 26 92.4619999398 26 c 0,18,19
 134 26 134 26 134 71.3378646781 c 0,20,21
 134 118 134 118 89.9883370494 118.505881183 c 0,22,23
 47 119 47 119 47 74.5052603244 c 0,14,15
EndSplineSet
Substitution2: "'dnom' Denominators lookup 0 subtable" b.denominator
Substitution2: "'numr' Numerators lookup 0 subtable" b.numerator
Substitution2: "'smcp' Lowercase to Small Capitals lookup 1 subtable" b.sc
EndChar

StartChar: c
Encoding: 99 99 72
GlifName: c
Width: 160
GlyphClass: 1
Flags: W
HStem: 0 28<54.8711 110.562> 119 26<56.0054 109.062>
VStem: 8 27<47.9856 98.7593> 123 29<39.0623 49 96 107.047>
LayerCount: 2
Fore
SplineSet
8 72.7570954316 m 0,0,1
 8 145 8 145 78 145 c 2,2,-1
 79 145 l 1,3,4
 147 143 147 143 152 96 c 1,5,-1
 123 96 l 1,6,7
 118 119 118 119 84 119 c 2,8,9
 84 119 84 119 83 119 c 2,10,-1
 79 119 l 1,11,12
 35 117 35 117 35 73.2471988135 c 0,13,14
 35 29 35 29 79.0136340306 28.0219192438 c 0,15,16
 80 28 80 28 81 28 c 2,17,-1
 84 28 l 2,18,19
 117 28 117 28 123 49 c 1,20,-1
 152 49 l 1,21,22
 148 1 148 1 81 0 c 1,23,-1
 79 0 l 2,24,25
 8 0 8 0 8 72.7570954316 c 0,0,1
EndSplineSet
Substitution2: "'dnom' Denominators lookup 0 subtable" c.denominator
Substitution2: "'numr' Numerators lookup 0 subtable" c.numerator
EndChar

StartChar: d
Encoding: 100 100 73
GlifName: d
Width: 171
GlyphClass: 1
Flags: W
HStem: -2 28<53.8906 102.268> 0 21G<127 153> 119 26<56.2931 105.759> 193 20G<127 153>
VStem: 9 29<43.1311 99.0582> 127 26<0 29 50.5526 97.7182 125 213>
LayerCount: 2
Fore
SplineSet
9 71.4640742577 m 0,0,1
 9 145 9 145 80.6392126618 145 c 0,2,3
 118 145 118 145 127 125 c 1,4,-1
 127 213 l 1,5,-1
 153 213 l 1,6,-1
 153 74 l 1,7,-1
 153 0 l 1,8,-1
 127 0 l 1,9,-1
 127 29 l 1,10,11
 118 -2 118 -2 79 -2 c 2,12,-1
 77 -2 l 1,13,14
 9 0 9 0 9 71.4640742577 c 0,0,1
38 71.0796317053 m 0,15,16
 38 26 38 26 74 26 c 2,17,18
 74 26 74 26 75 26 c 2,19,-1
 77 26 l 1,20,21
 126 28 126 28 126 73.9740097723 c 0,22,23
 126 119 126 119 79 119 c 2,24,-1
 77 119 l 1,25,26
 38 118 38 118 38 71.0796317053 c 0,15,16
EndSplineSet
Substitution2: "'dnom' Denominators lookup 0 subtable" d.denominator
Substitution2: "'numr' Numerators lookup 0 subtable" d.numerator
Substitution2: "sosis-'smcp' Lowercase to Small Capitals lookup 1 subtable" omega.sc
EndChar

StartChar: e
Encoding: 101 101 74
GlifName: e
Width: 160
GlyphClass: 1
Flags: W
HStem: -3 28<54.2109 109.5> 60 25<36 123> 114 28<54.2109 108.938>
VStem: 123 27<85 101.511>
LayerCount: 2
Fore
SplineSet
36 85 m 1,0,-1
 123 85 l 1,1,2
 123 114 123 114 79 114 c 2,3,-1
 78 114 l 2,4,5
 44 114 44 114 36 85 c 1,0,-1
8 69 m 128,-1,7
 8 142 8 142 78 142 c 2,8,-1
 79 142 l 1,9,10
 147 140 147 140 150 84 c 1,11,-1
 150 60 l 1,12,-1
 34 60 l 1,13,14
 37 26 37 26 80 25 c 1,15,-1
 83 25 l 2,16,17
 116 25 116 25 121 46 c 1,18,-1
 150 46 l 1,19,20
 147 -1 147 -1 80 -3 c 1,21,-1
 78 -3 l 1,22,6
 8 -4 8 -4 8 69 c 128,-1,7
EndSplineSet
Substitution2: "'dnom' Denominators lookup 0 subtable" e.denominator
Substitution2: "'numr' Numerators lookup 0 subtable" e.numerator
Substitution2: "'smcp' Lowercase to Small Capitals lookup 1 subtable" e.sc
EndChar

StartChar: f
Encoding: 102 102 75
GlifName: f
Width: 88
GlyphClass: 1
Flags: W
HStem: 0 21G<28 55> 108 26<7 28 55 77> 187 27<65.0327 82>
VStem: 28 27<0 108 134 176.727>
LayerCount: 2
Fore
SplineSet
7 108 m 1,0,-1
 7 134 l 1,1,-1
 28 134 l 1,2,-1
 28 158 l 2,3,4
 28 213 28 213 82 214 c 1,5,-1
 82 187 l 1,6,7
 55 185 55 185 55 159 c 2,8,9
 55 159 55 159 55 158 c 2,10,-1
 55 134 l 1,11,-1
 77 134 l 1,12,-1
 77 108 l 1,13,-1
 55 108 l 1,14,-1
 55 0 l 1,15,-1
 28 0 l 1,16,-1
 28 108 l 1,17,-1
 7 108 l 1,0,-1
EndSplineSet
Substitution2: "'dnom' Denominators lookup 0 subtable" f.denominator
Substitution2: "'numr' Numerators lookup 0 subtable" f.numerator
Substitution2: "'smcp' Lowercase to Small Capitals lookup 1 subtable" f.sc
EndChar

StartChar: g
Encoding: 103 103 76
GlifName: g
Width: 169
GlyphClass: 1
Flags: W
HStem: -60.3286 26.3286<52.8449 109.967> 0 28<55.5197 105.387> 119 26<53.9346 104.031>
VStem: 9.49338 28.5066<-21.8449 -8 46.9692 101.345> 127 26<-18.7593 20 49.0535 97.5876 119 144>
LayerCount: 2
Fore
SplineSet
80.5869952542 -34 m 0,0,1
 127 -34 127 -34 127 0 c 2,2,-1
 127 20 l 1,3,4
 119 0 119 0 81.7164124918 0 c 0,5,6
 10 0 10 0 9.4933830431 73.9660757071 c 0,7,8
 9 146 9 146 77 145 c 1,9,-1
 79 145 l 2,10,11
 118 145 118 145 127 119 c 1,12,-1
 127 144 l 1,13,-1
 153 144 l 1,14,-1
 153 88 l 1,15,-1
 153 71 l 1,16,-1
 153 0 l 2,17,18
 153 -33 153 -33 135.501952708 -46.895508144 c 0,19,20
 119 -60 119 -60 83.1851685905 -60.3285764349 c 0,21,22
 10 -61 10 -61 9 -8 c 1,23,-1
 38 -8 l 1,24,25
 40 -34 40 -34 80.5869952542 -34 c 0,0,1
38 73.803346816 m 0,26,27
 38 28 38 28 76 28 c 2,28,29
 76 28 76 28 77 28 c 2,30,-1
 78 28 l 2,31,32
 126 28 126 28 126.494921483 72.5429334372 c 0,33,34
 127 118 127 118 77 119 c 1,35,-1
 75 119 l 2,36,37
 38 119 38 119 38 73.803346816 c 0,26,27
EndSplineSet
Substitution2: "'dnom' Denominators lookup 0 subtable" g.denominator
Substitution2: "'numr' Numerators lookup 0 subtable" g.numerator
Substitution2: "'smcp' Lowercase to Small Capitals lookup 1 subtable" g.sc
EndChar

StartChar: h
Encoding: 104 104 77
GlifName: h
Width: 157
GlyphClass: 1
Flags: W
HStem: 0 21G<17 46 119 144> 118 27<62.9102 104.396> 193 20G<18 46>
VStem: 18 28<0 99.6406 117 213> 119 25<0 103.518>
LayerCount: 2
Fore
SplineSet
17 0 m 1,0,-1
 18 71 l 1,1,-1
 18 213 l 1,2,-1
 46 213 l 1,3,-1
 46 117 l 1,4,5
 54 145 54 145 87 145 c 2,6,-1
 88 145 l 1,7,8
 145 143 145 143 144 79 c 1,9,-1
 144 0 l 1,10,-1
 119 0 l 1,11,-1
 119 79 l 2,12,13
 119 118 119 118 84.2013630279 118 c 0,14,15
 46 118 46 118 46 71 c 2,16,-1
 46 0 l 1,17,-1
 17 0 l 1,0,-1
EndSplineSet
Substitution2: "'dnom' Denominators lookup 0 subtable" h.denominator
Substitution2: "'numr' Numerators lookup 0 subtable" h.numerator
Substitution2: "'smcp' Lowercase to Small Capitals lookup 1 subtable" h.sc
EndChar

StartChar: i
Encoding: 105 105 78
GlifName: i
Width: 64
GlyphClass: 1
Flags: W
HStem: 1 21G<17 46> 180 26<17 46>
VStem: 17 29<1 150 180 206>
LayerCount: 2
Fore
SplineSet
17 180 m 1,0,-1
 17 206 l 1,1,-1
 46 206 l 1,2,-1
 46 180 l 1,3,-1
 17 180 l 1,0,-1
17 1 m 1,4,-1
 17 150 l 1,5,-1
 46 150 l 1,6,-1
 46 1 l 1,7,-1
 17 1 l 1,4,-1
EndSplineSet
Substitution2: "'dnom' Denominators lookup 0 subtable" i.denominator
Substitution2: "'numr' Numerators lookup 0 subtable" i.numerator
Substitution2: "'smcp' Lowercase to Small Capitals lookup 1 subtable" idotaccent.sc
EndChar

StartChar: j
Encoding: 106 106 79
GlifName: j
Width: 65
GlyphClass: 1
Flags: W
HStem: -74 28<-25 -2.06274> 180 26<20 48>
VStem: 20 28<-24.1836 150 180 206>
LayerCount: 2
Fore
SplineSet
20 180 m 1,0,-1
 20 206 l 1,1,-1
 48 206 l 1,2,-1
 48 180 l 1,3,-1
 20 180 l 1,0,-1
-25 -46 m 1,4,5
 20 -44 20 -44 20 1 c 2,6,-1
 20 150 l 1,7,-1
 48 150 l 1,8,-1
 48 1 l 2,9,10
 48 -73 48 -73 -25 -74 c 1,11,-1
 -25 -46 l 1,4,5
EndSplineSet
Substitution2: "'dnom' Denominators lookup 0 subtable" j.denominator
Substitution2: "'numr' Numerators lookup 0 subtable" j.numerator
Substitution2: "'smcp' Lowercase to Small Capitals lookup 1 subtable" j.sc
EndChar

StartChar: k
Encoding: 107 107 80
GlifName: k
Width: 170
GlyphClass: 1
Flags: W
HStem: 0 21G<17 45 114.825 166> 126 20G<113.104 164> 193 20G<17 45>
VStem: 17 28<0 47 69 213>
LayerCount: 2
Fore
SplineSet
17 0 m 1,0,-1
 17 213 l 1,1,-1
 45 213 l 1,2,-1
 45 69 l 1,3,-1
 137 146 l 1,4,-1
 164 146 l 1,5,-1
 78 74 l 1,6,-1
 166 0 l 1,7,-1
 138 0 l 1,8,-1
 65 63 l 1,9,-1
 45 47 l 1,10,-1
 45 0 l 1,11,-1
 17 0 l 1,0,-1
EndSplineSet
Substitution2: "'dnom' Denominators lookup 0 subtable" k.denominator
Substitution2: "'numr' Numerators lookup 0 subtable" k.numerator
Substitution2: "'smcp' Lowercase to Small Capitals lookup 1 subtable" k.sc
EndChar

StartChar: l
Encoding: 108 108 81
GlifName: l
Width: 64
GlyphClass: 1
Flags: W
HStem: 0 21G<18 46>
VStem: 18 28<0 218>
LayerCount: 2
Fore
SplineSet
18 0 m 1,0,-1
 18 218 l 1,1,-1
 46 218 l 1,2,-1
 46 0 l 1,3,-1
 18 0 l 1,0,-1
EndSplineSet
Substitution2: "'dnom' Denominators lookup 0 subtable" l.denominator
Substitution2: "'numr' Numerators lookup 0 subtable" l.numerator
AlternateSubs2: "Alternate Substitution lookup 2 subtable" l.mart
Substitution2: "'smcp' Lowercase to Small Capitals lookup 1 subtable" l.sc
EndChar

StartChar: m
Encoding: 109 109 82
GlifName: m
Width: 250
GlyphClass: 1
Flags: W
HStem: 0 21G<16 43 115 143 209 238> 119 26<61.7761 103.982 154.922 199.729>
VStem: 16 27<0 99.2277 117 145> 115 28<0 107.669> 209 29<0 109.352>
LayerCount: 2
Fore
SplineSet
16 0 m 1,0,-1
 16 71 l 1,1,-1
 16 145 l 1,2,-1
 42 145 l 1,3,-1
 42 117 l 1,4,5
 50 145 50 145 85 145 c 2,6,-1
 87 145 l 2,7,8
 119 145 119 145 130 119 c 1,9,10
 144 145 144 145 177 145 c 2,11,-1
 179 145 l 2,12,13
 236 145 236 145 238 91 c 1,14,-1
 238 0 l 1,15,-1
 209 0 l 1,16,-1
 209 93 l 2,17,18
 209 119 209 119 178 119 c 2,19,-1
 177 119 l 2,20,21
 144 119 144 119 143 90 c 1,22,-1
 143 0 l 1,23,-1
 115 0 l 1,24,-1
 115 90 l 2,25,26
 115 118 115 118 83.7480891262 118.434054318 c 0,27,28
 43 119 43 119 43 71 c 2,29,-1
 43 0 l 1,30,-1
 16 0 l 1,0,-1
EndSplineSet
Substitution2: "'dnom' Denominators lookup 0 subtable" m.denominator
Substitution2: "'numr' Numerators lookup 0 subtable" m.numerator
Substitution2: "'smcp' Lowercase to Small Capitals lookup 1 subtable" m.sc
EndChar

StartChar: n
Encoding: 110 110 83
GlifName: n
Width: 155
GlyphClass: 1
Flags: W
HStem: 0 21G<16 45 115 143> 118 27<61.0186 100.904>
VStem: 16 29<0 100.547> 16 26<117 145> 115 28<0 103.077>
LayerCount: 2
Fore
SplineSet
16 0 m 1,0,-1
 16 71 l 1,1,-1
 16 145 l 1,2,-1
 42 145 l 1,3,-1
 42 117 l 1,4,5
 50 145 50 145 85 145 c 2,6,-1
 86 145 l 1,7,8
 143 143 143 143 143 80 c 2,9,10
 143 80 143 80 143 79 c 2,11,-1
 143 0 l 1,12,-1
 115 0 l 1,13,-1
 115 79 l 2,14,15
 115 118 115 118 81.6314439994 118 c 0,16,17
 45 118 45 118 45 71 c 2,18,-1
 45 0 l 1,19,-1
 16 0 l 1,0,-1
EndSplineSet
Substitution2: "'dnom' Denominators lookup 0 subtable" n.denominator
Substitution2: "'numr' Numerators lookup 0 subtable" n.numerator
AlternateSubs2: "Alternate Substitution lookup 2 subtable" n.mart
Substitution2: "'smcp' Lowercase to Small Capitals lookup 1 subtable" n.sc
EndChar

StartChar: o
Encoding: 111 111 84
GlifName: o
Width: 160
GlyphClass: 1
Flags: W
HStem: 0 28<54.9595 104.221> 119 27<55.6912 104.469>
VStem: 7 29<47.8251 99.6805> 124 28<47.8933 99.5245>
LayerCount: 2
Fore
SplineSet
7 73.5069688944 m 0,0,1
 7 146 7 146 78 146 c 2,2,-1
 80 146 l 2,3,4
 152 146 152 146 152 73 c 128,-1,5
 152 0 152 0 79.6254389301 0 c 0,6,7
 7 0 7 0 7 73.5069688944 c 0,0,1
36 73.4766734184 m 0,8,9
 36 29 36 29 78 28 c 1,10,-1
 80 28 l 2,11,12
 124 28 124 28 124 73.5 c 128,-1,13
 124 119 124 119 80.0056379482 119 c 128,-1,14
 36 119 36 119 36 73.4766734184 c 0,8,9
EndSplineSet
Substitution2: "'dnom' Denominators lookup 0 subtable" o.denominator
Substitution2: "'numr' Numerators lookup 0 subtable" o.numerator
Substitution2: "'smcp' Lowercase to Small Capitals lookup 1 subtable" o.sc
EndChar

StartChar: p
Encoding: 112 112 85
GlifName: p
Width: 168
GlyphClass: 1
Flags: W
HStem: -61 21G<17 43> 0 28<63.8105 113.139> 119 28<66.1194 115.77>
VStem: 17 26<-61 20 48.9336 95.4895 117 146> 131.507 28.4934<48.5551 103.228>
LayerCount: 2
Fore
SplineSet
17 -61 m 1,0,-1
 17 71 l 1,1,-1
 17 146 l 1,2,-1
 43 146 l 1,3,-1
 43 117 l 1,4,5
 52 147 52 147 91 147 c 2,6,-1
 93 147 l 1,7,8
 160 145 160 145 160 73.5509454245 c 0,9,10
 160 0 160 0 89.0155434446 0 c 0,11,12
 52 0 52 0 43 20 c 1,13,-1
 43 -61 l 1,14,-1
 17 -61 l 1,0,-1
44 72.2892964563 m 0,15,16
 44 28 44 28 90 28 c 2,17,18
 90 28 90 28 91 28 c 2,19,-1
 93 28 l 1,20,21
 131 29 131 29 131.506633745 74.5970370455 c 0,22,23
 132 119 132 119 96 119 c 2,24,-1
 93 119 l 1,25,26
 44 118 44 118 44 72.2892964563 c 0,15,16
EndSplineSet
Substitution2: "'dnom' Denominators lookup 0 subtable" p.denominator
Substitution2: "'numr' Numerators lookup 0 subtable" p.numerator
Substitution2: "'smcp' Lowercase to Small Capitals lookup 1 subtable" p.sc
EndChar

StartChar: q
Encoding: 113 113 86
GlifName: q
Width: 169
GlyphClass: 1
Flags: W
HStem: -61 21G<125 152> 0 28<52.909 104.7> 119 28<51.9346 100.698>
VStem: 7 29<46.3517 101.469> 125 27<-61 20 47.8788 95.9431 117 146>
LayerCount: 2
Fore
SplineSet
7 73.5359257423 m 0,0,1
 7 145 7 145 75 147 c 1,2,-1
 78 147 l 2,3,4
 116 147 116 147 125 117 c 1,5,-1
 125 146 l 1,6,-1
 152 146 l 1,7,-1
 152 71 l 1,8,-1
 152 -61 l 1,9,-1
 125 -61 l 1,10,-1
 125 20 l 1,11,12
 117 0 117 0 79.296453145 0 c 0,13,14
 7 0 7 0 7 73.5359257423 c 0,0,1
36 74.0987878967 m 0,15,16
 36 28 36 28 75 28 c 2,17,-1
 78 28 l 2,18,19
 125 28 125 28 124.505206433 72.0366274724 c 0,20,21
 124 117 124 117 75 119 c 1,22,-1
 73 119 l 2,23,24
 36 119 36 119 36 74.0987878967 c 0,15,16
EndSplineSet
Substitution2: "'dnom' Denominators lookup 0 subtable" q.denominator
Substitution2: "'numr' Numerators lookup 0 subtable" q.numerator
Substitution2: "'smcp' Lowercase to Small Capitals lookup 1 subtable" q.sc
EndChar

StartChar: r
Encoding: 114 114 87
GlifName: r
Width: 151
GlyphClass: 1
Flags: W
HStem: 0 21G<16 43.5634> 119 27<63.4062 109.479>
VStem: 16 29<7.384 99.7112> 16 26<0 42.4107 117 145>
LayerCount: 2
Fore
SplineSet
16 0 m 1,0,-1
 16 71 l 1,1,-1
 16 145 l 1,2,-1
 42 145 l 1,3,-1
 42 117 l 1,4,5
 51 146 51 146 86 146 c 2,6,-1
 88 146 l 1,7,8
 143 145 143 145 144 101 c 1,9,-1
 117 101 l 1,10,11
 115 118 115 118 89.2053068558 118.955359005 c 0,12,13
 88 119 88 119 86.7009265116 119 c 0,14,15
 45 119 45 119 45 72 c 2,16,17
 45 72 45 72 45 71 c 2,18,-1
 43 0 l 1,19,-1
 16 0 l 1,0,-1
EndSplineSet
Substitution2: "'dnom' Denominators lookup 0 subtable" r.denominator
Substitution2: "'numr' Numerators lookup 0 subtable" r.numerator
Substitution2: "'smcp' Lowercase to Small Capitals lookup 1 subtable" r.sc
EndChar

StartChar: s
Encoding: 115 115 88
GlifName: s
Width: 141
GlyphClass: 1
Flags: W
HStem: 0 28<46.3536 97.7582> 60 27<46.9875 96.8291> 119 27<43.6441 96.8631>
VStem: 10 28.5115<35.8612 46 94.8776 113.834> 104 28<34.0953 53.6442 101 112.351>
LayerCount: 2
Fore
SplineSet
10 102.466860204 m 0,0,1
 10 146 10 146 72.5551553342 146 c 0,2,3
 104 146 104 146 117.858218955 134.708117889 c 0,4,5
 131 124 131 124 131 101 c 1,6,-1
 104 101 l 1,7,8
 104 119 104 119 70.0196623784 119 c 0,9,10
 39 119 39 119 38.5115327383 104.345982148 c 0,11,12
 38 89 38 89 72 87 c 1,13,14
 132 86 132 86 132 43.1776889846 c 0,15,16
 132 0 132 0 71.103542393 0 c 0,17,18
 39 0 39 0 24.2533241144 11.6956394955 c 0,19,20
 10 23 10 23 11 46 c 1,21,-1
 40 46 l 1,22,23
 40 29 40 29 69 28 c 0,24,25
 104 28 104 28 104 44 c 128,-1,26
 104 60 104 60 68.2472046511 60 c 0,27,28
 10 60 10 60 10 102.466860204 c 0,0,1
EndSplineSet
Substitution2: "'dnom' Denominators lookup 0 subtable" s.denominator
Substitution2: "'numr' Numerators lookup 0 subtable" s.numerator
EndChar

StartChar: t
Encoding: 116 116 89
GlifName: t
Width: 114
GlyphClass: 1
Flags: W
HStem: 0 28<59.2386 78.5389> 121 26<7 28 55 77> 194 20G<28 55>
VStem: 28 27<30.9734 121 147 214> 81 27<30.6334 54>
LayerCount: 2
Fore
SplineSet
7 121 m 1,0,-1
 7 147 l 1,1,-1
 28 147 l 1,2,-1
 28 214 l 1,3,-1
 55 214 l 1,4,-1
 55 147 l 1,5,-1
 77 147 l 1,6,-1
 77 121 l 1,7,-1
 55 121 l 1,8,-1
 55 57 l 2,9,10
 55 29 55 29 66 28 c 1,11,-1
 67 28 l 1,12,13
 67 28 67 28 70 28 c 0,14,15
 72 28 72 28 73.8301270189 28.3660254038 c 0,16,17
 77 29 77 29 78.588920913 30.588920913 c 128,-1,18
 80 32 80 32 80 35 c 0,19,20
 80 40 80 40 80.5 41.5 c 128,-1,21
 81 43 81 43 81 53 c 2,22,23
 81 53 81 53 81 54 c 1,24,-1
 108 54 l 1,25,26
 107 23 107 23 99.844508302 12.0282460631 c 0,27,28
 92 0 92 0 70.173482159 0 c 0,29,30
 45 0 45 0 35.5774311 16.073794006 c 0,31,32
 28 29 28 29 28 57 c 2,33,-1
 28 121 l 1,34,-1
 7 121 l 1,0,-1
EndSplineSet
Substitution2: "'dnom' Denominators lookup 0 subtable" t.denominator
Substitution2: "'numr' Numerators lookup 0 subtable" t.numerator
Substitution2: "'smcp' Lowercase to Small Capitals lookup 1 subtable" t.sc
EndChar

StartChar: u
Encoding: 117 117 90
GlifName: u
Width: 157
GlyphClass: 1
Flags: W
HStem: 1 27.5262<56.0008 95.9957> 126 20G<13 42 113 140>
VStem: 13 29<42.9231 146> 113 27<1 29 44.6562 146>
LayerCount: 2
Fore
SplineSet
13 146 m 1,0,-1
 42 146 l 1,1,-1
 42 67 l 2,2,3
 42 29 42 29 76.1149424334 28.5261813551 c 0,4,5
 114 28 114 28 113 75 c 1,6,-1
 113 146 l 1,7,-1
 140 146 l 1,8,-1
 140 75 l 1,9,-1
 140 1 l 1,10,-1
 113 1 l 1,11,-1
 113 29 l 1,12,13
 105 1 105 1 72 1 c 2,14,-1
 71 1 l 1,15,16
 13 3 13 3 13 66 c 2,17,18
 13 66 13 66 13 67 c 2,19,-1
 13 146 l 1,0,-1
EndSplineSet
Substitution2: "'dnom' Denominators lookup 0 subtable" u.denominator
Substitution2: "'numr' Numerators lookup 0 subtable" u.numerator
Substitution2: "'smcp' Lowercase to Small Capitals lookup 1 subtable" u.sc
EndChar

StartChar: v
Encoding: 118 118 91
GlifName: v
Width: 153
GlyphClass: 1
Flags: W
HStem: 1 21G<52.3611 95.4722> 125 20G<5 40.7064 112.56 148>
LayerCount: 2
Fore
SplineSet
5 145 m 1,0,-1
 33 145 l 1,1,-1
 75 36 l 1,2,-1
 121 145 l 1,3,-1
 148 145 l 1,4,-1
 87 1 l 1,5,-1
 60 1 l 1,6,-1
 5 145 l 1,0,-1
EndSplineSet
Substitution2: "'dnom' Denominators lookup 0 subtable" v.denominator
Substitution2: "'numr' Numerators lookup 0 subtable" v.numerator
Substitution2: "sosis-'smcp' Lowercase to Small Capitals lookup 1 subtable" uni030A.taboldstyle
EndChar

StartChar: w
Encoding: 119 119 92
GlifName: w
Width: 204
GlyphClass: 1
Flags: W
HStem: 1 21G<42.3448 80.9462 120.194 159.069> 126 20G<7 39.8065 80.6237 118.567 162.227 197>
LayerCount: 2
Fore
SplineSet
7 146 m 1,0,-1
 34 146 l 1,1,-1
 61 53 l 1,2,-1
 86 146 l 1,3,-1
 113 146 l 1,4,-1
 140 49 l 1,5,-1
 168 146 l 1,6,-1
 197 146 l 1,7,-1
 153 1 l 1,8,-1
 126 1 l 1,9,-1
 99 94 l 1,10,-1
 76 1 l 1,11,-1
 48 1 l 1,12,-1
 7 146 l 1,0,-1
EndSplineSet
Substitution2: "'dnom' Denominators lookup 0 subtable" w.denominator
Substitution2: "'numr' Numerators lookup 0 subtable" w.numerator
Substitution2: "'smcp' Lowercase to Small Capitals lookup 1 subtable" w.sc
EndChar

StartChar: x
Encoding: 120 120 93
GlifName: x
Width: 154
GlyphClass: 1
Flags: W
HStem: 1 21G<7 51.8 100.4 143> 125 20G<7 49.7368 106.211 149>
LayerCount: 2
Fore
SplineSet
7 145 m 1,0,-1
 35 145 l 1,1,-1
 77 88 l 1,2,-1
 122 145 l 1,3,-1
 149 145 l 1,4,-1
 90 71 l 1,5,-1
 143 1 l 1,6,-1
 116 1 l 1,7,-1
 77 51 l 1,8,-1
 35 1 l 1,9,-1
 7 1 l 1,10,-1
 62 71 l 1,11,-1
 7 145 l 1,0,-1
EndSplineSet
Substitution2: "'dnom' Denominators lookup 0 subtable" x.denominator
Substitution2: "'numr' Numerators lookup 0 subtable" x.numerator
Substitution2: "'smcp' Lowercase to Small Capitals lookup 1 subtable" x.sc
EndChar

StartChar: y
Encoding: 121 121 94
GlifName: y
Width: 153
GlyphClass: 1
Flags: W
HStem: -60 21G<33 68.5024> 127 20G<5 40.027 112.171 148>
LayerCount: 2
Fore
SplineSet
5 147 m 1,0,-1
 33 147 l 1,1,-1
 72 36 l 1,2,-1
 121 147 l 1,3,-1
 148 147 l 1,4,-1
 60 -60 l 1,5,-1
 33 -60 l 1,6,-1
 60 3 l 1,7,-1
 5 147 l 1,0,-1
EndSplineSet
Substitution2: "'dnom' Denominators lookup 0 subtable" y.denominator
Substitution2: "'numr' Numerators lookup 0 subtable" y.numerator
AlternateSubs2: "Alternate Substitution lookup 2 subtable" y.mart
Substitution2: "'smcp' Lowercase to Small Capitals lookup 1 subtable" y.sc
EndChar

StartChar: z
Encoding: 122 122 95
GlifName: z
Width: 128
GlyphClass: 1
Flags: W
HStem: 0 28<42 114> 119 27<13 86>
LayerCount: 2
Fore
SplineSet
13 0 m 1,0,-1
 13 28 l 1,1,-1
 86 119 l 1,2,-1
 13 119 l 1,3,-1
 13 146 l 1,4,-1
 114 146 l 1,5,-1
 114 119 l 1,6,-1
 42 28 l 1,7,-1
 114 28 l 1,8,-1
 114 1 l 1,9,-1
 13 0 l 1,0,-1
EndSplineSet
Substitution2: "'dnom' Denominators lookup 0 subtable" z.denominator
Substitution2: "'numr' Numerators lookup 0 subtable" z.numerator
Substitution2: "'smcp' Lowercase to Small Capitals lookup 1 subtable" z.sc
EndChar

StartChar: braceleft
Encoding: 123 123 96
GlifName: braceleft
Width: 134
GlyphClass: 1
Flags: W
HStem: -51 24<107.497 127> 66 27<8 31.8056> 188 25<107.227 127>
VStem: 45 27<11.8164 52.9065 103.28 142.372>
LayerCount: 2
Fore
SplineSet
8 66 m 1,0,-1
 8 93 l 1,1,2
 27 93 27 93 35.291350217 98.988197379 c 0,3,4
 45 106 45 106 45 125.58008073 c 0,5,6
 45 157 45 157 70.2982654111 184.28244309 c 0,7,8
 96 212 96 212 127 213 c 1,9,-1
 127 188 l 1,10,11
 104 187 104 187 88.7724526477 165.246360925 c 0,12,13
 76 147 76 147 72 119 c 1,14,15
 71 93 71 93 45 79 c 1,16,17
 72 68 72 68 72 37.4880839368 c 0,18,19
 72 14 72 14 88.1282076463 -5.54934260159 c 0,20,21
 105 -26 105 -26 127 -27 c 1,22,-1
 127 -51 l 1,23,24
 95 -51 95 -51 68.0923498904 -20.3252788751 c 0,25,26
 45 6 45 6 45 32.4806550986 c 0,27,28
 45 66 45 66 8 66 c 1,0,-1
EndSplineSet
Substitution2: "'dnom' Denominators lookup 0 subtable" braceleft.denominator
Substitution2: "'numr' Numerators lookup 0 subtable" braceleft.numerator
Substitution2: "'smcp' Lowercase to Small Capitals lookup 1 subtable" braceleft.taboldstyle
Substitution2: "'rtla' Right to Left Alternates lookup 0 subtable" braceright
EndChar

StartChar: bar
Encoding: 124 124 97
GlifName: bar
Width: 65
GlyphClass: 1
Flags: W
VStem: 18 29<-17 243>
LayerCount: 2
Fore
SplineSet
18 -17 m 1,0,-1
 18 243 l 1,1,-1
 47 243 l 1,2,-1
 47 -17 l 1,3,-1
 18 -17 l 1,0,-1
EndSplineSet
Substitution2: "'dnom' Denominators lookup 0 subtable" bar.denominator
Substitution2: "'numr' Numerators lookup 0 subtable" bar.numerator
Substitution2: "'smcp' Lowercase to Small Capitals lookup 1 subtable" bar.taboldstyle
EndChar

StartChar: braceright
Encoding: 125 125 98
GlifName: braceright
Width: 135
GlyphClass: 1
Flags: W
HStem: -51 24<7 27.468> 66 27<101.234 126> 188 25<7 27.2608>
VStem: 65 26<14.0806 57.0065 103.006 146.702>
LayerCount: 2
Fore
SplineSet
7 -27 m 1,0,1
 30 -26 30 -26 48.1208592116 -4.25496894611 c 0,2,3
 65 16 65 16 65 39.4549932862 c 0,4,5
 65 68 65 68 90 79 c 1,6,7
 64 91 64 91 64 122.169510534 c 0,8,9
 64 147 64 147 47.7471240395 166.207944317 c 0,10,11
 31 186 31 186 7 188 c 1,12,-1
 7 213 l 1,13,14
 39 213 39 213 65.9126172654 182.982080742 c 0,15,16
 91 155 91 155 91 123.684080515 c 0,17,18
 91 106 91 106 99.4666845333 99.6499866 c 0,19,20
 107 94 107 94 127 93 c 1,21,-1
 126 66 l 1,22,23
 108 66 108 66 100.221452348 60.5092604809 c 0,24,25
 91 54 91 54 91 35.8630613146 c 0,26,27
 91 6 91 6 66.0586331764 -21.339575172 c 0,28,29
 39 -51 39 -51 7 -51 c 1,30,-1
 7 -27 l 1,0,1
EndSplineSet
Substitution2: "'dnom' Denominators lookup 0 subtable" braceright.denominator
Substitution2: "'numr' Numerators lookup 0 subtable" braceright.numerator
Substitution2: "'smcp' Lowercase to Small Capitals lookup 1 subtable" braceright.taboldstyle
Substitution2: "'rtla' Right to Left Alternates lookup 0 subtable" braceleft
EndChar

StartChar: asciitilde
Encoding: 126 126 99
GlifName: asciitilde
Width: 179
GlyphClass: 1
Flags: W
HStem: 84.3662 25.6338<108.642 135.399> 117 26.3737<46.9042 77.5043>
VStem: 13 27<85 109.967> 143 25<118.964 143>
LayerCount: 2
Fore
SplineSet
13 85 m 1,0,1
 13 85 13 85 13 86 c 0,2,3
 13 144 13 144 64.357863716 143.373684589 c 0,4,5
 95 143 95 143 103.485966718 122.997364164 c 0,6,7
 109 110 109 110 122.11011911 110 c 0,8,9
 143 110 143 110 143 143 c 1,10,-1
 168 143 l 1,11,12
 168 85 168 85 120.461838592 84.3661578479 c 0,13,14
 93 84 93 84 84.7050454139 102.248900089 c 0,15,16
 78 117 78 117 61 117 c 2,17,-1
 58 117 l 2,18,19
 40 117 40 117 40 85 c 1,20,-1
 13 85 l 1,0,1
EndSplineSet
Substitution2: "'dnom' Denominators lookup 0 subtable" asciitilde.denominator
Substitution2: "'numr' Numerators lookup 0 subtable" asciitilde.numerator
Substitution2: "sosis-'smcp' Lowercase to Small Capitals lookup 1 subtable" tildecomb.taboldstyle
EndChar

StartChar: uni008E
Encoding: 142 142 100
GlifName: uni008E_
Width: 183
GlyphClass: 1
Flags: W
HStem: 0 28<42 174> 185 28<10 139>
LayerCount: 2
Fore
SplineSet
10 0 m 1,0,-1
 10 28 l 1,1,-1
 139 186 l 1,2,-1
 10 185 l 1,3,-1
 10 213 l 1,4,-1
 174 213 l 1,5,-1
 174 186 l 1,6,-1
 42 28 l 1,7,-1
 174 28 l 1,8,-1
 174 1 l 1,9,-1
 10 0 l 1,0,-1
49 268 m 1,10,-1
 75 268 l 1,11,-1
 92 247 l 1,12,-1
 108 268 l 1,13,-1
 133 268 l 1,14,-1
 107 227 l 1,15,-1
 77 227 l 1,16,-1
 49 268 l 1,10,-1
EndSplineSet
Substitution2: "'dnom' Denominators lookup 0 subtable" uni008E.denominator
Substitution2: "'numr' Numerators lookup 0 subtable" uni008E.numerator
Substitution2: "'smcp' Lowercase to Small Capitals lookup 1 subtable" uni008E.taboldstyle
EndChar

StartChar: uni009E
Encoding: 158 158 101
GlifName: uni009E_
Width: 141
GlyphClass: 1
Flags: W
HStem: 0 28<46 129> 119 27<13 95>
LayerCount: 2
Fore
SplineSet
13 0 m 1,0,-1
 13 28 l 1,1,-1
 95 119 l 1,2,-1
 13 119 l 1,3,-1
 13 146 l 1,4,-1
 129 146 l 1,5,-1
 129 119 l 1,6,-1
 46 28 l 1,7,-1
 129 28 l 1,8,-1
 129 1 l 1,9,-1
 13 0 l 1,0,-1
30 200 m 1,10,-1
 53 200 l 1,11,-1
 71 179 l 1,12,-1
 87 200 l 1,13,-1
 113 200 l 1,14,-1
 86 159 l 1,15,-1
 55 159 l 1,16,-1
 30 200 l 1,10,-1
EndSplineSet
Substitution2: "'dnom' Denominators lookup 0 subtable" uni009E.denominator
Substitution2: "'numr' Numerators lookup 0 subtable" uni009E.numerator
Substitution2: "'smcp' Lowercase to Small Capitals lookup 1 subtable" uni009E.taboldstyle
EndChar

StartChar: exclamdown
Encoding: 161 161 103
GlifName: exclamdown
Width: 65
GlyphClass: 1
Flags: W
HStem: 119 26<18 46>
VStem: 18 28<-68 94 119 145>
LayerCount: 2
Fore
SplineSet
18 119 m 1,0,-1
 18 145 l 1,1,-1
 46 145 l 1,2,-1
 46 119 l 1,3,-1
 18 119 l 1,0,-1
18 -68 m 1,4,-1
 18 94 l 1,5,-1
 46 94 l 1,6,-1
 46 -68 l 1,7,-1
 18 -68 l 1,4,-1
EndSplineSet
Substitution2: "'dnom' Denominators lookup 0 subtable" exclamdown.denominator
Substitution2: "'numr' Numerators lookup 0 subtable" exclamdown.numerator
Substitution2: "'smcp' Lowercase to Small Capitals lookup 1 subtable" exclamdown.taboldstyle
EndChar

StartChar: cent
Encoding: 162 162 104
GlifName: cent
Width: 164
GlyphClass: 1
Flags: W
HStem: 30 28<57.4062 71 98 116.457> 147 26<55.8345 71>
VStem: 13 26<77.3538 128.909> 71 27<6 30.5522 58 147 174 198> 127 28<66.855 78>
LayerCount: 2
Fore
SplineSet
13 103 m 128,-1,1
 13 168 13 168 71 173 c 1,2,-1
 71 198 l 1,3,-1
 98 198 l 1,4,-1
 98 174 l 1,5,-1
 155 127 l 1,6,-1
 127 127 l 1,7,8
 124 145 124 145 98 148 c 1,9,-1
 98 58 l 1,10,11
 125 61 125 61 127 78 c 1,12,-1
 155 78 l 1,13,14
 152 35 152 35 98 30 c 1,15,-1
 98 6 l 1,16,-1
 71 6 l 1,17,-1
 71 30 l 1,18,0
 13 38 13 38 13 103 c 128,-1,1
39 103.5 m 128,-1,20
 39 65 39 65 71 58 c 1,21,-1
 71 147 l 1,22,19
 39 142 39 142 39 103.5 c 128,-1,20
EndSplineSet
Substitution2: "'dnom' Denominators lookup 0 subtable" cent.denominator
Substitution2: "'numr' Numerators lookup 0 subtable" cent.numerator
Substitution2: "'smcp' Lowercase to Small Capitals lookup 1 subtable" cent.taboldstyle
EndChar

StartChar: sterling
Encoding: 163 163 105
GlifName: sterling
Width: 192
GlyphClass: 1
Flags: W
HStem: 0 28<12 33.9385 60 182> 93 28<13 53 82 123> 185 28<104.434 147.712>
VStem: 53 29<52.5966 93 121 157.868>
LayerCount: 2
Fore
SplineSet
13 93 m 1,0,-1
 13 121 l 1,1,-1
 53 121 l 1,2,3
 53 121 53 121 53 123 c 0,4,5
 53 167 53 167 72.1794797556 190.217264967 c 0,6,7
 91 213 91 213 125.387074556 213 c 0,8,9
 147 213 147 213 160.624200649 203.34952454 c 0,10,11
 171 196 171 196 184 178 c 1,12,-1
 163 163 l 1,13,14
 152 178 152 178 143.16472859 182.123126658 c 0,15,16
 137 185 137 185 127.25224406 185 c 0,17,18
 82 185 82 185 82 122 c 2,19,20
 82 122 82 122 82 121 c 1,21,-1
 123 121 l 1,22,-1
 123 93 l 1,23,-1
 81 93 l 1,24,25
 80 66 80 66 77.02295875 54.0918349998 c 0,26,27
 73 38 73 38 60 28 c 1,28,-1
 182 28 l 1,29,-1
 182 0 l 1,30,-1
 12 0 l 1,31,-1
 12 1 l 1,32,-1
 12 28 l 1,33,34
 35 28 35 28 44.0715238213 44.5421904977 c 0,35,36
 52 59 52 59 53 93 c 1,37,-1
 13 93 l 1,0,-1
EndSplineSet
Substitution2: "'dnom' Denominators lookup 0 subtable" sterling.denominator
Substitution2: "'numr' Numerators lookup 0 subtable" sterling.numerator
Substitution2: "'smcp' Lowercase to Small Capitals lookup 1 subtable" sterling.taboldstyle
EndChar

StartChar: currency
Encoding: 164 164 106
GlifName: currency
Width: 172
GlyphClass: 1
Flags: W
HStem: 48 29<69.1196 102.941> 121 29<71.2583 104.437>
VStem: 35 29.4777<81.3157 114.127> 109.488 27.5125<83.5859 115.881>
LayerCount: 2
Fore
SplineSet
86 48 m 1,0,-1
 84 48 l 1,1,2
 63 49 63 49 52 58 c 1,3,-1
 14 39 l 1,4,-1
 14 66 l 1,5,-1
 38 78 l 1,6,7
 35 85 35 85 35 97 c 0,8,9
 35 115 35 115 40 127 c 1,10,-1
 14 139 l 1,11,-1
 14 167 l 1,12,-1
 58 145 l 1,13,14
 66 150 66 150 82 150 c 2,15,-1
 88 150 l 2,16,17
 107 150 107 150 116 145 c 1,18,-1
 158 167 l 1,19,-1
 158 139 l 1,20,-1
 132 127 l 1,21,22
 137 117 137 117 137 100 c 0,23,24
 137 86 137 86 135 78 c 1,25,-1
 158 66 l 1,26,-1
 158 39 l 1,27,-1
 123 58 l 1,28,29
 112 50 112 50 88 48 c 1,30,-1
 86 48 l 1,0,-1
88 77 m 1,31,32
 110 79 110 79 109.487521234 100.524108155 c 0,33,34
 109 121 109 121 89 121 c 0,35,36
 65 121 65 121 64.4777111042 98.0192885847 c 0,37,38
 64 77 64 77 84 77 c 2,39,-1
 88 77 l 1,31,32
EndSplineSet
Substitution2: "'dnom' Denominators lookup 0 subtable" currency.denominator
Substitution2: "'numr' Numerators lookup 0 subtable" currency.numerator
Substitution2: "'smcp' Lowercase to Small Capitals lookup 1 subtable" currency.taboldstyle
EndChar

StartChar: yen
Encoding: 165 165 107
GlifName: yen
Width: 177
GlyphClass: 1
Flags: W
HStem: 0 21G<75 103> 29 29<36 75 103 137> 66 27<36 69 109 137> 193 20G<5 43.0901 136.55 173>
VStem: 75 28<0 29 58 66>
LayerCount: 2
Fore
SplineSet
5 213 m 1,0,-1
 33 213 l 1,1,-1
 89 102 l 1,2,-1
 147 213 l 1,3,-1
 173 213 l 1,4,-1
 109 93 l 1,5,-1
 137 93 l 1,6,-1
 137 66 l 1,7,-1
 103 66 l 1,8,-1
 103 58 l 1,9,-1
 137 58 l 1,10,-1
 137 29 l 1,11,-1
 103 29 l 1,12,-1
 103 0 l 1,13,-1
 75 0 l 1,14,-1
 75 29 l 1,15,-1
 36 29 l 1,16,-1
 36 58 l 1,17,-1
 75 58 l 1,18,-1
 75 66 l 1,19,-1
 36 66 l 1,20,-1
 36 93 l 1,21,-1
 69 93 l 1,22,-1
 5 213 l 1,0,-1
EndSplineSet
Substitution2: "'dnom' Denominators lookup 0 subtable" yen.denominator
Substitution2: "'numr' Numerators lookup 0 subtable" yen.numerator
Substitution2: "'smcp' Lowercase to Small Capitals lookup 1 subtable" yen.taboldstyle
EndChar

StartChar: brokenbar
Encoding: 166 166 108
GlifName: brokenbar
Width: 64
GlyphClass: 1
Flags: W
VStem: 18 27<-27 94 115 240>
LayerCount: 2
Fore
SplineSet
18 115 m 1,0,-1
 18 240 l 1,1,-1
 45 240 l 1,2,-1
 45 115 l 1,3,-1
 18 115 l 1,0,-1
18 -27 m 1,4,-1
 18 94 l 1,5,-1
 45 94 l 1,6,-1
 45 -27 l 1,7,-1
 18 -27 l 1,4,-1
EndSplineSet
Substitution2: "'dnom' Denominators lookup 0 subtable" brokenbar.denominator
Substitution2: "'numr' Numerators lookup 0 subtable" brokenbar.numerator
Substitution2: "'smcp' Lowercase to Small Capitals lookup 1 subtable" brokenbar.taboldstyle
EndChar

StartChar: section
Encoding: 167 167 109
GlifName: section
Width: 158
GlyphClass: 1
Flags: W
HStem: -18 27<52.531 110.701> 40.5257 28.4743<47.5838 108.755> 101 28<50.6809 109.512> 161 27<52.5031 107.451>
VStem: 15 27<74.5044 93.402 135.45 152.486> 116 28<14.7617 33.8774 75.2776 94.3782 142 152.781>
LayerCount: 2
Fore
SplineSet
79 101 m 1,0,1
 42 99 42 99 42 83.8972554537 c 0,2,3
 42 69 42 69 78.3395117234 69 c 0,4,5
 116 69 116 69 116 85.070773842 c 128,-1,6
 116 101 116 101 79 101 c 1,0,1
14 145.869050429 m 0,7,8
 14 188 14 188 77.0835049332 188 c 0,9,10
 143 188 143 188 143 142 c 1,11,-1
 115 142 l 1,12,13
 115 161 115 161 82 161 c 2,14,-1
 79 161 l 1,15,16
 43 159 43 159 43 144 c 128,-1,17
 43 129 43 129 80 129 c 2,18,-1
 81 129 l 2,19,20
 99 129 99 129 112.524409594 124.589866437 c 0,21,22
 145 114 145 114 144.431404503 81.0214611477 c 0,23,24
 144 56 144 56 125 55 c 1,25,26
 144 54 144 54 144 28.6060935227 c 0,27,28
 144 -18 144 -18 79.288926142 -18 c 0,29,30
 15 -18 15 -18 15 28 c 1,31,-1
 44 28 l 1,32,33
 44 9 44 9 82.1250257096 9 c 0,34,35
 116 9 116 9 116 24.1581200623 c 0,36,37
 116 40 116 40 78.1499388079 40.5256952943 c 0,38,39
 44 41 44 41 27.3434477459 55.3590967708 c 0,40,41
 15 66 15 66 15 83.1101702268 c 0,42,43
 15 94 15 94 19.7185804701 102.579237218 c 0,44,45
 25.7116417323 113.48774636 25.7116417323 113.48774636 36 114 c 1,46,47
 25 114 25 114 18.7823349383 125.304845567 c 0,48,49
 14 134 14 134 14 145.869050429 c 0,7,8
EndSplineSet
Substitution2: "'dnom' Denominators lookup 0 subtable" section.denominator
Substitution2: "'numr' Numerators lookup 0 subtable" section.numerator
Substitution2: "'smcp' Lowercase to Small Capitals lookup 1 subtable" section.taboldstyle
EndChar

StartChar: dieresis
Encoding: 168 168 110
GlifName: dieresis
Width: 103
GlyphClass: 1
Flags: W
HStem: 188 25<17 43 59 87>
VStem: 17 26<188 213> 59 28<188 213>
LayerCount: 2
Fore
SplineSet
59 188 m 1,0,-1
 59 213 l 1,1,-1
 87 213 l 1,2,-1
 87 188 l 1,3,-1
 59 188 l 1,0,-1
17 188 m 1,4,-1
 17 213 l 1,5,-1
 43 213 l 1,6,-1
 43 188 l 1,7,-1
 17 188 l 1,4,-1
EndSplineSet
Substitution2: "'dnom' Denominators lookup 0 subtable" dieresis.denominator
Substitution2: "'numr' Numerators lookup 0 subtable" dieresis.numerator
Substitution2: "'smcp' Lowercase to Small Capitals lookup 1 subtable" dieresis.taboldstyle
EndChar

StartChar: copyright
Encoding: 169 169 111
GlifName: copyright
Width: 212
GlyphClass: 1
Flags: W
HStem: 1 27<79.208 135.161> 35.4631 27.5369<85.3359 127.514> 153 26.3363<91.0834 126.405> 185 27.4986<76.9388 135.696>
VStem: 13 29<67.6448 144.776> 47 28<74.6296 135.034> 134 29<69.6821 94 124 144.475> 171 29<67.8834 144.671>
LayerCount: 2
Fore
SplineSet
47 103.978713764 m 0,0,1
 47 133 47 133 56.1407802765 150.900694708 c 0,2,3
 71 180 71 180 112.151302439 179.336269316 c 0,4,5
 133 179 133 179 144.017029065 170.839237729 c 0,6,7
 160 159 160 159 163 124 c 1,8,-1
 134 124 l 1,9,10
 131 145 131 145 124.306019951 149.868349127 c 0,11,12
 120 153 120 153 110.850682806 153 c 0,13,14
 85 153 85 153 77.715218761 127.503265664 c 0,15,16
 75 118 75 118 75 104.408450073 c 0,17,18
 75 64 75 64 99 63 c 0,19,20
 123 63 123 63 128.071574942 69.1985915959 c 0,21,22
 132 74 132 74 134 94 c 1,23,-1
 163 94 l 1,24,25
 160 61 160 61 145.225987816 47.2812744001 c 0,26,27
 132 35 132 35 107.919763039 35.46308148 c 0,28,29
 80 36 80 36 64.0144074062 51.9855925938 c 0,30,31
 53 63 53 63 49.2267398411 80.6085474083 c 0,32,33
 47 91 47 91 47 103.978713764 c 0,0,1
42 107 m 128,-1,35
 42 29 42 29 105.106819963 28.0139559381 c 0,36,37
 106 28 106 28 106.855274725 28 c 0,38,39
 171 28 171 28 171 106.240059836 c 0,40,41
 171 185 171 185 106.34365767 185 c 0,42,34
 42 185 42 185 42 107 c 128,-1,35
13 106.217912422 m 0,43,44
 13 212 13 212 106.23365733 212.498575708 c 0,45,46
 200 213 200 213 200 105.993665688 c 0,47,48
 200 0 200 0 108.922312565 0.989974863426 c 0,49,50
 108 1 108 1 106 1 c 0,51,52
 13 1 13 1 13 106.217912422 c 0,43,44
EndSplineSet
Substitution2: "'dnom' Denominators lookup 0 subtable" copyright.denominator
Substitution2: "'numr' Numerators lookup 0 subtable" copyright.numerator
Substitution2: "'smcp' Lowercase to Small Capitals lookup 1 subtable" copyright.taboldstyle
EndChar

StartChar: ordfeminine
Encoding: 170 170 112
GlifName: ordfeminine
Width: 105
GlyphClass: 1
Flags: W
HStem: 122 21<29.5583 67.5> 163 21<30.2688 77> 200 19.5231<32.2354 72.3862>
VStem: 6 22<145.399 160.106> 77 19<123 142 148.859 163 184 195.235>
LayerCount: 2
Fore
SplineSet
6 153.65704146 m 4,0,1
 6 184 6 184 51 184 c 6,2,-1
 77 184 l 5,3,4
 77 199 77 199 54.2 199.95 c 4,5,6
 53 200 53 200 51.6131414668 200 c 4,7,8
 32 200 32 200 29 190 c 5,9,-1
 8 190 l 5,10,11
 10 220 10 220 51.4911699975 219.52309 c 4,12,13
 97 219 97 219 96 183 c 5,14,-1
 96 150 l 5,15,-1
 96 123 l 5,16,-1
 77 123 l 5,17,-1
 76 142 l 5,18,19
 73 123 73 123 48 122 c 5,20,-1
 46 122 l 6,21,22
 27 122 27 122 16.3734574501 130.602439207 c 4,23,24
 6 139 6 139 6 153.65704146 c 4,0,1
28 152.772609758 m 4,25,26
 28 143 28 143 49 143 c 6,27,-1
 52 143 l 6,28,29
 73 143 73 143 77 158 c 5,30,-1
 77 163 l 5,31,-1
 53 163 l 5,32,33
 53 163 53 163 52 163 c 4,34,35
 28 163 28 163 28 152.772609758 c 4,25,26
EndSplineSet
Substitution2: "'dnom' Denominators lookup 0 subtable" ordfeminine.denominator
Substitution2: "'numr' Numerators lookup 0 subtable" ordfeminine.numerator
Substitution2: "'smcp' Lowercase to Small Capitals lookup 1 subtable" ordfeminine.sc
EndChar

StartChar: guillemotleft
Encoding: 171 171 113
GlifName: guillemotleft
Width: 151
GlyphClass: 1
Flags: W
LayerCount: 2
Fore
SplineSet
13 98 m 1,0,-1
 13 126 l 1,1,-1
 80 161 l 1,2,-1
 80 133 l 1,3,-1
 34 112 l 1,4,-1
 80 87 l 1,5,-1
 80 60 l 1,6,-1
 13 98 l 1,0,-1
68 97 m 1,7,-1
 68 125 l 1,8,-1
 136 160 l 1,9,-1
 136 132 l 1,10,-1
 90 111 l 1,11,-1
 136 86 l 1,12,-1
 136 59 l 1,13,-1
 68 97 l 1,7,-1
EndSplineSet
Substitution2: "'dnom' Denominators lookup 0 subtable" guillemotleft.denominator
Substitution2: "'numr' Numerators lookup 0 subtable" guillemotleft.numerator
Substitution2: "'smcp' Lowercase to Small Capitals lookup 1 subtable" guillemotleft.taboldstyle
EndChar

StartChar: logicalnot
Encoding: 172 172 114
GlifName: logicalnot
Width: 151
GlyphClass: 1
Flags: W
HStem: 105 27<15 108>
VStem: 108 26<58 105>
LayerCount: 2
Fore
SplineSet
15 105 m 1,0,-1
 15 132 l 1,1,-1
 134 132 l 1,2,-1
 134 58 l 1,3,-1
 108 58 l 1,4,-1
 108 105 l 1,5,-1
 15 105 l 1,0,-1
EndSplineSet
Substitution2: "'dnom' Denominators lookup 0 subtable" logicalnot.denominator
Substitution2: "'numr' Numerators lookup 0 subtable" logicalnot.numerator
Substitution2: "'smcp' Lowercase to Small Capitals lookup 1 subtable" logicalnot.taboldstyle
EndChar

StartChar: registered
Encoding: 174 174 116
GlifName: registered
Width: 212
GlyphClass: 1
Flags: W
HStem: 1 27<79.208 135.161> 132 28<98 120.508> 185 27.4986<76.9388 135.696>
VStem: 13 29<67.6448 144.776> 70 28<53 71 98 132> 124 31<101.431 129.042> 171 29<67.8834 144.671>
LayerCount: 2
Fore
SplineSet
98 98 m 1,0,-1
 108 98 l 2,1,2
 124 98 124 98 124 115 c 128,-1,3
 124 132 124 132 108 132 c 2,4,-1
 98 132 l 1,5,-1
 98 98 l 1,0,-1
69 160 m 1,6,-1
 70 160 l 1,7,-1
 98 160 l 1,8,-1
 108 160 l 2,9,10
 137 160 137 160 146.237006351 150.762993649 c 0,11,12
 155 142 155 142 155 115.705324251 c 0,13,14
 155 75 155 75 134 74 c 1,15,-1
 133 74 l 1,16,-1
 153 53 l 1,17,-1
 122 53 l 1,18,-1
 103 71 l 1,19,-1
 98 71 l 1,20,-1
 98 53 l 1,21,-1
 70 53 l 1,22,-1
 69 160 l 1,6,-1
42 107 m 128,-1,24
 42 29 42 29 105.106819963 28.0139559381 c 0,25,26
 106 28 106 28 106.855274725 28 c 0,27,28
 171 28 171 28 171 106.240059836 c 0,29,30
 171 185 171 185 106.34365767 185 c 0,31,23
 42 185 42 185 42 107 c 128,-1,24
13 106.217912422 m 0,32,33
 13 212 13 212 106.23365733 212.498575708 c 0,34,35
 200 213 200 213 200 105.993665688 c 0,36,37
 200 0 200 0 108.922312565 0.989974863426 c 0,38,39
 108 1 108 1 106 1 c 0,40,41
 13 1 13 1 13 106.217912422 c 0,32,33
EndSplineSet
Substitution2: "'dnom' Denominators lookup 0 subtable" registered.denominator
Substitution2: "'numr' Numerators lookup 0 subtable" registered.numerator
Substitution2: "'smcp' Lowercase to Small Capitals lookup 1 subtable" registered.taboldstyle
EndChar

StartChar: macron
Encoding: 175 175 117
GlifName: macron
Width: 120
GlyphClass: 1
Flags: W
HStem: 187 26<17 104>
LayerCount: 2
Fore
SplineSet
17 187 m 1,0,-1
 17 213 l 1,1,-1
 104 213 l 1,2,-1
 104 187 l 1,3,-1
 17 187 l 1,0,-1
EndSplineSet
Substitution2: "'dnom' Denominators lookup 0 subtable" macron.denominator
Substitution2: "'numr' Numerators lookup 0 subtable" macron.numerator
Substitution2: "'smcp' Lowercase to Small Capitals lookup 1 subtable" macron.taboldstyle
EndChar

StartChar: degree
Encoding: 176 176 118
GlifName: degree
Width: 93
GlyphClass: 1
Flags: W
HStem: 155 9<34.8102 60.6815> 203 10<33.6789 60.2862>
VStem: 17 11<169.657 197.448>
LayerCount: 2
Fore
SplineSet
17 183.5 m 128,-1,1
 17 196 17 196 24.7249371424 204.207745714 c 0,2,3
 33 213 33 213 46.8186406998 213 c 0,4,5
 60 213 60 213 68.4041686644 205.090194198 c 128,-1,6
 77 197 77 197 77 183.766558695 c 0,7,8
 77 171 77 171 69.1844236784 163.184423678 c 0,9,10
 61 155 61 155 47.4230803476 155 c 128,-1,11
 34 155 34 155 25.4782422849 163.02047785 c 128,-1,0
 17 171 17 171 17 183.5 c 128,-1,1
28 183.5 m 128,-1,13
 28 175 28 175 33.5 169.5 c 128,-1,14
 39 164 39 164 47.3151299823 164 c 0,15,16
 56 164 56 164 61.8192943535 169.334353157 c 0,17,18
 68 175 68 175 67.4525831543 183.758669531 c 0,19,20
 67 191 67 191 61.9819088866 196.474281215 c 0,21,22
 56 203 56 203 46.8110465875 203 c 0,23,24
 38 203 38 203 32.8264342002 197.30907762 c 0,25,12
 28 192 28 192 28 183.5 c 128,-1,13
EndSplineSet
Substitution2: "'dnom' Denominators lookup 0 subtable" degree.denominator
Substitution2: "'numr' Numerators lookup 0 subtable" degree.numerator
Substitution2: "sosis-'smcp' Lowercase to Small Capitals lookup 1 subtable" uni030A.taboldstyle
EndChar

StartChar: plusminus
Encoding: 177 177 119
GlifName: plusminus
Width: 132
GlyphClass: 1
Flags: W
HStem: 27 26<15 119> 109 28<14 53 80 117>
VStem: 53 27<70 109 137 173>
LayerCount: 2
Fore
SplineSet
14 109 m 1,0,-1
 14 137 l 1,1,-1
 53 137 l 1,2,-1
 53 173 l 1,3,-1
 80 173 l 1,4,-1
 80 137 l 1,5,-1
 117 137 l 1,6,-1
 117 109 l 1,7,-1
 80 109 l 1,8,-1
 80 70 l 1,9,-1
 53 70 l 1,10,-1
 53 109 l 1,11,-1
 14 109 l 1,0,-1
15 27 m 1,12,-1
 15 53 l 1,13,-1
 119 53 l 1,14,-1
 119 27 l 1,15,-1
 15 27 l 1,12,-1
EndSplineSet
Substitution2: "'dnom' Denominators lookup 0 subtable" plusminus.denominator
Substitution2: "'numr' Numerators lookup 0 subtable" plusminus.numerator
Substitution2: "'smcp' Lowercase to Small Capitals lookup 1 subtable" plusminus.taboldstyle
EndChar

StartChar: uni00B2
Encoding: 178 178 120
GlifName: uni00B_2
Width: 115
GlyphClass: 1
Flags: W
HStem: 73 20<32 106> 194 21<32.0098 80.6865>
VStem: 6 20<180 187.984> 88 18<157.601 187.124>
LayerCount: 2
Fore
SplineSet
106 180.074143164 m 0,0,1
 106 141 106 141 41 99 c 1,2,-1
 32 93 l 1,3,-1
 106 94 l 1,4,-1
 106 73 l 1,5,-1
 8 73 l 1,6,-1
 8 93 l 1,7,8
 17 98 17 98 26 104 c 0,9,10
 44 116 44 116 57.9306953096 128.664268463 c 0,11,12
 88 156 88 156 88 174.558316821 c 0,13,14
 88 194 88 194 55 194 c 2,15,-1
 54 194 l 2,16,17
 30 194 30 194 26 180 c 1,18,-1
 6 180 l 1,19,20
 9 214 9 214 54 215 c 1,21,-1
 57 215 l 1,22,23
 106 214 106 214 106 180.074143164 c 0,0,1
EndSplineSet
Substitution2: "'dnom' Denominators lookup 0 subtable" uni00B2.denominator
Substitution2: "'numr' Numerators lookup 0 subtable" uni00B2.numerator
Substitution2: "'smcp' Lowercase to Small Capitals lookup 1 subtable" uni00B2.taboldstyle
EndChar

StartChar: uni00B3
Encoding: 179 179 121
GlifName: uni00B_3
Width: 118
GlyphClass: 1
Flags: W
HStem: 72.4856 21.5144<31.9818 82.7268> 134 19<45 69.6863> 194 21<33.5596 82.6865>
VStem: 6 22<98.975 106 181 188.031> 90 20<100.869 124.183> 90 18<162.537 187.354>
LayerCount: 2
Fore
SplineSet
6 106 m 1,0,-1
 28 106 l 1,1,2
 32 93 32 93 54.2313673748 93.9263069739 c 0,3,4
 56 94 56 94 58 94 c 2,5,-1
 59 94 l 1,6,7
 90 95 90 95 90 112.234896726 c 0,8,9
 90 133 90 133 45 134 c 1,10,-1
 45 153 l 1,11,12
 90 153 90 153 90 175.404453532 c 0,13,14
 90 194 90 194 59 194 c 2,15,-1
 58 194 l 2,16,17
 32 194 32 194 28 181 c 1,18,-1
 6 181 l 1,19,20
 9 215 9 215 57 215 c 2,21,-1
 59 215 l 1,22,23
 108 214 108 214 108 177.310178494 c 0,24,25
 108 145 108 145 70 145 c 1,26,27
 110 144.587030867 110 144.587030867 110 111.136531126 c 0,28,29
 110 73 110 73 58.0410595945 72.4855550455 c 0,30,31
 9 72 9 72 6 106 c 1,0,-1
EndSplineSet
Substitution2: "'dnom' Denominators lookup 0 subtable" uni00B3.denominator
Substitution2: "'numr' Numerators lookup 0 subtable" uni00B3.numerator
Substitution2: "'smcp' Lowercase to Small Capitals lookup 1 subtable" uni00B3.taboldstyle
EndChar

StartChar: acute
Encoding: 180 180 122
GlifName: acute
Width: 78
GlyphClass: 1
Flags: W
HStem: 172 41
VStem: 15 50
LayerCount: 2
Fore
SplineSet
15 172 m 1,0,-1
 38 213 l 1,1,-1
 65 213 l 1,2,-1
 37 172 l 1,3,-1
 15 172 l 1,0,-1
EndSplineSet
Substitution2: "'dnom' Denominators lookup 0 subtable" acute.denominator
Substitution2: "'numr' Numerators lookup 0 subtable" acute.numerator
Substitution2: "'smcp' Lowercase to Small Capitals lookup 1 subtable" acute.taboldstyle
EndChar

StartChar: mu
Encoding: 181 181 123
GlifName: mu
Width: 160
GlyphClass: 1
Flags: W
HStem: -61 21G<19 46> 1 27<61.2952 101.112> 126 20G<17 46 117 145>
VStem: 17 29<82.384 146> 19 27<-61 29 45.4529 138.616> 117 28<82.384 146> 117 26<1 29 45.4529 138.616>
LayerCount: 2
Fore
SplineSet
79.6666666667 1 m 0,0,1
 65 1 65 1 57.3167108737 7.65885057609 c 0,2,3
 50 14 50 14 46 29 c 1,4,-1
 46 -61 l 1,5,-1
 19 -61 l 1,6,-1
 19 75 l 1,7,-1
 17 146 l 1,8,-1
 46 146 l 1,9,-1
 46 75 l 2,10,11
 46 28 46 28 81.5 28 c 128,-1,12
 117 28 117 28 117 75 c 2,13,-1
 117 146 l 1,14,-1
 145 146 l 1,15,-1
 143 75 l 1,16,-1
 143 1 l 1,17,-1
 117 1 l 1,18,-1
 117 29 l 1,19,20
 109 1 109 1 79.6666666667 1 c 0,0,1
EndSplineSet
Substitution2: "'dnom' Denominators lookup 0 subtable" mu.denominator
Substitution2: "'numr' Numerators lookup 0 subtable" mu.numerator
EndChar

StartChar: paragraph
Encoding: 182 182 124
GlifName: paragraph
Width: 139
GlyphClass: 1
Flags: W
HStem: 193 20G<65 121>
VStem: 11 109<103.06 170.1> 93 27<-58 54>
LayerCount: 2
Fore
SplineSet
121 213 m 1,0,-1
 120 54 l 1,1,-1
 120 -58 l 1,2,-1
 93 -58 l 1,3,-1
 93 54 l 1,4,-1
 82 54 l 2,5,6
 48 54 48 54 27.9738616558 81.0623491137 c 0,7,8
 11 104 11 104 11 137.008446678 c 0,9,10
 11 171 11 171 28.9057263686 191.325419121 c 0,11,12
 48 213 48 213 82 213 c 2,13,-1
 93 213 l 1,14,-1
 120 213 l 1,15,-1
 121 213 l 1,0,-1
EndSplineSet
Substitution2: "'dnom' Denominators lookup 0 subtable" paragraph.denominator
Substitution2: "'numr' Numerators lookup 0 subtable" paragraph.numerator
Substitution2: "'smcp' Lowercase to Small Capitals lookup 1 subtable" paragraph.taboldstyle
EndChar

StartChar: periodcentered
Encoding: 183 183 125
GlifName: periodcentered
Width: 58
GlyphClass: 1
Flags: W
HStem: 111 26<16 42>
VStem: 16 26<111 137>
LayerCount: 2
Fore
SplineSet
16 111 m 1,0,-1
 16 137 l 1,1,-1
 42 137 l 1,2,-1
 42 111 l 1,3,-1
 16 111 l 1,0,-1
EndSplineSet
Substitution2: "'dnom' Denominators lookup 0 subtable" periodcentered.denominator
Substitution2: "'numr' Numerators lookup 0 subtable" periodcentered.numerator
Substitution2: "'smcp' Lowercase to Small Capitals lookup 1 subtable" periodcentered.taboldstyle
EndChar

StartChar: cedilla
Encoding: 184 184 126
GlifName: cedilla
Width: 70
GlyphClass: 1
Flags: W
HStem: -33 33<27 39>
VStem: 18 34
LayerCount: 2
Fore
SplineSet
18 -33 m 1,0,-1
 27 0 l 1,1,-1
 52 0 l 1,2,-1
 39 -33 l 1,3,-1
 18 -33 l 1,0,-1
EndSplineSet
Substitution2: "'dnom' Denominators lookup 0 subtable" cedilla.denominator
Substitution2: "'numr' Numerators lookup 0 subtable" cedilla.numerator
Substitution2: "'smcp' Lowercase to Small Capitals lookup 1 subtable" cedilla.taboldstyle
EndChar

StartChar: uni00B9
Encoding: 185 185 127
GlifName: uni00B_9
Width: 111
GlyphClass: 1
Flags: W
HStem: 73 21<8 51 71 106> 195 20G<29.3684 71>
VStem: 51 20<94 192>
LayerCount: 2
Fore
SplineSet
9 157 m 1,0,-1
 9 177 l 1,1,-1
 52 215 l 1,2,-1
 71 215 l 1,3,-1
 71 94 l 1,4,-1
 106 94 l 1,5,-1
 106 73 l 1,6,-1
 70 73 l 1,7,-1
 51 73 l 1,8,-1
 8 73 l 1,9,-1
 8 94 l 1,10,-1
 51 94 l 1,11,-1
 51 192 l 1,12,-1
 9 157 l 1,0,-1
EndSplineSet
Substitution2: "'dnom' Denominators lookup 0 subtable" uni00B9.denominator
Substitution2: "'numr' Numerators lookup 0 subtable" uni00B9.numerator
Substitution2: "'smcp' Lowercase to Small Capitals lookup 1 subtable" uni00B9.taboldstyle
EndChar

StartChar: ordmasculine
Encoding: 186 186 128
GlifName: ordmasculine
Width: 115
GlyphClass: 1
Flags: W
HStem: 123 21<35.5183 78.5829> 200 20<36.1279 78.2378>
VStem: 5 21<153.577 190.516> 88.4958 21.0042<153.798 190.211>
LayerCount: 2
Fore
SplineSet
5 171.735442442 m 4,0,1
 5 220 5 220 56 220 c 6,2,-1
 58 220 l 6,3,4
 110 220 110 220 109.5 171.5 c 132,-1,5
 109 123 109 123 57.0629555674 123 c 132,-1,6
 5 123 5 123 5 171.735442442 c 4,0,1
26 171.54826955 m 4,7,8
 26 144 26 144 56 144 c 6,9,-1
 58 144 l 6,10,11
 89 144 89 144 88.4958330439 172.233349539 c 4,12,13
 88 200 88 200 57.1888907846 200 c 4,14,15
 26 200 26 200 26 171.54826955 c 4,7,8
EndSplineSet
Substitution2: "'dnom' Denominators lookup 0 subtable" ordmasculine.denominator
Substitution2: "'numr' Numerators lookup 0 subtable" ordmasculine.numerator
Substitution2: "'smcp' Lowercase to Small Capitals lookup 1 subtable" ordmasculine.sc
EndChar

StartChar: guillemotright
Encoding: 187 187 129
GlifName: guillemotright
Width: 151
GlyphClass: 1
Flags: W
LayerCount: 2
Fore
SplineSet
72 60 m 1,0,-1
 72 87 l 1,1,-1
 119 112 l 1,2,-1
 72 133 l 1,3,-1
 72 161 l 1,4,-1
 138 126 l 1,5,-1
 138 98 l 1,6,-1
 72 60 l 1,0,-1
16 59 m 1,7,-1
 16 86 l 1,8,-1
 62 111 l 1,9,-1
 16 132 l 1,10,-1
 16 160 l 1,11,-1
 84 125 l 1,12,-1
 84 97 l 1,13,-1
 16 59 l 1,7,-1
EndSplineSet
Substitution2: "'dnom' Denominators lookup 0 subtable" guillemotright.denominator
Substitution2: "'numr' Numerators lookup 0 subtable" guillemotright.numerator
Substitution2: "'smcp' Lowercase to Small Capitals lookup 1 subtable" guillemotright.taboldstyle
EndChar

StartChar: onequarter
Encoding: 188 188 130
GlifName: onequarter
Width: 220
GlyphClass: 1
Flags: W
HStem: 0 21G<5 50.1028 183 197> 38 12<155 183 197 211> 194 20G<26.8276 56 170.897 216>
VStem: 42 14<108 198> 183 14<1 38 50 88>
LayerCount: 2
Fore
SplineSet
5 0 m 1,0,-1
 188 214 l 1,1,-1
 216 214 l 1,2,-1
 33 0 l 1,3,-1
 5 0 l 1,0,-1
20 170 m 1,4,-1
 20 185 l 1,5,-1
 42 214 l 1,6,-1
 56 214 l 1,7,-1
 56 108 l 1,8,-1
 42 108 l 1,9,-1
 42 198 l 1,10,-1
 20 170 l 1,4,-1
155 50 m 1,11,-1
 183 50 l 1,12,-1
 183 88 l 1,13,-1
 155 50 l 1,11,-1
141 38 m 1,14,-1
 141 50 l 1,15,-1
 183 108 l 1,16,-1
 197 108 l 1,17,-1
 197 50 l 1,18,-1
 211 50 l 1,19,-1
 211 38 l 1,20,-1
 197 38 l 1,21,-1
 197 1 l 1,22,-1
 183 1 l 1,23,-1
 183 38 l 1,24,-1
 141 38 l 1,14,-1
EndSplineSet
Substitution2: "'dnom' Denominators lookup 0 subtable" onequarter.denominator
Substitution2: "'numr' Numerators lookup 0 subtable" onequarter.numerator
Substitution2: "'smcp' Lowercase to Small Capitals lookup 1 subtable" onequarter.taboldstyle
EndChar

StartChar: onehalf
Encoding: 189 189 131
GlifName: onehalf
Width: 228
GlyphClass: 1
Flags: W
HStem: 1 12<160 216> 43 13<170.003 198.899> 93 14<162.507 198.919> 194 20G<26.8276 56 170.897 216>
VStem: 42 14<108 198> 146 14<13 33.3818 83 90.1777> 204 13<61.1207 87.7964>
LayerCount: 2
Fore
SplineSet
5 0 m 1,0,-1
 188 214 l 1,1,-1
 216 214 l 1,2,-1
 33 0 l 1,3,-1
 5 0 l 1,0,-1
20 170 m 1,4,-1
 20 185 l 1,5,-1
 42 214 l 1,6,-1
 56 214 l 1,7,-1
 56 108 l 1,8,-1
 42 108 l 1,9,-1
 42 198 l 1,10,-1
 20 170 l 1,4,-1
145 83 m 5,11,12
 148 106 148 106 177.87867337 106.963828173 c 4,13,14
 179 107 179 107 180 107 c 6,15,-1
 182 107 l 5,16,17
 217 106 217 106 217 73.0201787636 c 4,18,19
 217 43 217 43 188.495209155 43 c 132,-1,20
 160 43 160 43 160 13 c 5,21,-1
 216 13 l 5,22,-1
 216 1 l 5,23,-1
 146 1 l 5,24,-1
 146 13 l 6,25,26
 146 55 146 55 181 56 c 4,27,28
 204 56 204 56 204 74.5 c 132,-1,29
 204 93 204 93 181 93 c 6,30,-1
 180 93 l 6,31,32
 162 93 162 93 160 83 c 5,33,-1
 145 83 l 5,11,12
EndSplineSet
Substitution2: "'dnom' Denominators lookup 0 subtable" onehalf.denominator
Substitution2: "'numr' Numerators lookup 0 subtable" onehalf.numerator
Substitution2: "'smcp' Lowercase to Small Capitals lookup 1 subtable" onehalf.taboldstyle
EndChar

StartChar: threequarters
Encoding: 190 190 132
GlifName: threequarters
Width: 221
GlyphClass: 1
Flags: W
HStem: 0 21G<6 50.1963 184 198> 38 12<156 184 198 212> 108 13<31.4781 68.13> 153 14<40 56.875> 200 14<31.3684 68.4318>
VStem: 13 15<124.745 132 189 196.202> 72 14<124.712 146.897 173.344 196.219> 184 14<1 38 50 88>
LayerCount: 2
Fore
SplineSet
6 0 m 1,0,-1
 189 214 l 1,1,-1
 217 214 l 1,2,-1
 33 0 l 1,3,-1
 6 0 l 1,0,-1
13 132 m 1,4,-1
 28 132 l 1,5,6
 31 121 31 121 49.9136339313 121 c 0,7,8
 72 121 72 121 72 135.521131511 c 0,9,10
 72 153 72 153 40 153 c 1,11,-1
 40 167 l 1,12,13
 72 167 72 167 72 185.041105535 c 0,14,15
 72 200 72 200 49.9276141243 200 c 0,16,17
 31 200 31 200 28 189 c 1,18,-1
 13 189 l 1,19,20
 16 214 16 214 49.5228015449 214 c 0,21,22
 85 214 85 214 85 185.933784832 c 0,23,24
 85 161 85 161 57 161 c 1,25,26
 86 161 86 161 86 136.033375863 c 0,27,28
 86 109 86 109 52.8648179638 108.053280513 c 0,29,30
 51 108 51 108 49 108 c 2,31,32
 49 108 49 108 47.8426588777 108.035070943 c 0,33,34
 16 109 16 109 13 132 c 1,4,-1
156 50 m 1,35,-1
 184 50 l 1,36,-1
 184 88 l 1,37,-1
 156 50 l 1,35,-1
142 38 m 1,38,-1
 142 50 l 1,39,-1
 184 108 l 1,40,-1
 198 108 l 1,41,-1
 198 50 l 1,42,-1
 212 50 l 1,43,-1
 212 38 l 1,44,-1
 198 38 l 1,45,-1
 198 1 l 1,46,-1
 184 1 l 1,47,-1
 184 38 l 1,48,-1
 142 38 l 1,38,-1
EndSplineSet
Substitution2: "'dnom' Denominators lookup 0 subtable" threequarters.denominator
Substitution2: "'numr' Numerators lookup 0 subtable" threequarters.numerator
Substitution2: "'smcp' Lowercase to Small Capitals lookup 1 subtable" threequarters.taboldstyle
EndChar

StartChar: questiondown
Encoding: 191 191 133
GlifName: questiondown
Width: 168
GlyphClass: 1
Flags: W
HStem: -68 28<58.1666 117.611> 35 27<51.25 73> 119 26<73 101>
VStem: 9 28.4585<-20.3326 21.3194> 73 28<62 105 119 145> 134 28<-25.3574 -6>
LayerCount: 2
Fore
SplineSet
73 119 m 1,0,-1
 73 145 l 1,1,-1
 101 145 l 1,2,-1
 101 119 l 1,3,-1
 73 119 l 1,0,-1
9 -1.04334866843 m 0,4,5
 9 60 9 60 73 62 c 1,6,-1
 73 105 l 1,7,-1
 101 105 l 1,8,-1
 101 35 l 1,9,-1
 73 35 l 1,10,11
 37 34 37 34 37.4585475826 0.0674788894036 c 0,12,13
 38 -40 38 -40 87.9693476444 -40 c 0,14,15
 134 -40 134 -40 134 -6 c 1,16,-1
 162 -6 l 1,17,18
 162 -68 162 -68 86 -68 c 0,19,20
 9 -68 9 -68 9 -1.04334866843 c 0,4,5
EndSplineSet
Substitution2: "'dnom' Denominators lookup 0 subtable" questiondown.denominator
Substitution2: "'numr' Numerators lookup 0 subtable" questiondown.numerator
Substitution2: "'smcp' Lowercase to Small Capitals lookup 1 subtable" questiondown.taboldstyle
EndChar

StartChar: Aring
Encoding: 197 197 139
GlifName: A_ring
Width: 186
GlyphClass: 1
Flags: W
HStem: 0 21G<4 39.2069 148.759 184> 58 26<60 125> 283 30<72.8838 90 91 111.76>
VStem: 38 28<244.864 275.693> 117.514 26.4862<248.096 277.26>
LayerCount: 2
Fore
SplineSet
60 84 m 1,0,-1
 125 84 l 1,1,-1
 93 175 l 1,2,-1
 60 84 l 1,0,-1
66 261 m 2,3,4
 66 239 66 239 88 239 c 1,5,-1
 89 240 l 1,6,7
 117 240 117 240 117.513791708 262.093043464 c 0,8,9
 118 283 118 283 93 284 c 1,10,-1
 91 284 l 1,11,-1
 90 283 l 1,12,-1
 89 283 l 1,13,14
 67 282 67 282 66 263 c 1,15,-1
 66 261 l 2,3,4
4 0 m 1,16,-1
 76 212 l 1,17,18
 38 218 38 218 38 262.485028361 c 0,19,20
 38 313 38 313 87 313 c 2,21,22
 87 313 87 313 88 313 c 2,23,-1
 89 313 l 2,24,25
 144 313 144 313 144 260.884868246 c 0,26,27
 144 217 144 217 105 211 c 1,28,-1
 184 0 l 1,29,-1
 156 0 l 1,30,-1
 135 58 l 1,31,-1
 51 58 l 1,32,-1
 33 0 l 1,33,-1
 4 0 l 1,16,-1
EndSplineSet
Substitution2: "'dnom' Denominators lookup 0 subtable" Aring.denominator
Substitution2: "'numr' Numerators lookup 0 subtable" Aring.numerator
EndChar

StartChar: AE
Encoding: 198 198 140
GlifName: A_E_
Width: 257
GlyphClass: 1
Flags: W
HStem: 0 27<145 248> 45 27<69 119> 99 27<145 232> 186 27<145 248>
VStem: 119 26<27 45 72 99 126 165>
LayerCount: 2
Fore
SplineSet
4 0 m 1,0,-1
 119 213 l 1,1,-1
 143 213 l 1,2,-1
 248 213 l 1,3,-1
 248 186 l 1,4,-1
 145 186 l 1,5,-1
 145 126 l 1,6,-1
 232 125 l 1,7,-1
 232 98 l 1,8,-1
 145 99 l 1,9,-1
 145 27 l 1,10,-1
 248 26 l 1,11,-1
 248 -1 l 1,12,-1
 119 0 l 1,13,-1
 119 45 l 1,14,-1
 55 45 l 1,15,-1
 32 0 l 1,16,-1
 4 0 l 1,0,-1
69 72 m 1,17,-1
 119 72 l 1,18,-1
 119 165 l 1,19,-1
 69 72 l 1,17,-1
EndSplineSet
Substitution2: "'dnom' Denominators lookup 0 subtable" AE.denominator
Substitution2: "'numr' Numerators lookup 0 subtable" AE.numerator
EndChar

StartChar: Eth
Encoding: 208 208 150
GlifName: E_th
Width: 230
GlyphClass: 1
Flags: W
HStem: 0 28<68 150.668> 91 28<6 41 68 108> 186 27<68 153.441>
VStem: 41 27<28 91 119 186> 189.498 30.0006<70.9539 145.195>
LayerCount: 2
Fore
SplineSet
68 28 m 1,0,-1
 123 28 l 1,1,2
 190 31 190 31 189.498069752 108.799188392 c 0,3,4
 189 186 189 186 123 186 c 2,5,-1
 68 186 l 1,6,-1
 68 119 l 1,7,-1
 108 119 l 1,8,-1
 108 91 l 1,9,-1
 68 91 l 1,10,-1
 68 28 l 1,0,-1
40 213 m 1,11,-1
 123 213 l 2,12,13
 220 213 220 213 219.49869794 106.222661151 c 0,14,15
 219 0 219 0 123 0 c 2,16,-1
 41 0 l 1,17,-1
 41 91 l 1,18,-1
 6 91 l 1,19,-1
 6 119 l 1,20,-1
 41 119 l 1,21,-1
 40 213 l 1,11,-1
EndSplineSet
Substitution2: "'dnom' Denominators lookup 0 subtable" Eth.denominator
Substitution2: "'numr' Numerators lookup 0 subtable" Eth.numerator
EndChar

StartChar: multiply
Encoding: 215 215 157
GlifName: multiply
Width: 117
GlyphClass: 1
Flags: W
HStem: 127 20G<13 52 65.2222 103>
LayerCount: 2
Fore
SplineSet
13 127 m 1,0,-1
 32 147 l 1,1,-1
 59 120 l 1,2,-1
 83 147 l 1,3,-1
 103 129 l 1,4,-1
 78 102 l 1,5,-1
 105 77 l 1,6,-1
 87 58 l 1,7,-1
 60 83 l 1,8,-1
 33 53 l 1,9,-1
 13 72 l 1,10,-1
 42 101 l 1,11,-1
 13 127 l 1,0,-1
EndSplineSet
Substitution2: "'dnom' Denominators lookup 0 subtable" multiply.denominator
Substitution2: "'numr' Numerators lookup 0 subtable" multiply.numerator
Substitution2: "'smcp' Lowercase to Small Capitals lookup 1 subtable" multiply.taboldstyle
EndChar

StartChar: Oslash
Encoding: 216 216 158
GlifName: O_slash
Width: 209
GlyphClass: 1
Flags: W
HStem: 1 27.9101<88.2497 132.504> 185 27.851<76.4298 120.574>
VStem: 11 29<68.2433 144.733> 169.382 28.6185<68.1962 145.76>
LayerCount: 2
Fore
SplineSet
11 106.140117536 m 0,0,1
 11 212 11 212 102.906910325 212.85098991 c 0,2,3
 119 213 119 213 131 210 c 1,4,-1
 134 222 l 1,5,-1
 162 222 l 1,6,-1
 154 202 l 1,7,8
 198 180 198 180 198 106.819225335 c 0,9,10
 198 1 198 1 106 1 c 0,11,12
 91 1 91 1 78 3 c 1,13,-1
 70 -18 l 1,14,-1
 42 -18 l 1,15,-1
 53 12 l 1,16,17
 11 35 11 35 11 106.140117536 c 0,0,1
88 30 m 1,18,19
 96 29 96 29 102.655517172 28.9100605788 c 0,20,21
 170 28 170 28 169.381505076 107.785845179 c 0,22,23
 169 157 169 157 143 175 c 1,24,-1
 88 30 l 1,18,19
65 40 m 1,25,-1
 121 184 l 1,26,27
 114 185 114 185 106.473372674 185 c 0,28,29
 40 185 40 185 40 106.897379452 c 0,30,31
 40 59 40 59 65 40 c 1,25,-1
EndSplineSet
Substitution2: "'dnom' Denominators lookup 0 subtable" Oslash.denominator
Substitution2: "'numr' Numerators lookup 0 subtable" Oslash.numerator
EndChar

StartChar: Thorn
Encoding: 222 222 164
GlifName: T_horn
Width: 169
GlyphClass: 1
Flags: W
HStem: 0 21G<17 45> 46 28<45 121.863> 137 28<45 121.822> 193 20G<17 45>
VStem: 17 28<0 46 74 137 165 213> 132 27<83.414 127.247>
LayerCount: 2
Fore
SplineSet
45 137 m 1,0,-1
 45 74 l 1,1,-1
 86 74 l 2,2,3
 113 74 113 74 121.903006165 79.1543719904 c 0,4,5
 132 85 132 85 132 105.061072233 c 0,6,7
 132 126 132 126 121.046747368 132.024288948 c 0,8,9
 112 137 112 137 86 137 c 2,10,-1
 45 137 l 1,0,-1
45 0 m 1,11,-1
 17 0 l 1,12,-1
 17 213 l 1,13,-1
 45 213 l 1,14,-1
 45 165 l 1,15,-1
 86 165 l 2,16,17
 125 165 125 165 141.147465782 153.126863395 c 0,18,19
 159 140 159 140 159 105.071979908 c 128,-1,20
 159 70 159 70 141.285245356 56.9744451144 c 0,21,22
 125 45 125 45 86 46 c 1,23,-1
 45 46 l 1,24,-1
 45 0 l 1,11,-1
EndSplineSet
Substitution2: "'dnom' Denominators lookup 0 subtable" Thorn.denominator
Substitution2: "'numr' Numerators lookup 0 subtable" Thorn.numerator
EndChar

StartChar: germandbls
Encoding: 223 223 165
GlifName: germandbls
Width: 186
GlyphClass: 1
Flags: W
HStem: -1 28<89.5194 145.181> 58 26<96.5293 141.115> 99 26.5345<96.6319 135.411> 186 27<65.8516 125.45>
VStem: 17 29<0 166.789> 68 28<85.7818 96.9085> 142 28<140.08 172.919> 150 28.0989<32.0318 50.06>
LayerCount: 2
Fore
SplineSet
17 143 m 2,0,1
 17 213 17 213 91 213 c 2,2,3
 91 213 91 213 92 213 c 2,4,-1
 94 213 l 1,5,6
 170 212 170 212 170 148.017788879 c 0,7,8
 170 126 170 126 161.824774348 114.96344537 c 0,9,10
 150 99 150 99 118.382518479 99 c 0,11,12
 96 99 96 99 96 91.3804642643 c 0,13,14
 96 84 96 84 117 84 c 0,15,16
 179 84 179 84 178.098893601 38.0435736423 c 0,17,18
 178 33 178 33 176.821347424 27.8925055051 c 0,19,20
 175 20 175 20 170.522383134 14.7082709768 c 0,21,22
 164 7 164 7 152.072532986 3.18321055539 c 0,23,24
 139 -1 139 -1 117.398562975 -1 c 0,25,26
 84 -1 84 -1 69.7269878573 8.68525823971 c 0,27,28
 56 18 56 18 56 39 c 1,29,-1
 83 44 l 1,30,31
 83 27 83 27 117 27 c 0,32,33
 150 27 150 27 150 41.2159310619 c 0,34,35
 150 58 150 58 104 58 c 0,36,37
 91 58 91 58 80.8140748216 65.9715936178 c 0,38,39
 68 76 68 76 68 92.1349427675 c 0,40,41
 68 109 68 109 83.6743784517 117.956787687 c 0,42,43
 96 125 96 125 114.707572154 125.534502062 c 0,44,45
 131 126 131 126 137.270143719 132.270143719 c 0,46,47
 140 135 140 135 140 138 c 2,48,-1
 142 158 l 1,49,50
 142 185 142 185 94 186 c 1,51,-1
 92 186 l 2,52,53
 46 186 46 186 46 143 c 2,54,-1
 46 0 l 1,55,-1
 17 0 l 1,56,-1
 17 143 l 2,0,1
EndSplineSet
Substitution2: "'dnom' Denominators lookup 0 subtable" germandbls.denominator
Substitution2: "'numr' Numerators lookup 0 subtable" germandbls.numerator
Substitution2: "'smcp' Lowercase to Small Capitals lookup 1 subtable" germandbls.sc
EndChar

StartChar: ae
Encoding: 230 230 172
GlifName: ae
Width: 257
GlyphClass: 1
Flags: W
HStem: 0 25<153.396 207.025> 1 27<43.0076 95.5> 60 25<134 222> 63 28<41.9763 108> 119 26<47.8337 96.4834 154.926 207.5>
VStem: 8 27<35.228 56.6351> 108 25<49 60> 222 26<85 104.73>
LayerCount: 2
Fore
SplineSet
35 45.8501401121 m 0,0,1
 35 28 35 28 74 28 c 2,2,-1
 76 28 l 2,3,4
 99 28 99 28 108 49 c 1,5,-1
 108 63 l 1,6,-1
 73 63 l 1,7,-1
 72 63 l 1,8,-1
 71 63 l 2,9,10
 35 63 35 63 35 45.8501401121 c 0,0,1
8 44.4728193743 m 0,11,12
 8 91 8 91 71 91 c 2,13,-1
 108 91 l 1,14,15
 108 119 108 119 73 119 c 2,16,-1
 71 119 l 2,17,18
 42 119 42 119 39 101 c 1,19,-1
 11 101 l 1,20,21
 14 145 14 145 72 145 c 2,22,-1
 74 145 l 2,23,24
 111 145 111 145 123 117 c 1,25,26
 139 145 139 145 176 145 c 2,27,-1
 178 145 l 2,28,29
 245 145 245 145 248 84 c 1,30,-1
 248 60 l 1,31,-1
 133 60 l 1,32,33
 138 25 138 25 179 25 c 2,34,-1
 181 25 l 2,35,36
 215 25 215 25 220 46 c 1,37,-1
 248 46 l 1,38,39
 245 0 245 0 187.316270174 0 c 0,40,41
 137 0 137 0 122 35 c 1,42,43
 111 1 111 1 62.6603817912 1 c 0,44,45
 8 1 8 1 8 44.4728193743 c 0,11,12
134 85 m 1,46,-1
 222 85 l 1,47,48
 222 119 222 119 181.5 119 c 128,-1,49
 141 119 141 119 134 85 c 1,46,-1
EndSplineSet
Substitution2: "'dnom' Denominators lookup 0 subtable" ae.denominator
Substitution2: "'numr' Numerators lookup 0 subtable" ae.numerator
Substitution2: "'smcp' Lowercase to Small Capitals lookup 1 subtable" ae.sc
EndChar

StartChar: eth
Encoding: 240 240 182
GlifName: eth
Width: 170
GlyphClass: 1
Flags: W
HStem: 0 27<56.6912 106.254> 112 25<55.6339 106.548> 148 21G<90 123> 186 27<83 105.558>
VStem: 8 30<45.2207 95.1909> 124 28<45.5508 94.9264 113 154.782>
LayerCount: 2
Fore
SplineSet
124 69.5000708818 m 0,0,1
 124 111 124 111 83.9704324111 111.976330917 c 0,2,3
 83 112 83 112 82 112 c 2,4,-1
 80 112 l 1,5,6
 37 111 37 111 37.9764555656 71.9417773754 c 2,7,8
 37.9764555656 71.9417773754 37.9764555656 71.9417773754 38 71 c 2,9,-1
 38 69 l 1,10,11
 39 27 39 27 81.3742415341 27 c 0,12,13
 124 27 124 27 124 69.5000708818 c 0,0,1
83 213 m 1,14,-1
 86 213 l 2,15,16
 124 213 124 213 140 189 c 1,17,-1
 157 195 l 1,18,-1
 167 170 l 1,19,-1
 150 164 l 1,20,21
 153 157 153 157 153 149.392304845 c 0,22,23
 153 145 153 145 152 139 c 1,24,-1
 152 78 l 1,25,-1
 152 76 l 1,26,-1
 152 69 l 1,27,28
 148 0 148 0 82 0 c 2,29,-1
 79 0 l 2,30,31
 8 0 8 0 8 68.5 c 128,-1,32
 8 137 8 137 79 137 c 2,33,-1
 82 137 l 1,34,35
 117 136 117 136 124 113 c 1,36,-1
 124 139 l 2,37,38
 124 150 124 150 123 155 c 1,39,-1
 98 148 l 1,40,-1
 88 173 l 1,41,-1
 108 179 l 1,42,43
 97 186 97 186 83 186 c 2,44,-1
 80 186 l 1,45,-1
 83 213 l 1,14,-1
EndSplineSet
Substitution2: "'dnom' Denominators lookup 0 subtable" eth.denominator
Substitution2: "'numr' Numerators lookup 0 subtable" eth.numerator
Substitution2: "'smcp' Lowercase to Small Capitals lookup 1 subtable" eth.sc
EndChar

StartChar: divide
Encoding: 247 247 189
GlifName: divide
Width: 130
GlyphClass: 1
Flags: W
HStem: 53 28<52 78> 91 28<13 117> 129 28<52 78>
VStem: 52 26<53 81 129 157>
CounterMasks: 1 e0
LayerCount: 2
Fore
SplineSet
13 91 m 1,0,-1
 13 119 l 1,1,-1
 117 119 l 1,2,-1
 117 91 l 1,3,-1
 13 91 l 1,0,-1
52 53 m 1,4,-1
 52 81 l 1,5,-1
 78 81 l 1,6,-1
 78 53 l 1,7,-1
 52 53 l 1,4,-1
52 129 m 1,8,-1
 52 157 l 1,9,-1
 78 157 l 1,10,-1
 78 129 l 1,11,-1
 52 129 l 1,8,-1
EndSplineSet
Substitution2: "'dnom' Denominators lookup 0 subtable" divide.denominator
Substitution2: "'numr' Numerators lookup 0 subtable" divide.numerator
Substitution2: "'smcp' Lowercase to Small Capitals lookup 1 subtable" divide.taboldstyle
EndChar

StartChar: oslash
Encoding: 248 248 190
GlifName: oslash
Width: 165
GlyphClass: 1
Flags: W
HStem: 0 28<65.1882 106.359> 119.936 26.0635<60.5459 95.6318>
VStem: 10 28.7082<47.2635 98.5609> 126.673 27.3274<48.4668 101.677>
LayerCount: 2
Fore
SplineSet
10 74.1395609787 m 0,0,1
 10 146 10 146 81 146 c 2,2,-1
 82 146 l 2,3,4
 99 146 99 146 112 142 c 1,5,-1
 133 174 l 1,6,-1
 159 174 l 1,7,-1
 132 132 l 1,8,9
 154 114 154 114 154 73.4171457359 c 0,10,11
 154 0 154 0 81.833185692 0 c 0,12,13
 63 0 63 0 48 5 c 1,14,-1
 33 -18 l 1,15,-1
 6 -18 l 1,16,-1
 30 17 l 1,17,18
 10 36 10 36 10 74.1395609787 c 0,0,1
65 30 m 1,19,20
 71 28 71 28 80 28 c 2,21,22
 80 28 80 28 81 28 c 2,23,-1
 82 28 l 2,24,25
 126 28 126 28 126.672622477 73.7383284533 c 0,26,27
 127 96 127 96 117 108 c 1,28,-1
 65 30 l 1,19,20
47 43 m 1,29,-1
 96 119 l 1,30,31
 91 120 91 120 87.6334794047 119.936480743 c 0,32,33
 38 119 38 119 38.7082182684 72.257594284 c 0,34,35
 39 53 39 53 47 43 c 1,29,-1
EndSplineSet
Substitution2: "'dnom' Denominators lookup 0 subtable" oslash.denominator
Substitution2: "'numr' Numerators lookup 0 subtable" oslash.numerator
EndChar

StartChar: thorn
Encoding: 254 254 196
GlifName: thorn
Width: 174
GlyphClass: 1
Flags: W
HStem: -61 21G<18 46> 0 28<66.8625 116.387> 119 26<70.1602 117.298> 193 20G<18 46>
VStem: 18 28<-61 20 49.2587 94.9603 117 213> 134 30<46.205 100.476>
LayerCount: 2
Fore
SplineSet
46 0 m 1,0,-1
 46 -61 l 1,1,-1
 18 -61 l 1,2,-1
 18 0 l 1,3,-1
 18 71 l 1,4,-1
 18 145 l 1,5,-1
 18 213 l 1,6,-1
 46 213 l 1,7,-1
 46 145 l 1,8,-1
 46 117 l 1,9,10
 54 145 54 145 93 145 c 2,11,-1
 96 145 l 1,12,13
 164 143 164 143 164 72.5216371114 c 0,14,15
 164 0 164 0 91.8758224463 0 c 0,16,17
 54 0 54 0 46 20 c 1,18,-1
 46 0 l 1,0,-1
47 72.0634056049 m 0,19,20
 47 29 47 29 91.0004676622 28.0222118297 c 0,21,22
 92 28 92 28 93 28 c 2,23,-1
 96 28 l 1,24,25
 134 29 134 29 134 73.796679853 c 0,26,27
 134 118 134 118 97 119 c 1,28,-1
 96 119 l 1,29,30
 47 117 47 117 47 72.0634056049 c 0,19,20
EndSplineSet
Substitution2: "'dnom' Denominators lookup 0 subtable" thorn.denominator
Substitution2: "'numr' Numerators lookup 0 subtable" thorn.numerator
Substitution2: "'smcp' Lowercase to Small Capitals lookup 1 subtable" thorn.sc
EndChar

StartChar: .notdef
Encoding: 65536 -1 198
GlifName: _notdef
Width: 219
GlyphClass: 1
Flags: W
HStem: 1 27<65 173> 186 27<45 153>
VStem: 18 27<38 186> 173 27<28 175>
LayerCount: 2
Fore
SplineSet
65 28 m 1,0,-1
 109 28 l 1,1,-1
 173 28 l 1,2,-1
 173 175 l 1,3,-1
 65 28 l 1,0,-1
18 1 m 1,4,-1
 18 213 l 1,5,-1
 109 213 l 1,6,-1
 200 213 l 1,7,-1
 200 1 l 1,8,-1
 109 1 l 1,9,-1
 45 1 l 1,10,-1
 18 1 l 1,4,-1
45 38 m 1,11,-1
 153 186 l 1,12,-1
 109 186 l 1,13,-1
 45 186 l 1,14,-1
 45 38 l 1,11,-1
EndSplineSet
EndChar

StartChar: florin
Encoding: 402 402 199
GlifName: florin
Width: 95
Flags: W
HStem: -74 28<-28 -2.6875> 108 26<10 29 58 78> 187 27<72.2602 93>
VStem: 20 27<-24.353 20.1744>
LayerCount: 2
Fore
SplineSet
7 108 m 1,0,-1
 10 134 l 1,1,-1
 32 134 l 1,2,-1
 33 150 l 1,3,-1
 34 158 l 2,4,5
 40 213 40 213 93 214 c 1,6,-1
 94 187 l 1,7,8
 63 187 63 187 60.1349117372 159.304146793 c 0,9,10
 60 158 60 158 59 150 c 2,11,-1
 58 134 l 1,12,-1
 80 134 l 1,13,-1
 78 108 l 1,14,-1
 57 108 l 1,15,-1
 47 1 l 1,16,-1
 47 0 l 1,17,18
 41 -73 41 -73 -28 -74 c 1,19,-1
 -28 -46 l 1,20,21
 20 -44 20 -44 20 0 c 2,22,-1
 20 1 l 1,23,-1
 29 108 l 1,24,-1
 7 108 l 1,0,-1
EndSplineSet
EndChar

StartChar: uni0250
Encoding: 592 592 200
GlifName: uni0250
Width: 148
Flags: W
HStem: 0 27<50.3028 99.1481> 54 28<39 102.918> 117 27<53.751 102.25>
VStem: 13 26<37.7185 54 82 105.656 120 145> 110 28<89.1767 109.995>
LayerCount: 2
Fore
SplineSet
138 98.9100980556 m 0,0,1
 138 54 138 54 76 54 c 2,2,-1
 39 54 l 1,3,4
 39 27 39 27 75.2421456434 27 c 0,5,6
 104 27 104 27 107 44 c 1,7,-1
 136 44 l 1,8,9
 133 0 133 0 76.8158213551 0 c 0,10,11
 14 0 14 0 13 55 c 1,12,-1
 13 104 l 1,13,-1
 13 145 l 1,14,-1
 40 145 l 1,15,-1
 40 120 l 1,16,17
 44 143 44 143 79 144 c 1,18,-1
 82 144 l 2,19,20
 109 144 109 144 123.387851385 132.588945454 c 0,21,22
 138 121 138 121 138 98.9100980556 c 0,0,1
110 99.2293635594 m 0,23,24
 110 115 110 115 79 117 c 1,25,-1
 74 117 l 2,26,27
 44 117 44 117 39 93 c 1,28,-1
 39 82 l 1,29,-1
 73 82 l 2,30,31
 110 82 110 82 110 99.2293635594 c 0,23,24
EndSplineSet
EndChar

StartChar: uni0251
Encoding: 593 593 201
GlifName: uni0251
Width: 169
Flags: W
HStem: 0 28<52.8906 101.84> 119 26<55.2931 104.759>
VStem: 8 29<44.8781 100.164> 126 27<0 29 52.053 98.1859 125 143>
LayerCount: 2
Fore
SplineSet
8 71.4640742577 m 0,0,1
 8 145 8 145 79.6392126618 145 c 0,2,3
 117 145 117 145 126 125 c 1,4,-1
 126 143 l 1,5,-1
 153 143 l 1,6,-1
 153 74 l 1,7,-1
 153 0 l 1,8,-1
 126 0 l 1,9,-1
 126 29 l 1,10,11
 117 0 117 0 78 0 c 2,12,-1
 76 0 l 2,13,14
 8 0 8 0 8 71.4640742577 c 0,0,1
37 72.0996397117 m 0,15,16
 37 28 37 28 73 28 c 2,17,18
 73 28 73 28 74 28 c 2,19,-1
 76 28 l 1,20,21
 125 30 125 30 125 74.9635919751 c 0,22,23
 125 119 125 119 78 119 c 2,24,-1
 76 119 l 1,25,26
 37 118 37 118 37 72.0996397117 c 0,15,16
EndSplineSet
EndChar

StartChar: uni0252
Encoding: 594 594 202
GlifName: uni0252
Width: 169
Flags: W
HStem: 0 27<64.6719 115.2> 2 21G<16 43> 118 27<67.1602 116.109>
VStem: 16 27<2 20 48.8867 94.0627 116 145> 133 28<45.5266 100.267>
LayerCount: 2
Fore
SplineSet
161 72.5216371114 m 0,0,1
 161 0 161 0 88.8758224463 0 c 0,2,3
 51 0 51 0 43 20 c 1,4,-1
 43 2 l 1,5,-1
 16 2 l 1,6,-1
 16 71 l 1,7,-1
 16 145 l 1,8,-1
 43 145 l 1,9,-1
 43 116 l 1,10,11
 52 145 52 145 91 145 c 2,12,-1
 93 145 l 1,13,14
 161 143 161 143 161 72.5216371114 c 0,0,1
133 73.0834292448 m 0,15,16
 133 118 133 118 95 118 c 2,17,-1
 93 118 l 1,18,19
 44 116 44 116 44 71.2706124616 c 0,20,21
 44 27 44 27 92 27 c 2,22,-1
 93 27 l 2,23,24
 133 27 133 27 133 73.0834292448 c 0,15,16
EndSplineSet
EndChar

StartChar: uni0253
Encoding: 595 595 203
GlifName: uni0253
Width: 171
Flags: W
HStem: -1.6015 26.9477<66.3791 113.58> 118.506 26.4937<63.1517 112.366> 186 27<53.4922 85>
VStem: 17 27<0 29 49.2971 97.9211 125 176.642> 133 29<44.3567 97.7326>
LayerCount: 2
Fore
SplineSet
45 74.5052603244 m 0,0,1
 45 51 45 51 56.8351225854 38.1786171992 c 0,2,3
 69 25 69 25 91.1559211555 25.3461862681 c 0,4,5
 133 26 133 26 133 71.1639019293 c 0,6,7
 133 118 133 118 88.4418889956 118.506342171 c 0,8,9
 45 119 45 119 45 74.5052603244 c 0,0,1
17 0 m 1,10,-1
 17 74 l 1,11,-1
 17 158 l 2,12,13
 17 213 17 213 74 213 c 2,14,-1
 85 213 l 1,15,-1
 85 186 l 1,16,-1
 74 186 l 2,17,18
 44 186 44 186 44 158 c 2,19,-1
 44 125 l 1,20,21
 52 145 52 145 89.6256387698 145 c 0,22,23
 162 145 162 145 162 70.317695944 c 0,24,25
 162 -1 162 -1 96.4369764143 -1.60149562923 c 0,26,27
 53 -2 53 -2 44 29 c 1,28,-1
 44 0 l 1,29,-1
 17 0 l 1,10,-1
EndSplineSet
EndChar

StartChar: uni0254
Encoding: 596 596 204
GlifName: uni0254
Width: 160
Flags: W
HStem: 0 28<49.4375 105.129> 119 26<52.2268 104.203>
VStem: 8 30<39.2571 49 96 107.266> 125 27<47.7904 97.8826>
LayerCount: 2
Fore
SplineSet
152 73.0178835668 m 0,0,1
 152 0 152 0 81 0 c 2,2,-1
 79 0 l 1,3,4
 12 2 12 2 8 49 c 1,5,-1
 38 49 l 1,6,7
 43 28 43 28 75 28 c 2,8,9
 75 28 75 28 76 28 c 2,10,-1
 79 28 l 2,11,12
 125 28 125 28 125 72.994505502 c 0,13,14
 125 117 125 117 81 119 c 1,15,-1
 78 119 l 2,16,17
 43 119 43 119 38 96 c 1,18,-1
 8 96 l 1,19,20
 12 144 12 144 81 145 c 1,21,-1
 83 145 l 2,22,23
 152 145 152 145 152 73.0178835668 c 0,0,1
EndSplineSet
EndChar

StartChar: uni0255
Encoding: 597 597 205
GlifName: uni0255
Width: 182
Flags: W
HStem: 0 28<80.7852 131.967> 55 23<124.828 161.265> 119 26<75.9492 131>
VStem: 30 27<47.2705 98.8945> 144 29<37.3524 54.7537 96 107.484>
LayerCount: 2
Fore
SplineSet
80 31 m 1,0,1
 87 28 87 28 94.4142902198 27.4296699831 c 0,2,3
 100 27 100 27 103 28 c 1,4,-1
 106 28 l 1,5,6
 144 30 144 30 144 48.3454176121 c 0,7,8
 144 55 144 55 138.36714813 55 c 0,9,10
 134 55 134 55 125 51 c 2,11,-1
 80 31 l 1,0,1
121 71 m 2,12,13
 138 78 138 78 149.530601805 78 c 0,14,15
 173 78 173 78 173 49.3973776933 c 0,16,17
 173 0 173 0 103 0 c 2,18,-1
 101 0 l 2,19,20
 66 0 66 0 48 18 c 1,21,-1
 7 0 l 1,22,-1
 7 23 l 1,23,-1
 37 36 l 1,24,25
 30 52 30 52 30 74.4658914638 c 0,26,27
 30 145 30 145 99 145 c 2,28,-1
 101 145 l 2,29,30
 169 145 169 145 173 96 c 1,31,-1
 144 96 l 1,32,33
 139 119 139 119 105 119 c 2,34,35
 105 119 105 119 104 119 c 2,36,-1
 101 119 l 2,37,38
 57 119 57 119 57 73.3788773186 c 0,39,40
 57 58 57 58 62 47 c 1,41,-1
 121 71 l 2,12,13
EndSplineSet
EndChar

StartChar: uni0256
Encoding: 598 598 206
GlifName: uni0256
Width: 183
Flags: W
HStem: -43 27<164.797 182> -2 28<53.2132 101.268> 119 26<55.4503 104.578> 193 20G<126 153>
VStem: 8.50893 28.4911<43.8395 99.3379> 126 27<-4.10156 29 50.5526 97.7182 125 213>
LayerCount: 2
Fore
SplineSet
182 -16 m 1,0,-1
 182 -43 l 1,1,2
 126 -41 126 -41 126 15 c 2,3,-1
 126 23 l 1,4,-1
 126 29 l 1,5,6
 117 -2 117 -2 78 -2 c 2,7,-1
 76 -2 l 2,8,9
 9 -2 9 -2 8.50893098613 70.1871450396 c 0,10,11
 8 145 8 145 79.850291064 145 c 0,12,13
 117 145 117 145 126 125 c 1,14,-1
 126 213 l 1,15,-1
 153 213 l 1,16,-1
 153 113 l 1,17,-1
 153 74 l 1,18,-1
 153 23 l 1,19,-1
 153 15 l 1,20,21
 154 -14 154 -14 182 -16 c 1,0,-1
37 71.0796317053 m 0,22,23
 37 26 37 26 73 26 c 2,24,25
 73 26 73 26 74 26 c 2,26,-1
 76 26 l 1,27,28
 125 28 125 28 125 73.9740097723 c 0,29,30
 125 119 125 119 78 119 c 2,31,-1
 76 119 l 1,32,33
 37 118 37 118 37 71.0796317053 c 0,22,23
EndSplineSet
EndChar

StartChar: uni0257
Encoding: 599 599 207
GlifName: uni0257
Width: 182
Flags: W
HStem: -2 28<53.8906 102.268> 0 21G<127 153> 119 26<56.404 105.562> 187 27<155.157 178>
VStem: 9 29<43.373 99.6553> 127 26<0 29 50.5526 97.7182 125 183.858>
LayerCount: 2
Fore
SplineSet
38 71.0796317053 m 0,0,1
 38 26 38 26 74 26 c 2,2,3
 74 26 74 26 75 26 c 2,4,-1
 77 26 l 1,5,6
 126 28 126 28 126 73.9740097723 c 0,7,8
 126 119 126 119 79 119 c 2,9,-1
 77 119 l 1,10,11
 38 118 38 118 38 71.0796317053 c 0,0,1
9 70.4497856268 m 0,12,13
 9 145 9 145 80.8072187731 145 c 0,14,15
 118 145 118 145 127 125 c 1,16,-1
 127 129 l 1,17,-1
 127 176 l 2,18,19
 127 214 127 214 168 214 c 2,20,-1
 178 214 l 1,21,-1
 178 187 l 1,22,-1
 168 187 l 2,23,24
 155 187 155 187 153 176 c 1,25,-1
 153 0 l 1,26,-1
 127 0 l 1,27,-1
 127 29 l 1,28,29
 118 -2 118 -2 79 -2 c 2,30,-1
 77 -2 l 2,31,32
 9 -2 9 -2 9 70.4497856268 c 0,12,13
EndSplineSet
EndChar

StartChar: uni0258
Encoding: 600 600 208
GlifName: uni0258
Width: 160
Flags: W
HStem: -3 28<51.6956 105.449> 60 25<38 124> 114 28<52.2817 105.449>
VStem: 9 29<37.583 46 85 101.655>
LayerCount: 2
Fore
SplineSet
124 85 m 1,0,1
 116 114 116 114 82 114 c 2,2,-1
 81 114 l 2,3,4
 38 114 38 114 38 85 c 1,5,-1
 124 85 l 1,0,1
151 68.5 m 128,-1,7
 151 -4 151 -4 82 -3 c 1,8,-1
 80 -3 l 1,9,10
 12 -1 12 -1 9 46 c 1,11,-1
 39 46 l 1,12,13
 44 25 44 25 77 25 c 2,14,-1
 80 25 l 1,15,16
 123 26 123 26 126 60 c 1,17,-1
 9 60 l 1,18,-1
 9 84 l 1,19,20
 12 140 12 140 81 142 c 1,21,-1
 82 142 l 1,22,6
 151 141 151 141 151 68.5 c 128,-1,7
EndSplineSet
EndChar

StartChar: uni0259
Encoding: 601 601 209
GlifName: uni0259
Width: 160
Flags: W
HStem: -3 29<52.6406 106.773> 54 26<38 124> 115 27<51.6956 105.449>
VStem: 9 29<38.8184 54 94 103.536>
LayerCount: 2
Fore
SplineSet
124 54 m 1,0,-1
 38 54 l 1,1,2
 38 26 38 26 81 26 c 2,3,-1
 82 26 l 2,4,5
 116 26 116 26 124 54 c 1,0,-1
151 69.5 m 128,-1,7
 151 -3 151 -3 82 -3 c 2,8,-1
 81 -3 l 1,9,10
 13 -1 13 -1 9 55 c 1,11,-1
 9 80 l 1,12,-1
 126 80 l 1,13,14
 123 114 123 114 80 115 c 1,15,-1
 77 115 l 2,16,17
 44 115 44 115 39 94 c 1,18,-1
 9 94 l 1,19,20
 12 140 12 140 80 142 c 1,21,-1
 82 142 l 2,22,6
 151 142 151 142 151 69.5 c 128,-1,7
EndSplineSet
EndChar

StartChar: uni025A
Encoding: 602 602 210
GlifName: uni025A_
Width: 245
Flags: W
HStem: -3 29<52.9453 108.544> 21 27<213.728 239> 115 27<51.1094 107.875>
VStem: 9 29<38.312 56 94 102.578>
LayerCount: 2
Fore
SplineSet
124 63 m 1,0,-1
 38 56 l 1,1,2
 38 26 38 26 81 26 c 2,3,-1
 82 26 l 1,4,5
 82 26 82 26 83 26 c 0,6,7
 122 25 122 25 124 63 c 1,0,-1
239 48 m 1,8,-1
 239 21 l 1,9,10
 175 22 175 22 168 68 c 1,11,-1
 151 65 l 1,12,13
 150 -3 150 -3 82 -3 c 2,14,-1
 81 -3 l 2,15,16
 9 -3 9 -3 9 55 c 2,17,-1
 9 80 l 1,18,-1
 123 88 l 1,19,20
 120 115 120 115 80 115 c 2,21,-1
 77 115 l 2,22,23
 44 115 44 115 39 94 c 1,24,-1
 9 94 l 1,25,26
 12 142 12 142 79 142 c 2,27,28
 79 142 79 142 80 142 c 2,29,-1
 82 142 l 2,30,31
 140 142 140 142 148 92 c 1,32,-1
 168 95 l 1,33,-1
 195 95 l 1,34,-1
 195 84 l 2,35,36
 195 50 195 50 239 48 c 1,8,-1
EndSplineSet
EndChar

StartChar: uni025B
Encoding: 603 603 211
GlifName: uni025B_
Width: 134
Flags: W
HStem: -1 29<44.2725 92.5498> 62 25<59.8516 82> 119 28<44.6439 93.1267>
VStem: 12 28<32.6281 53.6367 93.641 115.407>
LayerCount: 2
Fore
SplineSet
125 39 m 1,0,1
 122 -1 122 -1 67 -1 c 128,-1,2
 12 -1 12 -1 12 38.4924948823 c 0,3,4
 12 75 12 75 59 75 c 1,5,6
 12 75 12 75 12.6682194979 111.083852886 c 0,7,8
 13 129 13 129 25.5885936493 137.056699936 c 128,-1,9
 38 145 38 145 68 147 c 1,10,-1
 70 147 l 2,11,12
 123 147 123 147 125 108 c 1,13,-1
 97 108 l 1,14,15
 93 119 93 119 72 119 c 2,16,17
 72 119 72 119 70 119 c 2,18,-1
 68 119 l 1,19,20
 50 118 50 118 44.4680221749 115.485464625 c 128,-1,21
 39 113 39 113 39 105.902703138 c 0,22,23
 39 86 39 86 82 87 c 1,24,-1
 82 62 l 1,25,26
 40 61 40 61 40 42.8331615118 c 0,27,28
 40 28 40 28 68 28 c 2,29,-1
 70 28 l 2,30,31
 93 28 93 28 97 39 c 1,32,-1
 125 39 l 1,0,1
EndSplineSet
EndChar

StartChar: uni025C
Encoding: 604 604 212
GlifName: uni025C_
Width: 133
Flags: W
HStem: -1 29<41.8558 89.2547> 62 25<52 73.2358> 119 28<40.6875 88.8219>
VStem: 94 28.4832<33.5231 53.4752> 94 26.3415<95.0018 115.546>
LayerCount: 2
Fore
SplineSet
9 39 m 1,0,-1
 37 39 l 1,1,2
 41 28 41 28 64 28 c 2,3,-1
 65 28 l 2,4,5
 94 28 94 28 94 42.9765593997 c 0,6,7
 94 61 94 61 52 62 c 1,8,-1
 52 87 l 1,9,10
 94 87 94 87 94 106.330383908 c 0,11,12
 94 113 94 113 89.0127505895 115.72031786 c 0,13,14
 83 119 83 119 65 119 c 2,15,-1
 64 119 l 1,16,17
 64 119 64 119 62 119 c 0,18,19
 40 119 40 119 37 108 c 1,20,-1
 9 108 l 1,21,22
 11 146 11 146 64 147 c 1,23,-1
 65 147 l 1,24,25
 95 146 95 146 107.677480567 137.379313214 c 0,26,27
 120 129 120 129 120.34150505 110.5587273 c 0,28,29
 121 75 121 75 74 75 c 1,30,31
 122 75 122 75 122.483162516 38.2796487743 c 0,32,33
 123 -1 123 -1 67.7521474228 -1 c 0,34,35
 12 -1 12 -1 9 39 c 1,0,-1
EndSplineSet
EndChar

StartChar: uni025D
Encoding: 605 605 213
GlifName: uni025D_
Width: 223
Flags: W
HStem: -1 29<41.9908 88.4034> 17 27<192.797 216> 62 25<52 84.146> 119 28<41.066 86.9323>
VStem: 94 29<33.1164 53.6708> 94 27<94.9123 115.867>
LayerCount: 2
Fore
SplineSet
216 44 m 1,0,-1
 216 17 l 1,1,2
 153 18 153 18 145 74 c 1,3,-1
 101 64 l 1,4,5
 122 61 122 61 123 41 c 1,6,7
 123 -1 123 -1 66.316971575 -1 c 0,8,9
 11 -1 11 -1 9 39 c 1,10,-1
 37 39 l 1,11,12
 41 28 41 28 63 28 c 2,13,14
 63 28 63 28 64 28 c 2,15,-1
 65 28 l 2,16,17
 94 28 94 28 94 42.9765593997 c 0,18,19
 94 61 94 61 52 62 c 1,20,-1
 52 87 l 1,21,22
 94 87 94 87 94 106.172755389 c 0,23,24
 94 114 94 114 87.1261745874 116.643779005 c 0,25,26
 81 119 81 119 65 119 c 2,27,-1
 64 119 l 2,28,29
 41 119 41 119 37 108 c 1,30,-1
 9 108 l 1,31,32
 12 146 12 146 61.8663803621 146.977772164 c 0,33,34
 63 147 63 147 64 147 c 2,35,-1
 65 147 l 2,36,37
 94 147 94 147 108.273780192 136.426829487 c 0,38,39
 121 127 121 127 121 110.160892291 c 0,40,41
 121 96 121 96 112 89 c 1,42,-1
 143 102 l 1,43,-1
 172 102 l 1,44,-1
 172 91 l 2,45,46
 172 46 172 46 216 44 c 1,0,-1
EndSplineSet
EndChar

StartChar: uni025E
Encoding: 606 606 214
GlifName: uni025E_
Width: 131
Flags: W
HStem: -1 29<48.745 89.5861> 62 13<73 82.75> 75 12<73 84.0156> 119 28<49.291 86.3711>
VStem: 8 28<42.875 103.15> 93 28.5<32.3984 53.3857 94.7071 116.139>
LayerCount: 2
Fore
SplineSet
36 73.114379083 m 0,0,1
 36 28 36 28 65 28 c 2,2,3
 65 28 65 28 66 28 c 2,4,-1
 68 28 l 1,5,6
 68 28 68 28 70 28 c 0,7,8
 93 28 93 28 93 42.1318926202 c 0,9,10
 93 61 93 61 52 62 c 1,11,-1
 52 87 l 1,12,13
 94 87 94 87 93.2692485817 106.730288293 c 0,14,15
 93 114 93 114 86.5461928751 116.689086302 c 0,16,17
 81 119 81 119 68 119 c 2,18,-1
 66 119 l 2,19,20
 36 119 36 119 36 73.114379083 c 0,0,1
8 74.873440078 m 0,21,22
 8 146 8 146 66 147 c 1,23,-1
 68 147 l 2,24,25
 92 147 92 147 107 137 c 1,26,27
 120 130 120 130 120 111.043741754 c 0,28,29
 120 75 120 75 73 75 c 1,30,31
 121 75 121 75 121.5 37 c 128,-1,32
 122 -1 122 -1 74.756601605 -1 c 0,33,34
 8 -1 8 -1 8 74.873440078 c 0,21,22
EndSplineSet
EndChar

StartChar: uni025F
Encoding: 607 607 215
GlifName: uni025F_
Width: 86
Flags: W
HStem: -61 28<3 20.2815> 19 26<10 32 58 80> 126 20G<31 58>
VStem: 32 26<-22.1641 19 45 146>
LayerCount: 2
Fore
SplineSet
80 45 m 1,0,-1
 80 19 l 1,1,-1
 58 19 l 1,2,-1
 58 -5 l 2,3,4
 58 -60 58 -60 3 -61 c 1,5,-1
 3 -33 l 1,6,7
 31 -31 31 -31 32 -5 c 1,8,-1
 32 19 l 1,9,-1
 10 19 l 1,10,-1
 10 45 l 1,11,-1
 32 45 l 1,12,-1
 31 146 l 1,13,-1
 58 146 l 1,14,-1
 58 45 l 1,15,-1
 80 45 l 1,0,-1
EndSplineSet
EndChar

StartChar: uni0260
Encoding: 608 608 216
GlifName: uni0260
Width: 202
Flags: W
HStem: -60.3109 26.3109<60.2193 114.851> -20 20G<12 41> 0 28<57.5406 108.328> 119 26<57.948 106.028> 172 27<167.594 198>
VStem: 12 29<-17.5564 0 45.5434 100.809> 129 26<-20.4568 20 48.1064 97.5866 119 159.845>
LayerCount: 2
Fore
SplineSet
88.8648220695 -34 m 0,0,1
 129 -34 129 -34 129 -1 c 2,2,3
 129 -1 129 -1 129 0 c 2,4,-1
 129 20 l 1,5,6
 121 0 121 0 83.7164124918 0 c 0,7,8
 12 0 12 0 12 74.2413732006 c 0,9,10
 12 146 12 146 79 145 c 1,11,-1
 82 145 l 2,12,13
 121 145 121 145 129 119 c 1,14,-1
 129 144 l 1,15,16
 130 199 130 199 187 199 c 2,17,-1
 198 199 l 1,18,-1
 198 172 l 1,19,-1
 187 172 l 2,20,21
 158 172 158 172 155 144 c 1,22,-1
 155 88 l 1,23,-1
 155 71 l 1,24,-1
 155 0 l 2,25,26
 155 -33 155 -33 137.139384179 -47.1834302104 c 0,27,28
 121 -60 121 -60 87.4248640158 -60.3108808887 c 0,29,30
 13 -61 13 -61 12 0 c 1,31,-1
 41 0 l 1,32,33
 41 0 41 0 41 -2 c 0,34,35
 41 -6 41 -6 43.1651513899 -11.1963633358 c 0,36,37
 46 -18 46 -18 50.4911872236 -22.4911872236 c 128,-1,38
 55 -27 55 -27 62.0524414979 -29.7426161381 c 0,39,40
 73 -34 73 -34 88.8648220695 -34 c 0,0,1
41 73.5 m 128,-1,42
 41 28 41 28 78 28 c 2,43,44
 78 28 78 28 79 28 c 2,45,-1
 81 28 l 2,46,47
 129 28 129 28 129 72.5407685049 c 0,48,49
 129 118 129 118 79 119 c 1,50,-1
 78 119 l 2,51,41
 41 119 41 119 41 73.5 c 128,-1,42
EndSplineSet
EndChar

StartChar: uni0261
Encoding: 609 609 217
GlifName: uni0261
Width: 170
Flags: W
HStem: -60.3109 26.3109<59.2193 114.07> -20 20G<11 40> 0 28<56.9584 107.386> 119 26<56.948 105.923>
VStem: 11 29<-15.9363 0 45.6535 100.921> 129 25<-20.0464 20 48.9493 96.5079 119 144>
LayerCount: 2
Fore
SplineSet
87.799623248 -34 m 0,0,1
 129 -34 129 -34 129 0 c 2,2,-1
 129 20 l 1,3,4
 121 0 121 0 83.3743612302 0 c 0,5,6
 11 0 11 0 11 74.4079860715 c 0,7,8
 11 146 11 146 78 145 c 1,9,-1
 81 145 l 2,10,11
 120 145 120 145 129 119 c 1,12,-1
 129 144 l 1,13,-1
 154 144 l 1,14,-1
 154 88 l 1,15,-1
 154 71 l 1,16,-1
 154 0 l 2,17,18
 154 -33 154 -33 136.139384179 -47.1834302104 c 0,19,20
 120 -60 120 -60 86.4248640158 -60.3108808887 c 0,21,22
 12 -61 12 -61 11 0 c 1,23,-1
 40 0 l 1,24,25
 40 0 40 0 40 -2 c 0,26,27
 40 -6 40 -6 41.990558469 -10.7773403257 c 0,28,29
 45 -18 45 -18 50.8327906073 -23.2495115465 c 0,30,31
 55 -27 55 -27 61.0576266368 -29.4943168504 c 0,32,33
 72 -34 72 -34 87.799623248 -34 c 0,0,1
40 73.803346816 m 0,34,35
 40 28 40 28 78 28 c 2,36,-1
 80 28 l 2,37,38
 128 28 128 28 128.492471352 72.3224216822 c 0,39,40
 129 118 129 118 78 119 c 1,41,-1
 77 119 l 2,42,43
 40 119 40 119 40 73.803346816 c 0,34,35
EndSplineSet
EndChar

StartChar: uni0262
Encoding: 610 610 218
GlifName: uni0262
Width: 146
Flags: W
HStem: 1 27<54.2481 97.1171> 58 25<76 108> 118.393 27.6069<55.2641 98.5727>
VStem: 8 29.5104<46.3509 99.2745> 108 28<39.0742 58 99 110.016>
LayerCount: 2
Fore
SplineSet
8 72.4176692867 m 0,0,1
 8 146 8 146 76.9190486398 146 c 0,2,3
 132 146 132 146 136 99 c 1,4,-1
 108 99 l 1,5,6
 105 118 105 118 78.270780985 118.39307675 c 0,7,8
 37 119 37 119 37.5104296632 72.5509006459 c 0,9,10
 38 28 38 28 76.0629768539 28 c 0,11,12
 104 28 104 28 108 52 c 1,13,-1
 108 58 l 1,14,-1
 76 58 l 1,15,-1
 76 83 l 1,16,-1
 136 83 l 1,17,-1
 136 58 l 1,18,-1
 136 49 l 1,19,20
 126 1 126 1 72.8416266197 1 c 0,21,22
 8 1 8 1 8 72.4176692867 c 0,0,1
EndSplineSet
EndChar

StartChar: uni0263
Encoding: 611 611 219
GlifName: uni0263
Width: 189
Flags: W
HStem: -43 20<59.3398 113.829> 126 20G<5 49 141.25 185>
VStem: 30 28<-32.4024 -6.60098>
LayerCount: 2
Fore
SplineSet
78 47 m 1,0,-1
 5 146 l 1,1,-1
 34 146 l 1,2,-1
 94 66 l 1,3,-1
 157 146 l 1,4,-1
 185 146 l 1,5,-1
 108 48 l 1,6,-1
 142 -3 l 2,7,8
 149 -13 149 -13 149 -20.6860008267 c 0,9,10
 149 -43 149 -43 89 -43 c 0,11,12
 30 -43 30 -43 30 -21.8047307547 c 0,13,14
 30 -14 30 -14 38 -3 c 2,15,-1
 78 47 l 1,0,-1
91 29 m 1,16,-1
 64 -3 l 2,17,18
 58 -10 58 -10 58 -14.1136026436 c 0,19,20
 58 -23 58 -23 86 -23 c 2,21,22
 86 -23 86 -23 87.5 -23 c 2,23,24
 87.5 -23 87.5 -23 89 -23 c 0,25,26
 116 -23 116 -23 116.706383321 -13.1106335082 c 0,27,28
 117 -9 117 -9 113 -3 c 2,29,-1
 91 29 l 1,16,-1
EndSplineSet
EndChar

StartChar: uni0264
Encoding: 612 612 220
GlifName: uni0264
Width: 201
Flags: W
HStem: -3 25<67.5689 119.666> 120 28.5072<38.9188 72.5477 124.095 156.428>
LayerCount: 2
Fore
SplineSet
84 91 m 1,0,-1
 72 116 l 2,1,2
 70 121 70 121 63.0694128192 120.133676602 c 0,3,4
 62 120 62 120 60.7537593851 120 c 0,5,6
 48 120 48 120 20 106 c 1,7,-1
 7 132 l 1,8,9
 41 149 41 149 63.1756845126 148.507207011 c 0,10,11
 86 148 86 148 96 129 c 1,12,-1
 98 124 l 1,13,-1
 100 129 l 1,14,15
 110 149 110 149 134.668149413 148.463735882 c 0,16,17
 156 148 156 148 191 132 c 1,18,-1
 178 106 l 1,19,20
 148 119 148 119 134.982301542 119.619890403 c 0,21,22
 127 120 127 120 124 116 c 2,23,-1
 113 93 l 1,24,-1
 147 41 l 2,25,26
 155 29 155 29 155 20.3339780937 c 0,27,28
 155 -3 155 -3 97.1088737578 -3 c 0,29,30
 36 -3 36 -3 36 23.1496147568 c 0,31,32
 36 32 36 32 43 41 c 2,33,-1
 84 91 l 1,0,-1
97 74 m 1,34,-1
 72 41 l 2,35,36
 66 34 66 34 66.3525213807 29.7697434314 c 0,37,38
 67 22 67 22 91 22 c 2,39,40
 91 22 91 22 93 22 c 2,41,42
 93 22 93 22 95 22 c 0,43,44
 123 22 123 22 122.254601916 31.6901750959 c 0,45,46
 122 35 122 35 118 41 c 2,47,-1
 97 74 l 1,34,-1
EndSplineSet
Substitution2: "sosis-'smcp' Lowercase to Small Capitals lookup 1 subtable" j.sc
EndChar

StartChar: uni0265
Encoding: 613 613 221
GlifName: uni0265
Width: 156
Flags: W
HStem: -61 21G<112 139> 0 27<52.6035 95.0898> 127 20G<13 39 112 140>
VStem: 13 26<41.4822 147> 112 27<-61 28 45.3594 147>
LayerCount: 2
Fore
SplineSet
140 147 m 1,0,-1
 139 74 l 1,1,-1
 139 -61 l 1,2,-1
 112 -61 l 1,3,-1
 112 28 l 1,4,5
 104 0 104 0 71 0 c 2,6,-1
 69 0 l 1,7,8
 12 2 12 2 13 66 c 1,9,-1
 13 147 l 1,10,-1
 39 147 l 1,11,-1
 39 66 l 2,12,13
 39 27 39 27 73.7986369721 27 c 0,14,15
 112 27 112 27 112 74 c 2,16,-1
 112 147 l 1,17,-1
 140 147 l 1,0,-1
EndSplineSet
EndChar

StartChar: uni0266
Encoding: 614 614 222
GlifName: uni0266
Width: 155
Flags: W
HStem: 0 21G<16 44 117 143> 118 27<60.9102 103.133> 187 27<53.5193 85>
VStem: 17 27<0 99.6406 117 177.642> 117 26<0 103.518>
LayerCount: 2
Fore
SplineSet
16 0 m 1,0,-1
 17 71 l 1,1,-1
 17 159 l 1,2,3
 18 214 18 214 74 214 c 2,4,-1
 85 214 l 1,5,-1
 85 187 l 1,6,-1
 74 187 l 2,7,8
 44 187 44 187 44 159 c 2,9,-1
 44 117 l 1,10,11
 52 145 52 145 85 145 c 2,12,-1
 87 145 l 2,13,14
 143 145 143 145 143 80 c 2,15,16
 143 80 143 80 143 79 c 2,17,-1
 143 0 l 1,18,-1
 117 0 l 1,19,-1
 117 79 l 2,20,21
 117 118 117 118 82.2013630279 118 c 0,22,23
 44 118 44 118 44 71 c 2,24,-1
 44 0 l 1,25,-1
 16 0 l 1,0,-1
EndSplineSet
EndChar

StartChar: uni0267
Encoding: 615 615 223
GlifName: uni0267
Width: 155
Flags: W
HStem: -43 29<98 113.293> 0 21G<16 44> 118 27<60.9102 103.133> 187 27<53.4922 85>
VStem: 17 27<0 99.6406 117 177.642> 117 26<-9.72461 102.75>
LayerCount: 2
Fore
SplineSet
98 -14 m 1,0,1
 117 -13 117 -13 117 2 c 2,2,-1
 117 13 l 1,3,-1
 117 79 l 2,4,5
 117 118 117 118 82.2013630279 118 c 0,6,7
 44 118 44 118 44 71 c 2,8,-1
 44 0 l 1,9,-1
 16 0 l 1,10,-1
 17 71 l 1,11,-1
 17 159 l 2,12,13
 17 214 17 214 74 214 c 2,14,-1
 85 214 l 1,15,-1
 85 187 l 1,16,-1
 74 187 l 2,17,18
 44 187 44 187 44 159 c 2,19,-1
 44 117 l 1,20,21
 52 145 52 145 85 145 c 2,22,-1
 87 145 l 2,23,24
 143 145 143 145 143 81 c 2,25,26
 143 81 143 81 143 80 c 2,27,-1
 143 79 l 1,28,-1
 143 13 l 1,29,-1
 143 3 l 2,30,31
 143 -41 143 -41 98 -43 c 1,32,-1
 98 -14 l 1,0,1
EndSplineSet
EndChar

StartChar: uni0268
Encoding: 616 616 224
GlifName: uni0268
Width: 73
Flags: W
HStem: 1 21G<24 51> 67 27<6 24 51 67> 180 26<24 51>
VStem: 24 27<1 67 94 150 180 206>
LayerCount: 2
Fore
SplineSet
6 67 m 1,0,-1
 6 94 l 1,1,-1
 24 94 l 1,2,-1
 24 150 l 1,3,-1
 51 150 l 1,4,-1
 51 94 l 1,5,-1
 67 94 l 1,6,-1
 67 67 l 1,7,-1
 51 67 l 1,8,-1
 51 1 l 1,9,-1
 24 1 l 1,10,-1
 24 67 l 1,11,-1
 6 67 l 1,0,-1
24 180 m 1,12,-1
 24 206 l 1,13,-1
 51 206 l 1,14,-1
 51 180 l 1,15,-1
 24 180 l 1,12,-1
EndSplineSet
EndChar

StartChar: uni0269
Encoding: 617 617 225
GlifName: uni0269
Width: 75
Flags: W
HStem: 1 27<52.8672 69> 126 20G<13 41>
VStem: 13 28<38.793 146>
LayerCount: 2
Fore
SplineSet
69 28 m 1,0,-1
 69 1 l 1,1,2
 13 3 13 3 13 59 c 2,3,-1
 13 146 l 1,4,-1
 41 146 l 1,5,-1
 41 59 l 2,6,7
 41 30 41 30 69 28 c 1,0,-1
EndSplineSet
EndChar

StartChar: uni026A
Encoding: 618 618 226
GlifName: uni026A_
Width: 86
Flags: W
HStem: 0 28<13 28 56 72> 119 27<13 28 56 72>
VStem: 13 59<0 28 119 146>
LayerCount: 2
Fore
SplineSet
13 119 m 1,0,-1
 13 146 l 1,1,-1
 28 146 l 1,2,-1
 56 146 l 1,3,-1
 72 146 l 1,4,-1
 72 119 l 1,5,-1
 56 119 l 1,6,-1
 56 28 l 1,7,-1
 72 28 l 1,8,-1
 72 0 l 1,9,-1
 56 0 l 1,10,-1
 28 0 l 1,11,-1
 13 0 l 1,12,-1
 13 28 l 1,13,-1
 28 28 l 1,14,-1
 28 119 l 1,15,-1
 13 119 l 1,0,-1
EndSplineSet
EndChar

StartChar: uni026B
Encoding: 619 619 227
GlifName: uni026B_
Width: 137
Flags: W
HStem: 0 21G<54 81> 83 26<81.0837 97.6094> 115 26.9669<38.1347 53.9307>
VStem: 6 28<83 112.905> 54 27<0 83 109.084 114.625 142 218> 102 27<113.367 141>
LayerCount: 2
Fore
SplineSet
6 83 m 1,0,1
 6 83 6 83 6 84 c 0,2,3
 6 141 6 141 49.5119236106 141.966931636 c 0,4,5
 51 142 51 142 54 142 c 1,6,-1
 54 218 l 1,7,-1
 81 218 l 1,8,-1
 81 119 l 1,9,10
 81 119 81 119 81 116 c 0,11,12
 81 109 81 109 88 109 c 0,13,14
 101 109 101 109 102 133 c 1,15,16
 102 133 102 133 102 141 c 1,17,-1
 129 141 l 1,18,19
 129 84 129 84 88 83 c 1,20,-1
 87 83 l 1,21,22
 87 83 87 83 81 83 c 1,23,-1
 81 0 l 1,24,-1
 54 0 l 1,25,-1
 54 109 l 1,26,27
 53 115 53 115 45 115 c 2,28,-1
 44 115 l 2,29,30
 34 115 34 115 34 83 c 1,31,-1
 6 83 l 1,0,1
EndSplineSet
EndChar

StartChar: uni026C
Encoding: 620 620 228
GlifName: uni026C_
Width: 148
Flags: W
HStem: 0 21G<73 100> 74 29<41.9823 61.8545 100 141> 131 30<40.7469 63.0742>
VStem: 8.5115 29.4885<106.864 128.376> 64 36<104.854 130.636> 73 27<0 74 148 218>
LayerCount: 2
Fore
SplineSet
73 148 m 1,0,-1
 73 218 l 1,1,-1
 100 218 l 1,2,-1
 100 103 l 1,3,-1
 141 103 l 1,4,-1
 141 74 l 1,5,-1
 100 74 l 1,6,-1
 100 0 l 1,7,-1
 73 0 l 1,8,-1
 73 74 l 1,9,-1
 57 74 l 1,10,-1
 54 74 l 2,11,12
 8 74 8 74 8.51149577247 118.500132205 c 0,13,14
 9 161 9 161 52 161 c 0,15,16
 73 161 73 161 73 148 c 1,0,-1
51 103 m 1,17,18
 64 103 64 103 64 118.690981448 c 0,19,20
 64 131 64 131 56 131 c 1,21,22
 54 131 54 131 54 131 c 1,23,24
 38 130 38 130 38 119 c 0,25,26
 38 105 38 105 51 103 c 1,17,18
EndSplineSet
EndChar

StartChar: uni026D
Encoding: 621 621 229
GlifName: uni026D_
Width: 73
Flags: W
HStem: -42 28<56.8672 73> 193 20G<17 45>
VStem: 17 28<-2.44141 213>
LayerCount: 2
Fore
SplineSet
73 -14 m 1,0,-1
 73 -42 l 1,1,2
 17 -40 17 -40 17 17 c 2,3,-1
 17 213 l 1,4,-1
 45 213 l 1,5,-1
 45 17 l 2,6,7
 45 -12 45 -12 73 -14 c 1,0,-1
EndSplineSet
EndChar

StartChar: uni026E
Encoding: 622 622 230
GlifName: uni026E_
Width: 160
Flags: W
HStem: -56 25<58.625 111.717> 0 21G<18 46> 123 24<46 119>
VStem: 18 28<0 123 147 218> 127 25<-17.1861 22.2183>
LayerCount: 2
Fore
SplineSet
18 0 m 1,0,-1
 18 218 l 1,1,-1
 46 218 l 1,2,-1
 46 147 l 1,3,-1
 148 147 l 1,4,-1
 148 123 l 1,5,-1
 95 66 l 1,6,7
 152 58 152 58 152 3.08816459009 c 0,8,9
 152 -56 152 -56 86 -56 c 0,10,11
 24 -56 24 -56 20 -11 c 1,12,-1
 47 -11 l 1,13,14
 52 -31 52 -31 84 -31 c 2,15,-1
 86 -31 l 2,16,17
 127 -31 127 -31 127 2.18795151047 c 0,18,19
 127 42 127 42 68 43 c 1,20,-1
 68 68 l 1,21,-1
 119 123 l 1,22,-1
 46 123 l 1,23,-1
 46 0 l 1,24,-1
 18 0 l 1,0,-1
EndSplineSet
EndChar

StartChar: uni026F
Encoding: 623 623 231
GlifName: uni026F_
Width: 252
Flags: W
HStem: 0 27<52.5586 97.875 146.707 190.06> 125 20G<13 42 108 137 207 235>
VStem: 13 29<37.0327 145> 108 29<36.8711 145> 207 28<0 28 45.3594 145>
LayerCount: 2
Fore
SplineSet
235 145 m 1,0,-1
 235 74 l 1,1,-1
 235 0 l 1,2,-1
 208 0 l 1,3,-1
 208 28 l 1,4,5
 200 0 200 0 166 0 c 2,6,-1
 164 0 l 2,7,8
 133 0 133 0 123 26 c 1,9,10
 109 0 109 0 74 0 c 2,11,-1
 72 0 l 2,12,13
 15 0 15 0 13 54 c 1,14,-1
 13 145 l 1,15,-1
 42 145 l 1,16,-1
 42 53 l 2,17,18
 42 27 42 27 75 27 c 2,19,-1
 76 27 l 2,20,21
 108 27 108 27 108 55 c 2,22,-1
 108 145 l 1,23,-1
 137 145 l 1,24,-1
 137 55 l 2,25,26
 137 27 137 27 167.678343461 27 c 0,27,28
 207 27 207 27 207 74 c 2,29,-1
 207 145 l 1,30,-1
 235 145 l 1,0,-1
EndSplineSet
EndChar

StartChar: uni0270
Encoding: 624 624 232
GlifName: uni0270
Width: 252
Flags: W
HStem: 0 27<52.2539 98.0126 146.707 190.06> 125 20G<13 42 108 137 207 235>
VStem: 13 29<37.0327 145> 108 29<36.3584 145> 208 27<-43 28 48.2166 145>
LayerCount: 2
Fore
SplineSet
235 145 m 1,0,-1
 235 74 l 1,1,-1
 235 -43 l 1,2,-1
 208 -43 l 1,3,-1
 208 28 l 1,4,5
 200 0 200 0 166 0 c 2,6,-1
 164 0 l 2,7,8
 133 0 133 0 123 26 c 1,9,10
 109 0 109 0 74 0 c 2,11,-1
 72 0 l 2,12,13
 14 0 14 0 13 54 c 1,14,-1
 13 145 l 1,15,-1
 42 145 l 1,16,-1
 42 53 l 2,17,18
 42 27 42 27 74.8794167365 27 c 0,19,20
 109 27 109 27 108 55 c 1,21,-1
 108 145 l 1,22,-1
 137 145 l 1,23,-1
 137 55 l 2,24,25
 137 27 137 27 167.678343461 27 c 0,26,27
 207 27 207 27 207 74 c 2,28,-1
 207 145 l 1,29,-1
 235 145 l 1,0,-1
EndSplineSet
EndChar

StartChar: uni0271
Encoding: 625 625 233
GlifName: uni0271
Width: 250
Flags: W
HStem: -43 28<188 204.652> 0 21G<15 42 114 142> 119 26<61.4048 103.137 153.922 198.729>
VStem: 15 27<0 98.2612 117 145> 114 28<0 107.669> 208 29<-11.0767 109.352>
LayerCount: 2
Fore
SplineSet
15 0 m 1,0,-1
 15 71 l 1,1,-1
 15 145 l 1,2,-1
 42 145 l 1,3,-1
 42 117 l 1,4,5
 50 145 50 145 84 145 c 2,6,-1
 86 145 l 2,7,8
 118 145 118 145 129 119 c 1,9,10
 143 145 143 145 176 145 c 2,11,-1
 178 145 l 2,12,13
 235 145 235 145 237 91 c 1,14,-1
 237 17 l 1,15,-1
 237 0 l 1,16,-1
 237 -3 l 2,17,18
 237 -42 237 -42 188 -43 c 1,19,-1
 188 -15 l 1,20,21
 207 -14 207 -14 208 -3 c 1,22,-1
 208 0 l 1,23,-1
 208 17 l 1,24,-1
 208 93 l 2,25,26
 208 119 208 119 177 119 c 2,27,-1
 176 119 l 2,28,29
 143 119 143 119 142 90 c 1,30,-1
 142 0 l 1,31,-1
 114 0 l 1,32,-1
 114 90 l 2,33,34
 114 118 114 118 83.1854345707 118.434007964 c 0,35,36
 43 119 43 119 42 71 c 1,37,-1
 42 0 l 1,38,-1
 15 0 l 1,0,-1
EndSplineSet
EndChar

StartChar: uni0272
Encoding: 626 626 234
GlifName: uni0272
Width: 159
Flags: W
HStem: -43 28<2 16.7678> 0 21G<119 147.253> 118 27<64.9399 105.166>
VStem: 20 29<-12.0405 100.547> 20 27<117 145> 119 29<0 103.077>
LayerCount: 2
Fore
SplineSet
2 -15 m 1,0,1
 20 -14 20 -14 20 -3 c 2,2,-1
 20 0 l 1,3,-1
 20 17 l 1,4,-1
 20 71 l 1,5,-1
 20 145 l 1,6,-1
 47 145 l 1,7,-1
 47 117 l 1,8,9
 55 145 55 145 89 145 c 2,10,-1
 90 145 l 1,11,12
 148 143 148 143 148 80 c 2,13,14
 148 80 148 80 148 79 c 2,15,-1
 147 0 l 1,16,-1
 119 0 l 1,17,-1
 119 79 l 2,18,19
 119 118 119 118 85.6314439994 118 c 0,20,21
 49 118 49 118 49 71 c 2,22,-1
 49 17 l 1,23,-1
 49 0 l 1,24,-1
 49 -3 l 2,25,26
 49 -42 49 -42 2 -43 c 1,27,-1
 2 -15 l 1,0,1
EndSplineSet
EndChar

StartChar: uni0273
Encoding: 627 627 235
GlifName: uni0273
Width: 162
Flags: W
HStem: -43 28<145.027 161> 0 21G<15 44> 118 27<59.9399 99.9041>
VStem: 15 29<0 100.547> 15 27<117 145> 114 28<-11.0767 103.089>
LayerCount: 2
Fore
SplineSet
161 -15 m 1,0,-1
 161 -43 l 1,1,2
 114 -42 114 -42 114 -3 c 2,3,-1
 114 0 l 1,4,-1
 114 12 l 1,5,-1
 114 79 l 2,6,7
 114 118 114 118 80.6314439994 118 c 0,8,9
 44 118 44 118 44 71 c 2,10,-1
 44 0 l 1,11,-1
 15 0 l 1,12,-1
 15 71 l 1,13,-1
 15 145 l 1,14,-1
 42 145 l 1,15,-1
 42 117 l 1,16,17
 50 145 50 145 84 145 c 2,18,-1
 85 145 l 2,19,20
 142 145 142 145 142 79 c 2,21,-1
 142 12 l 1,22,-1
 142 0 l 1,23,-1
 142 -3 l 2,24,25
 142 -14 142 -14 161 -15 c 1,0,-1
EndSplineSet
EndChar

StartChar: uni0274
Encoding: 628 628 236
GlifName: uni0274
Width: 172
Flags: W
HStem: 0 21G<16 43 112.391 155> 126 20G<16 57.8276 129 155>
VStem: 16 27<0 115> 129 26<30 146>
LayerCount: 2
Fore
SplineSet
16 0 m 1,0,-1
 16 146 l 1,1,-1
 43 146 l 1,2,-1
 129 30 l 1,3,-1
 129 146 l 1,4,-1
 155 146 l 1,5,-1
 155 0 l 1,6,-1
 127 0 l 1,7,-1
 43 115 l 1,8,-1
 43 0 l 1,9,-1
 16 0 l 1,0,-1
EndSplineSet
EndChar

StartChar: uni0275
Encoding: 629 629 237
GlifName: uni0275
Width: 151
Flags: W
HStem: 1 25<52.0347 100.103> 59 28<37 115> 119 26.5009<50.622 102.299>
VStem: 8 29<41.2022 59 87 105.92> 115 27.4979<40.2604 59 87 106.969>
LayerCount: 2
Fore
SplineSet
115 87 m 1,0,1
 115 120 115 120 77 119 c 0,2,3
 36 119 36 119 36 87 c 1,4,-1
 115 87 l 1,0,1
37 59 m 1,5,6
 39 26 39 26 76 26 c 128,-1,7
 113 26 113 26 115 59 c 1,8,-1
 37 59 l 1,5,6
8 72.4705596092 m 0,9,10
 8 145 8 145 75.1201749954 145.500896828 c 0,11,12
 142 146 142 146 142.497945488 73.7979042059 c 0,13,14
 143 1 143 1 75.1894759463 1 c 0,15,16
 8 1 8 1 8 72.4705596092 c 0,9,10
EndSplineSet
EndChar

StartChar: uni0276
Encoding: 630 630 238
GlifName: uni0276
Width: 225
Flags: W
HStem: 0 28<55.2656 99.3225 146 213> 61 27<146 196> 119 26<57 98.8555 146 213>
VStem: 8 30<45.9669 100.033> 119 27<28 29 49.0443 61 88 97.4711 114 119>
LayerCount: 2
Fore
SplineSet
8 73 m 128,-1,1
 8 146 8 146 72 146 c 2,2,-1
 74 146 l 2,3,4
 107 146 107 146 119 114 c 1,5,-1
 119 145 l 1,6,-1
 213 145 l 1,7,-1
 213 119 l 1,8,-1
 146 119 l 1,9,-1
 146 88 l 1,10,-1
 196 87 l 1,11,-1
 196 60 l 1,12,-1
 146 61 l 1,13,-1
 146 28 l 1,14,-1
 213 27 l 1,15,-1
 213 0 l 1,16,-1
 119 1 l 1,17,-1
 119 29 l 1,18,19
 109 0 109 0 74 0 c 2,20,-1
 72 0 l 2,21,0
 8 0 8 0 8 73 c 128,-1,1
38 73 m 128,-1,23
 38 28 38 28 77.7219171167 28 c 0,24,25
 117 28 117 28 117.494704478 72.5234030069 c 0,26,27
 118 118 118 118 77.894646723 118 c 0,28,22
 38 118 38 118 38 73 c 128,-1,23
EndSplineSet
EndChar

StartChar: uni0277
Encoding: 631 631 239
GlifName: uni0277
Width: 231
Flags: W
HStem: 0 28<48.3389 79.276 151.271 184.074> 117 29<48.4617 182.243>
VStem: 8 29<42.048 106.227> 117 12<58.2899 67> 195 27.6333<40.9824 103.812>
LayerCount: 2
Fore
SplineSet
164 117 m 1,0,-1
 67 117 l 1,1,2
 49 115 49 115 42.6273913323 106.666588665 c 0,3,4
 36 98 36 98 37 76 c 1,5,-1
 37 74 l 2,6,7
 37 28 37 28 63.2582486569 28 c 0,8,9
 81 28 81 28 92.5349998628 49.9164997393 c 0,10,11
 101 66 101 66 103 88 c 1,12,-1
 104 88 l 1,13,-1
 129 88 l 1,14,15
 130 65 130 65 138.924717207 48.4892731664 c 0,16,17
 150 28 150 28 168.412091827 28 c 0,18,19
 196 28 196 28 195 74 c 1,20,-1
 195 76 l 2,21,22
 195 98 195 98 188.465788526 106.544738081 c 128,-1,23
 182 115 182 115 164 117 c 1,0,-1
117 67 m 1,24,25
 117 43 117 43 101.044062701 22.2089301857 c 0,26,27
 84 0 84 0 62.1322193217 0 c 0,28,29
 43 0 43 0 28.0367603903 16.6733241365 c 0,30,31
 8 39 8 39 8 77.291885509 c 0,32,33
 8 143 8 143 67 146 c 1,34,-1
 164 146 l 1,35,36
 222 143 222 143 222.63333799 75.8661730452 c 0,37,38
 223 37 223 37 203.537570786 15.8202976198 c 0,39,40
 189 0 189 0 169.958841299 0 c 0,41,42
 147 0 147 0 130.815947053 23.197142558 c 0,43,44
 117 43 117 43 117 67 c 1,24,25
EndSplineSet
EndChar

StartChar: uni0278
Encoding: 632 632 240
GlifName: uni0278
Width: 173
Flags: W
HStem: -61 21G<72 99> 1 28<54.9543 72 99 114.958> 117 27<56.7554 72> 119 25<99 114.703> 193 20G<72 99>
VStem: 6.34299 28.657<48.6836 96.4531> 72 27<-61 1.56163 29 117 143.569 213> 138 28<50.2329 97.3833>
LayerCount: 2
Fore
SplineSet
72 29 m 1,0,-1
 72 117 l 1,1,2
 35 109 35 109 35 74 c 2,3,4
 35 74 35 74 35 73 c 2,5,6
 35 73 35 73 35 72 c 0,7,8
 35 35 35 35 72 29 c 1,0,-1
99 29 m 1,9,10
 138 37 138 37 138 73.5753696456 c 0,11,12
 138 93 138 93 127.104660734 104.932990624 c 0,13,14
 117 116 117 116 99 119 c 1,15,-1
 99 29 l 1,9,10
99 144 m 1,16,17
 166 137 166 137 166 73.7722658776 c 0,18,19
 166 41 166 41 148.232289621 22.2169918855 c 0,20,21
 131 4 131 4 99 1 c 1,22,-1
 99 -61 l 1,23,-1
 72 -61 l 1,24,-1
 72 1 l 1,25,26
 41 4 41 4 23.9716169621 22.4879587268 c 0,27,28
 6 42 6 42 6.34298910686 74.9269542589 c 0,29,30
 7 138 7 138 72 144 c 1,31,-1
 72 213 l 1,32,-1
 99 213 l 1,33,-1
 99 144 l 1,16,17
EndSplineSet
EndChar

StartChar: uni0279
Encoding: 633 633 241
GlifName: uni0279
Width: 152
Flags: W
HStem: 0 28<40.1301 87.6373> 126 20G<107.718 135>
VStem: 6 28<33.717 45> 108 27<1 29 50.2148 146>
LayerCount: 2
Fore
SplineSet
135 146 m 1,0,-1
 135 75 l 1,1,-1
 135 1 l 1,2,-1
 108 1 l 1,3,-1
 108 29 l 1,4,5
 99 0 99 0 65 0 c 2,6,-1
 63 0 l 1,7,8
 8 2 8 2 6 45 c 1,9,-1
 34 45 l 1,10,11
 35 28 35 28 62.0398113205 28 c 0,12,13
 107 28 107 28 107 75 c 2,14,-1
 108 146 l 1,15,-1
 135 146 l 1,0,-1
EndSplineSet
EndChar

StartChar: uni027A
Encoding: 634 634 242
GlifName: uni027A_
Width: 152
Flags: W
HStem: 0 28<41.4736 86.9844> 193 20G<107 134>
VStem: 107 27<1 29 48.2412 213>
LayerCount: 2
Fore
SplineSet
134 213 m 1,0,-1
 134 75 l 1,1,-1
 134 1 l 1,2,-1
 108 1 l 1,3,-1
 108 29 l 1,4,5
 99 0 99 0 65 0 c 2,6,-1
 63 0 l 2,7,8
 8 0 8 0 6 45 c 1,9,-1
 35 45 l 1,10,11
 36 28 36 28 61 28 c 0,12,13
 107 28 107 28 107 75 c 2,14,-1
 107 213 l 1,15,-1
 134 213 l 1,0,-1
EndSplineSet
EndChar

StartChar: uni027B
Encoding: 635 635 243
GlifName: uni027B_
Width: 156
Flags: W
HStem: -43 28<137.297 156> 0 28<41.4736 86.9844> 126 20G<107.718 134>
VStem: 108 26<-11.0767 29 50.2148 146>
LayerCount: 2
Fore
SplineSet
134 146 m 1,0,-1
 134 75 l 1,1,-1
 134 17 l 1,2,-1
 134 1 l 1,3,-1
 134 -3 l 2,4,5
 134 -15 134 -15 156 -15 c 1,6,-1
 156 -43 l 1,7,8
 108 -42 108 -42 108 -3 c 2,9,-1
 108 0 l 1,10,-1
 108 1 l 1,11,-1
 108 12 l 1,12,-1
 108 29 l 1,13,14
 99 0 99 0 65 0 c 2,15,-1
 63 0 l 2,16,17
 8 0 8 0 6 45 c 1,18,-1
 35 45 l 1,19,20
 36 28 36 28 61 28 c 0,21,22
 107 28 107 28 107 75 c 2,23,-1
 108 146 l 1,24,-1
 134 146 l 1,0,-1
EndSplineSet
EndChar

StartChar: uni027C
Encoding: 636 636 244
GlifName: uni027C_
Width: 151
Flags: W
HStem: 119 27<63.6235 110.87>
VStem: 17 29<-43 101.204> 17 26<117 145> 118 27<101 111.547>
LayerCount: 2
Fore
SplineSet
17 -43 m 1,0,-1
 17 71 l 1,1,-1
 17 145 l 1,2,-1
 43 145 l 1,3,-1
 43 117 l 1,4,5
 52 146 52 146 87 146 c 2,6,-1
 88 146 l 2,7,8
 143 146 143 146 145 101 c 1,9,-1
 118 101 l 1,10,11
 116 118 116 118 90.673614652 118.938014272 c 0,12,13
 89 119 89 119 87.4420161792 119 c 0,14,15
 45 119 45 119 45.9693002201 73.4428896566 c 0,16,17
 46 72 46 72 46 71 c 2,18,-1
 46 -43 l 1,19,-1
 17 -43 l 1,0,-1
EndSplineSet
EndChar

StartChar: uni027D
Encoding: 637 637 245
GlifName: uni027D_
Width: 150
Flags: W
HStem: -42 28<47.9475 63> 119 27<63.4062 109.479>
VStem: 16 29<-11.1562 99.7112> 16 26<117 145> 117 27<101 111.547>
LayerCount: 2
Fore
SplineSet
45 -2 m 2,0,1
 45 -14 45 -14 63 -14 c 1,2,-1
 63 -42 l 1,3,4
 15 -41 15 -41 16 -2 c 1,5,-1
 16 71 l 1,6,-1
 16 145 l 1,7,-1
 42 145 l 1,8,-1
 42 117 l 1,9,10
 51 146 51 146 86 146 c 2,11,-1
 88 146 l 2,12,13
 143 146 143 146 144 101 c 1,14,-1
 117 101 l 1,15,16
 115 118 115 118 89.2053068558 118.955359005 c 0,17,18
 88 119 88 119 86.7009265116 119 c 0,19,20
 45 119 45 119 45 72 c 2,21,22
 45 72 45 72 45 71 c 2,23,-1
 45 18 l 1,24,-1
 45 -2 l 2,0,1
EndSplineSet
EndChar

StartChar: uni027E
Encoding: 638 638 246
GlifName: uni027E_
Width: 146
Flags: W
HStem: 1 21G<12 41> 119 27.9638<57.2836 104.248>
VStem: 12 29<1 100.27> 113 27<101 111.494>
LayerCount: 2
Fore
SplineSet
12 71 m 2,0,1
 12 146 12 146 75.608248824 146.963761346 c 0,2,3
 78 147 78 147 81.4571135287 146.940394594 c 0,4,5
 136 146 136 146 140 101 c 1,6,-1
 113 101 l 1,7,8
 112 118 112 118 78.3783531384 118.960618482 c 0,9,10
 77 119 77 119 75.9975488077 119 c 0,11,12
 41 119 41 119 41 71 c 2,13,-1
 41 1 l 1,14,-1
 12 1 l 1,15,-1
 12 71 l 2,0,1
EndSplineSet
EndChar

StartChar: uni027F
Encoding: 639 639 247
GlifName: uni027F_
Width: 146
Flags: W
HStem: 119 27.9515<42.3015 89.8462>
VStem: 107 27<-43 100.25>
LayerCount: 2
Fore
SplineSet
134 71 m 2,0,-1
 134 -43 l 1,1,-1
 107 -43 l 1,2,-1
 107 71 l 2,3,4
 107 119 107 119 69 119 c 0,5,6
 35 119 35 119 35 101 c 1,7,-1
 6 101 l 1,8,9
 9 146 9 146 66.0919432796 146.951532388 c 0,10,11
 69 147 69 147 72.077782103 146.952649506 c 0,12,13
 134 146 134 146 134 71 c 2,0,-1
EndSplineSet
EndChar

StartChar: uni0280
Encoding: 640 640 248
GlifName: uni0280
Width: 157
Flags: W
HStem: 0 21G<17 44 114 130.509> 54 28<44 69> 119 28<44 110.812>
VStem: 17 27<0 54 82 119> 116 31<87.7585 113.575>
LayerCount: 2
Fore
SplineSet
44 82 m 1,0,-1
 74 82 l 2,1,2
 97 82 97 82 105.728069276 85.21560447 c 0,3,4
 116 89 116 89 116 100.780753223 c 0,5,6
 116 109 116 109 110.968167065 113.528649641 c 128,-1,7
 106 118 106 118 96.4615917103 118.635893886 c 0,8,9
 91 119 91 119 74 119 c 2,10,-1
 44 119 l 1,11,-1
 44 82 l 1,0,-1
16 147 m 1,12,-1
 17 147 l 1,13,-1
 44 147 l 1,14,-1
 74 147 l 2,15,16
 112 147 112 147 128.930291163 136.841825302 c 0,17,18
 147 126 147 126 147 100.654532039 c 0,19,20
 147 80 147 80 135.550135061 70.1114802797 c 0,21,22
 125 61 125 61 100 57 c 1,23,-1
 147 0 l 1,24,-1
 114 1 l 1,25,-1
 69 54 l 1,26,-1
 44 54 l 1,27,-1
 44 0 l 1,28,-1
 17 0 l 1,29,-1
 17 54 l 1,30,-1
 16 147 l 1,12,-1
EndSplineSet
EndChar

StartChar: uni0281
Encoding: 641 641 249
GlifName: uni0281
Width: 156
Flags: W
HStem: 0 28<43 108.215> 65 28<43 68> 127 20G<16 43 113 129.509>
VStem: 16 27<28 65 93 147> 115 31<34.4806 58.9116>
LayerCount: 2
Fore
SplineSet
43 65 m 1,0,-1
 43 28 l 1,1,-1
 73 28 l 2,2,3
 90 28 90 28 96.6794847529 28.890597967 c 0,4,5
 105 30 105 30 109.891990855 34.4027917693 c 0,6,7
 115 39 115 39 115 46.734016967 c 0,8,9
 115 57 115 57 106.086144925 60.9617133666 c 128,-1,10
 97 65 97 65 73 65 c 2,11,-1
 43 65 l 1,0,-1
15 0 m 1,12,-1
 16 93 l 1,13,-1
 16 147 l 1,14,-1
 43 147 l 1,15,-1
 43 93 l 1,16,-1
 68 93 l 1,17,-1
 113 146 l 1,18,-1
 146 147 l 1,19,-1
 99 90 l 1,20,21
 124 85 124 85 134.50017937 75.9316632717 c 0,22,23
 146 66 146 66 146 45.5655116132 c 0,24,25
 146 20 146 20 127.777309468 9.58703398147 c 0,26,27
 111 0 111 0 73 0 c 2,28,-1
 43 0 l 1,29,-1
 16 0 l 1,30,-1
 15 0 l 1,12,-1
EndSplineSet
EndChar

StartChar: uni0282
Encoding: 642 642 250
GlifName: uni0282
Width: 140
Flags: W
HStem: -39 27<48.0273 64> 0 28<46.383 97.9693> 60 27<47.0752 96.8291> 119 27<43.6514 96.8671>
VStem: 10 28.5115<35.709 46 94.7851 113.767> 17 28<-8.15625 3> 104 28<34.0953 53.6442 101 112.352>
LayerCount: 2
Fore
SplineSet
64 -12 m 1,0,-1
 64 -39 l 1,1,2
 17 -38 17 -38 17 1 c 2,3,-1
 17 20 l 1,4,5
 10 30 10 30 11 46 c 1,6,-1
 40 46 l 1,7,8
 40 29 40 29 69 28 c 0,9,10
 104 28 104 28 104 44 c 128,-1,11
 104 60 104 60 68.3853005505 60 c 0,12,13
 10 60 10 60 10 102.35429357 c 0,14,15
 10 146 10 146 72.5821694443 146 c 0,16,17
 104 146 104 146 117.855365678 134.710442781 c 0,18,19
 131 124 131 124 131 101 c 1,20,-1
 104 101 l 1,21,22
 104 119 104 119 70.0196623784 119 c 0,23,24
 39 119 39 119 38.5115327383 104.345982148 c 0,25,26
 38 89 38 89 72 87 c 1,27,28
 132 86 132 86 132 43.1776889846 c 0,29,30
 132 0 132 0 71.8539661004 0 c 0,31,32
 56 0 56 0 45 3 c 1,33,-1
 45 1 l 2,34,35
 45 -11 45 -11 64 -12 c 1,0,-1
EndSplineSet
EndChar

StartChar: uni0283
Encoding: 643 643 251
GlifName: uni0283
Width: 87
Flags: W
HStem: -56 28<3 19.9673> 187 27<67.0327 84>
VStem: 30 27<-18.7266 178.087>
LayerCount: 2
Fore
SplineSet
57 0 m 2,0,1
 57 -55 57 -55 3 -56 c 1,2,-1
 3 -28 l 1,3,4
 30 -26 30 -26 30 -1 c 2,5,6
 30 -1 30 -1 30 0 c 2,7,-1
 30 1 l 1,8,-1
 30 150 l 1,9,-1
 30 158 l 2,10,11
 30 213 30 213 84 214 c 1,12,-1
 84 187 l 1,13,14
 56 185 56 185 56.9649290569 158.946915464 c 2,15,16
 56.9649290569 158.946915464 56.9649290569 158.946915464 57 158 c 2,17,-1
 57 150 l 1,18,-1
 57 1 l 1,19,-1
 57 0 l 2,0,1
EndSplineSet
EndChar

StartChar: uni0284
Encoding: 644 644 252
GlifName: uni0284
Width: 105
Flags: W
HStem: -78 28<1 23.623> 19 26<25 46 73 95> 187 27<84.0327 101>
VStem: 46 27<-28.1836 19 45 175.311>
LayerCount: 2
Fore
SplineSet
1 -50 m 1,0,1
 46 -48 46 -48 46 -3 c 2,2,-1
 46 19 l 1,3,-1
 25 19 l 1,4,-1
 25 45 l 1,5,-1
 46 45 l 1,6,-1
 46 146 l 1,7,-1
 47 146 l 1,8,-1
 47 150 l 1,9,-1
 47 158 l 2,10,11
 47 213 47 213 101 214 c 1,12,-1
 101 187 l 1,13,14
 74 185 74 185 73 158 c 1,15,-1
 73 150 l 1,16,-1
 73 146 l 1,17,-1
 73 45 l 1,18,-1
 95 45 l 1,19,-1
 95 19 l 1,20,-1
 73 19 l 1,21,-1
 73 1 l 1,22,-1
 73 0 l 1,23,-1
 73 -3 l 2,24,25
 73 -77 73 -77 1 -78 c 1,26,-1
 1 -50 l 1,0,1
EndSplineSet
EndChar

StartChar: uni0285
Encoding: 645 645 253
GlifName: uni0285
Width: 89
Flags: W
HStem: -56 28<69.543 88> 119 26<7 22.5566>
VStem: 33 28<-18.7266 108.387>
LayerCount: 2
Fore
SplineSet
33 0 m 2,0,-1
 33 1 l 1,1,-1
 33 82 l 1,2,-1
 33 89 l 2,3,4
 33 117 33 117 7 119 c 1,5,-1
 7 145 l 1,6,7
 61 144 61 144 61 90 c 2,8,9
 61 90 61 90 61 89 c 2,10,-1
 61 82 l 1,11,-1
 61 1 l 1,12,-1
 61 0 l 2,13,14
 61 -28 61 -28 88 -28 c 1,15,-1
 88 -56 l 1,16,17
 33 -55 33 -55 33 0 c 2,0,-1
EndSplineSet
EndChar

StartChar: uni0286
Encoding: 646 646 254
GlifName: uni0286
Width: 131
Flags: W
HStem: -43 27<38.4247 56.791> 15 29<39.4946 57.9046 88 125> 187 27<97.0327 114>
VStem: 7 29<-14.2531 12.1476> 60 27<-14.1975 15 45 176.727>
LayerCount: 2
Fore
SplineSet
60 15 m 1,0,1
 60 15 60 15 52.5 15 c 2,2,3
 52.5 15 52.5 15 52 15 c 0,4,5
 36 15 36 15 36 -1.61284993073 c 0,6,7
 36 -16 36 -16 47.7914226164 -16 c 0,8,9
 59 -16 59 -16 59 -3 c 1,10,11
 60 6 60 6 60 15 c 1,0,1
87 44 m 1,12,-1
 125 44 l 1,13,-1
 125 15 l 1,14,-1
 88 15 l 1,15,-1
 88 -3 l 1,16,17
 88 -3 88 -3 88 -4 c 0,18,19
 88 -43 88 -43 50 -43 c 2,20,21
 50 -43 50 -43 49 -43 c 128,-1,22
 48 -43 48 -43 46.6169381108 -42.9662667832 c 0,23,24
 7 -42 7 -42 7 -1 c 0,25,26
 7 45 7 45 45.2355273029 45 c 0,27,28
 55 45 55 45 58 48 c 1,29,30
 59 47 59 47 60 45 c 1,31,-1
 60 70 l 1,32,-1
 60 150 l 1,33,-1
 60 158 l 2,34,35
 60 213 60 213 114 214 c 1,36,-1
 114 187 l 1,37,38
 87 185 87 185 87 158 c 2,39,-1
 87 150 l 1,40,-1
 87 44 l 1,12,-1
EndSplineSet
EndChar

StartChar: uni0287
Encoding: 647 647 255
GlifName: uni0287
Width: 114
Flags: W
HStem: 0 21G<58 85> 68 25<37 58 85 107> 186 28.5243<34.3631 54.7287>
VStem: 6 27<160 184.268> 58 27<0 68 93 178.556>
LayerCount: 2
Fore
SplineSet
107 93 m 1,0,-1
 107 68 l 1,1,-1
 85 68 l 1,2,-1
 85 0 l 1,3,-1
 58 0 l 1,4,-1
 58 68 l 1,5,-1
 37 68 l 1,6,-1
 37 93 l 1,7,-1
 58 93 l 1,8,-1
 58 158 l 2,9,10
 58 186 58 186 48 186 c 2,11,-1
 47 186 l 1,12,13
 47 186 47 186 42.5 186 c 2,14,15
 42.5 186 42.5 186 41 186 c 0,16,17
 36 186 36 186 34.3094750193 184.309475019 c 0,18,19
 33 183 33 183 33 179 c 2,20,21
 33 179 33 179 33 176.5 c 2,22,23
 33 176.5 33 176.5 33 172.5 c 2,24,25
 33 172.5 33 172.5 33 166 c 2,26,27
 33 166 33 166 33 160 c 1,28,-1
 6 160 l 1,29,30
 7 191 7 191 13.4484032995 202.054405656 c 0,31,32
 21 215 21 215 43.3590095776 214.524276392 c 0,33,34
 68 214 68 214 77.4284175129 197.916228949 c 0,35,36
 85 185 85 185 85 158 c 2,37,-1
 85 93 l 1,38,-1
 107 93 l 1,0,-1
EndSplineSet
EndChar

StartChar: uni0288
Encoding: 648 648 256
GlifName: uni0288
Width: 111
Flags: W
HStem: -43 28<59.9498 79.3225> 121 26<7 28 55 77> 194 20G<28 55>
VStem: 28 27<-10.3581 121 147 214> 81.5153 26.4847<-13.3582 12>
LayerCount: 2
Fore
SplineSet
7 121 m 1,0,-1
 7 147 l 1,1,-1
 28 147 l 1,2,-1
 28 214 l 1,3,-1
 55 214 l 1,4,-1
 55 147 l 1,5,-1
 77 147 l 1,6,-1
 77 121 l 1,7,-1
 55 121 l 1,8,-1
 55 14 l 2,9,10
 55 -15 55 -15 70 -15 c 0,11,12
 73 -15 73 -15 75.5358983849 -13.7320508076 c 0,13,14
 77 -13 77 -13 78.3832719757 -11.6167280243 c 0,15,16
 80 -10 80 -10 80 -8.88047305235 c 0,17,18
 80 -8 80 -8 80.552612269 -6.06585705867 c 0,19,20
 82 -1 82 -1 81.5153347041 -0.0306694081161 c 128,-1,21
 81 1 81 1 81 10 c 2,22,23
 81 10 81 10 81 12 c 1,24,-1
 108 12 l 1,25,26
 107 -19 107 -19 100.535230884 -30.0824613419 c 0,27,28
 93 -43 93 -43 70 -43 c 2,29,30
 70 -43 70 -43 69 -43 c 128,-1,31
 68 -43 68 -43 66.3000693976 -42.9260899738 c 0,32,33
 45 -42 45 -42 36.2342717818 -28.0779610652 c 0,34,35
 28 -15 28 -15 28 14 c 2,36,-1
 28 121 l 1,37,-1
 7 121 l 1,0,-1
EndSplineSet
EndChar

StartChar: uni0289
Encoding: 649 649 257
GlifName: uni0289
Width: 163
Flags: W
HStem: 1 27.5033<59.0959 100.052> 67 27<7 17 45 116 144 152> 126 20G<17 46 118 144>
VStem: 17 28<42.9231 67 94 146> 116 28<45.6594 67> 118 26<1 29 94 146>
LayerCount: 2
Fore
SplineSet
17 146 m 1,0,-1
 46 146 l 1,1,-1
 45 94 l 1,2,-1
 118 94 l 1,3,-1
 118 146 l 1,4,-1
 144 146 l 1,5,-1
 144 94 l 1,6,-1
 152 94 l 1,7,-1
 152 67 l 1,8,-1
 144 67 l 1,9,-1
 144 1 l 1,10,-1
 118 1 l 1,11,-1
 118 29 l 1,12,13
 110 1 110 1 76 1 c 2,14,-1
 74 1 l 1,15,16
 17 3 17 3 17 66 c 2,17,18
 17 66 17 66 17 67 c 1,19,-1
 7 67 l 1,20,-1
 7 94 l 1,21,-1
 17 94 l 1,22,-1
 17 146 l 1,0,-1
45 67 m 1,23,24
 45 29 45 29 78.7725543596 28.5033447888 c 0,25,26
 113 28 113 28 116 67 c 1,27,-1
 45 67 l 1,23,24
EndSplineSet
EndChar

StartChar: uni028A
Encoding: 650 650 258
GlifName: uni028A_
Width: 161
Flags: W
HStem: 0 28<58.1022 101.753> 119 27<9 46 114 151>
VStem: 18.6669 24.3331<42.7217 73.9647> 117 26<42.8524 74.3201>
LayerCount: 2
Fore
SplineSet
78.7216459382 0 m 0,0,1
 36 0 36 0 23 36 c 1,2,3
 19 43 19 43 18.6668922349 52.3270174235 c 0,4,5
 18 71 18 71 34 98 c 2,6,-1
 46 119 l 1,7,-1
 9 119 l 1,8,-1
 9 146 l 1,9,-1
 73 146 l 1,10,-1
 73 119 l 1,11,-1
 62 98 l 1,12,13
 43 68 43 68 43 56.6124769561 c 0,14,15
 43 54 43 54 44.0832687016 51.1835013758 c 0,16,17
 53 28 53 28 79.9814462143 28 c 0,18,19
 108 28 108 28 115.844511892 52.4051481099 c 0,20,21
 117 56 117 56 117 58.3738732007 c 0,22,23
 117 68 117 68 98 98 c 1,24,-1
 88 119 l 1,25,-1
 88 146 l 1,26,-1
 151 146 l 1,27,-1
 151 119 l 1,28,-1
 114 119 l 1,29,-1
 126 98 l 2,30,31
 143 70 143 70 143 53.5535227095 c 0,32,33
 143 43 143 43 136.683247504 31.682485111 c 0,34,35
 119 0 119 0 78.7216459382 0 c 0,0,1
EndSplineSet
EndChar

StartChar: uni028B
Encoding: 651 651 259
GlifName: uni028B_
Width: 143
Flags: W
HStem: 1 27<56.0708 90.9292> 119 27<71 88.8613>
VStem: 13 28<45.5557 145> 106 28<44.2168 103.356>
LayerCount: 2
Fore
SplineSet
133 82 m 1,0,-1
 134 74 l 1,1,2
 134 1 134 1 73.5 1 c 128,-1,3
 13 1 13 1 13 74 c 2,4,-1
 13 145 l 1,5,-1
 41 145 l 1,6,-1
 41 74 l 2,7,8
 41 29 41 29 73 28 c 1,9,-1
 74 28 l 2,10,11
 106 28 106 28 106 74 c 2,12,-1
 106 82 l 2,13,14
 106 115 106 115 71 119 c 1,15,-1
 71 146 l 1,16,17
 133 145 133 145 133 82 c 1,0,-1
EndSplineSet
Substitution2: "'locl' Localized Forms lookup 13-1 Werconia" uni028B.loclWRC
EndChar

StartChar: uni028C
Encoding: 652 652 260
GlifName: uni028C_
Width: 151
Flags: W
HStem: 1 21G<5 40.4404 112.294 148> 125 20G<57.5278 100.639>
LayerCount: 2
Fore
SplineSet
148 1 m 1,0,-1
 120 1 l 1,1,-1
 78 110 l 1,2,-1
 32 1 l 1,3,-1
 5 1 l 1,4,-1
 66 145 l 1,5,-1
 93 145 l 1,6,-1
 148 1 l 1,0,-1
EndSplineSet
EndChar

StartChar: uni028D
Encoding: 653 653 261
GlifName: uni028D_
Width: 199
Flags: W
HStem: 1 21G<5 39.7732 83.433 121.376 162.194 195> 126 20G<42.931 82.5914 121.054 158.793>
LayerCount: 2
Fore
SplineSet
195 1 m 1,0,-1
 168 1 l 1,1,-1
 141 94 l 1,2,-1
 116 1 l 1,3,-1
 89 1 l 1,4,-1
 62 98 l 1,5,-1
 34 1 l 1,6,-1
 5 1 l 1,7,-1
 49 146 l 1,8,-1
 77 146 l 1,9,-1
 103 53 l 1,10,-1
 126 146 l 1,11,-1
 153 146 l 1,12,-1
 195 1 l 1,0,-1
EndSplineSet
EndChar

StartChar: uni028E
Encoding: 654 654 262
GlifName: uni028E_
Width: 151
Flags: W
HStem: 0 21G<4 39.6486 111.793 147> 193 20G<89.1737 125>
LayerCount: 2
Fore
SplineSet
147 0 m 1,0,-1
 119 0 l 1,1,-1
 79 111 l 1,2,-1
 31 0 l 1,3,-1
 4 0 l 1,4,-1
 98 213 l 1,5,-1
 125 213 l 1,6,-1
 93 143 l 1,7,-1
 147 0 l 1,0,-1
EndSplineSet
EndChar

StartChar: uni028F
Encoding: 655 655 263
GlifName: uni028F_
Width: 178
Flags: W
HStem: 0 21G<75 102> 126 20G<5 49.0952 126.222 173>
VStem: 75 27<0 65>
LayerCount: 2
Fore
SplineSet
5 146 m 1,0,-1
 31 146 l 1,1,-1
 88 83 l 1,2,-1
 144 146 l 1,3,-1
 173 146 l 1,4,-1
 102 65 l 1,5,-1
 102 0 l 1,6,-1
 75 0 l 1,7,-1
 75 65 l 1,8,-1
 5 146 l 1,0,-1
EndSplineSet
EndChar

StartChar: uni0290
Encoding: 656 656 264
GlifName: uni0290
Width: 134
Flags: W
HStem: -43 28<117.047 133> 0 28<42 86> 119 27<13 85>
LayerCount: 2
Fore
SplineSet
133 -15 m 1,0,-1
 133 -43 l 1,1,2
 86 -42 86 -42 86 -3 c 2,3,-1
 86 0 l 1,4,-1
 13 0 l 1,5,-1
 13 28 l 1,6,-1
 85 119 l 1,7,-1
 13 119 l 1,8,-1
 13 146 l 1,9,-1
 113 146 l 1,10,-1
 113 119 l 1,11,-1
 42 28 l 1,12,-1
 113 28 l 1,13,-1
 113 20 l 1,14,-1
 113 0 l 1,15,16
 114 -14 114 -14 133 -15 c 1,0,-1
EndSplineSet
EndChar

StartChar: uni0291
Encoding: 657 657 265
GlifName: uni0291
Width: 209
Flags: W
HStem: 0 28<42 98 127 163.725> 69 29.4729<137.024 170.746> 119 27<13 85>
VStem: 98 29<-37 0 28 58.0518> 175 26.4942<38.4204 64.0237>
LayerCount: 2
Fore
SplineSet
127 28 m 1,0,1
 134 28 134 28 137.988901634 28.0972902838 c 0,2,3
 175 29 175 29 175 51.5863138646 c 0,4,5
 175 69 175 69 153 69 c 0,6,7
 127 69 127 69 127 36 c 2,8,-1
 127 28 l 1,0,1
127 0 m 1,9,-1
 127 -37 l 1,10,-1
 98 -37 l 1,11,-1
 98 0 l 1,12,-1
 13 0 l 1,13,-1
 13 28 l 1,14,-1
 85 119 l 1,15,-1
 13 119 l 1,16,-1
 13 146 l 1,17,-1
 113 146 l 1,18,-1
 113 119 l 1,19,-1
 42 28 l 1,20,21
 42 28 42 28 98 28 c 1,22,-1
 98 36 l 1,23,24
 98 36 98 36 98 37 c 0,25,26
 98 99 98 99 152.815082684 98.4729318973 c 0,27,28
 202 98 202 98 201.494249477 48.4364487106 c 0,29,30
 201 0 201 0 154 0 c 2,31,-1
 127 0 l 1,9,-1
EndSplineSet
EndChar

StartChar: uni0292
Encoding: 658 658 266
GlifName: uni0292
Width: 148
Flags: W
HStem: -56 25<44.625 99.2835> 121 24<9 104>
VStem: 113 24.4817<-18.3206 15.2219>
LayerCount: 2
Fore
SplineSet
80 58 m 1,0,1
 137 50 137 50 137.481669719 -1.05699021842 c 0,2,3
 138 -56 138 -56 72 -56 c 0,4,5
 10 -56 10 -56 6 -11 c 1,6,-1
 33 -11 l 1,7,8
 38 -31 38 -31 70 -31 c 2,9,-1
 72 -31 l 2,10,11
 113 -31 113 -31 113 -2.03701197289 c 0,12,13
 113 33 113 33 53 35 c 1,14,-1
 53 59 l 1,15,-1
 104 121 l 1,16,-1
 9 121 l 1,17,-1
 9 145 l 1,18,-1
 133 145 l 1,19,-1
 133 121 l 1,20,-1
 80 58 l 1,0,1
EndSplineSet
EndChar

StartChar: uni0293
Encoding: 659 659 267
GlifName: uni0293
Width: 155
Flags: W
HStem: -56 25.0747<42.4095 101.899> -2 26<38.2376 104.281> 122 24<13 108>
VStem: 9 26<-23.7988 -5.41696>
LayerCount: 2
Fore
SplineSet
141 -11 m 1,0,1
 134 -56 134 -56 70.7896809903 -56 c 0,2,3
 9 -56 9 -56 9 -13.2683706077 c 0,4,5
 9 24 9 24 56.9029601339 24 c 0,6,7
 68 24 68 24 82 22 c 2,8,-1
 113 17 l 1,9,10
 99 42 99 42 58 43 c 1,11,-1
 58 67 l 1,12,-1
 108 122 l 1,13,-1
 13 122 l 1,14,-1
 13 146 l 1,15,-1
 137 146 l 1,16,-1
 137 122 l 1,17,-1
 84 65 l 1,18,19
 134 58 134 58 141 13 c 1,20,-1
 152 12 l 1,21,-1
 149 -12 l 1,22,-1
 141 -11 l 1,0,1
82 -3 m 2,23,24
 70 -1 70 -1 63.1902465953 -1.75663926719 c 0,25,26
 61 -2 61 -2 57.7589426841 -2 c 0,27,28
 35 -2 35 -2 35 -14.3074598473 c 0,29,30
 35 -30 35 -30 71.087292317 -30.9253151876 c 0,31,32
 74 -31 74 -31 75.9549566339 -31 c 0,33,34
 111 -31 111 -31 116 -7 c 1,35,-1
 82 -3 l 2,23,24
EndSplineSet
EndChar

StartChar: uni0294
Encoding: 660 660 268
GlifName: uni0294
Width: 169
Flags: W
HStem: -1 21G<63 93> 185.601 27.3988<50.4192 106.844>
VStem: 4 29<152 171.167> 63 30<-1 56.9197> 133 27<118 162.049>
LayerCount: 2
Fore
SplineSet
124.676713707 80.7652428372 m 0,0,1
 93 68 93 68 93 31 c 2,2,3
 93 31 93 31 93 29 c 2,4,-1
 93 -1 l 1,5,-1
 63 -1 l 1,6,-1
 63 29 l 2,7,8
 63 87 63 87 113 104 c 1,9,10
 133 115 133 115 133 138.956529442 c 0,11,12
 133 159 133 159 120.192509953 171.350079688 c 0,13,14
 105 186 105 186 76.2875753573 185.601216324 c 0,15,16
 33 185 33 185 33 152 c 1,17,-1
 4 152 l 1,18,19
 4 213 4 213 77.1000454959 213 c 0,20,21
 121 213 121 213 142.276638965 190.632251345 c 0,22,23
 160 172 160 172 160 140.072963662 c 0,24,25
 160 95 160 95 124.676713707 80.7652428372 c 0,0,1
EndSplineSet
EndChar

StartChar: uni0295
Encoding: 661 661 269
GlifName: uni0295
Width: 169
Flags: W
HStem: -1 21G<78 107> 185 27.3736<63.1462 120.649>
VStem: 10 27<118.038 161.583> 78 29<-1 56.717> 137 28<152 171.148>
LayerCount: 2
Fore
SplineSet
45.7483609305 80.8057978658 m 0,0,1
 10 95 10 95 10 140.040008751 c 0,2,3
 10 172 10 172 28.0654212877 190.528637218 c 0,4,5
 49 212 49 212 92.3359441697 212.373585726 c 0,6,7
 165 213 165 213 165 152 c 1,8,-1
 137 152 l 1,9,10
 137 185 137 185 93.3990178281 185 c 0,11,12
 65 185 65 185 50.0307238309 171.099957843 c 0,13,14
 37 159 37 159 37 139.347353716 c 0,15,16
 37 115 37 115 57 104 c 1,17,-1
 58 104 l 1,18,19
 107 87 107 87 107 29 c 2,20,-1
 107 -1 l 1,21,-1
 78 -1 l 1,22,-1
 78 29 l 1,23,24
 78 29 78 29 78 30 c 0,25,26
 78 68 78 68 45.7483609305 80.8057978658 c 0,0,1
EndSplineSet
EndChar

StartChar: uni0296
Encoding: 662 662 270
GlifName: uni0296
Width: 170
Flags: W
HStem: -0.372574 27.3726<50.4223 108.817> 193 20G<65 94>
VStem: 6 28<41.2119 60> 65 29<155.283 213> 135 27<50.5441 94.9642>
LayerCount: 2
Fore
SplineSet
126.25163907 131.194202134 m 0,0,1
 162 117 162 117 162 72.4665038687 c 0,2,3
 162 40 162 40 143.285528781 21.2855287811 c 0,4,5
 122 0 122 0 78.7814410796 -0.372573783796 c 0,6,7
 6 -1 6 -1 6 60 c 1,8,-1
 34 60 l 1,9,10
 34 27 34 27 78.2065513687 27 c 0,11,12
 107 27 107 27 122.017439261 40.9447650285 c 0,13,14
 135 53 135 53 135 73.0787073238 c 0,15,16
 135 98 135 98 115 108 c 1,17,-1
 114 108 l 1,18,19
 65 124 65 124 65 183 c 2,20,-1
 65 213 l 1,21,-1
 94 213 l 1,22,-1
 94 183 l 1,23,24
 94 183 94 183 94 182 c 0,25,26
 94 144 94 144 126.25163907 131.194202134 c 0,0,1
EndSplineSet
EndChar

StartChar: uni0297
Encoding: 663 663 271
GlifName: uni0297
Width: 162
Flags: W
HStem: -43 28<60.5459 111.562> 119 26<59.834 111>
VStem: 10 27<14.2966 90.201> 125 28<-3.14453 7 96 107.484>
LayerCount: 2
Fore
SplineSet
10 51.333337525 m 0,0,1
 10 145 10 145 80 145 c 2,2,-1
 81 145 l 2,3,4
 149 145 149 145 153 96 c 1,5,-1
 125 96 l 1,6,7
 120 119 120 119 86 119 c 2,8,9
 86 119 86 119 85 119 c 2,10,-1
 81 119 l 2,11,12
 37 119 37 119 37 52.3764163751 c 0,13,14
 37 -15 37 -15 82 -15 c 2,15,-1
 86 -15 l 2,16,17
 119 -15 119 -15 125 7 c 1,18,-1
 153 7 l 1,19,20
 149 -42 149 -42 82 -43 c 1,21,-1
 81 -43 l 2,22,23
 10 -43 10 -43 10 51.333337525 c 0,0,1
EndSplineSet
EndChar

StartChar: uni0298
Encoding: 664 664 272
GlifName: uni0298
Width: 209
Flags: W
HStem: 1 27<77.208 133.161> 95 28<91 118> 185 27.4986<74.9388 133.696>
VStem: 11 29<68.5151 144.776> 91 27<95 123> 169 29<67.9505 144.738>
CounterMasks: 1 1c
LayerCount: 2
Fore
SplineSet
40 107 m 128,-1,1
 40 29 40 29 105 28 c 0,2,3
 169 28 169 28 169 106.5 c 128,-1,4
 169 185 169 185 104.396964593 185 c 0,5,0
 40 185 40 185 40 107 c 128,-1,1
11 106.217912422 m 0,6,7
 11 212 11 212 104.23365733 212.498575708 c 0,8,9
 198 213 198 213 198 105.993665688 c 0,10,11
 198 0 198 0 106.922312565 0.989974863426 c 0,12,13
 106 1 106 1 104 1 c 0,14,15
 11 1 11 1 11 106.217912422 c 0,6,7
91 95 m 1,16,-1
 91 123 l 1,17,-1
 118 123 l 1,18,-1
 118 95 l 1,19,-1
 91 95 l 1,16,-1
EndSplineSet
EndChar

StartChar: uni0299
Encoding: 665 665 273
GlifName: uni0299
Width: 154
Flags: W
HStem: 0 27<44 110.402> 61 27<44 105.827> 119 26<43 109.158>
VStem: 17 27<27 61 88 119> 115 30<32.1869 56.0549>
LayerCount: 2
Fore
SplineSet
15 145 m 1,0,-1
 70 145 l 2,1,2
 111 145 111 145 124.968834056 138.015582972 c 0,3,4
 141 130 141 130 141 102.794708488 c 0,5,6
 141 96 141 96 140.053672273 92.2146890915 c 0,7,8
 138 84 138 84 128.509204192 79.6860019057 c 0,9,10
 127 79 127 79 125.760750298 78.5043001192 c 0,11,12
 122 77 122 77 111 75 c 1,13,14
 111 75 111 75 114 75 c 0,15,16
 126 75 126 75 128.535898385 74.3660254038 c 0,17,18
 130 74 130 74 132.482226354 73.0691651174 c 0,19,20
 138 71 138 71 140.396966935 67.4045495972 c 0,21,22
 142 65 142 65 143.162951932 60.3481922709 c 0,23,24
 145 53 145 53 145 43.6357737652 c 0,25,26
 145 16 145 16 128.642086413 7.55720589049 c 0,27,28
 114 0 114 0 71 0 c 2,29,-1
 17 0 l 1,30,-1
 16 61 l 1,31,-1
 15 145 l 1,0,-1
44 27 m 1,32,-1
 71 27 l 2,33,34
 107 27 107 27 112.95039978 34.4379997244 c 0,35,36
 115 37 115 37 115 42.6094934137 c 0,37,38
 115 55 115 55 105.246341858 58.2512193808 c 0,39,40
 97 61 97 61 71 61 c 2,41,-1
 44 61 l 1,42,-1
 44 27 l 1,32,-1
43 88 m 1,43,-1
 70 88 l 2,44,45
 88 88 88 88 95.1000204165 89.0142886309 c 0,46,47
 102 90 102 90 105.951356979 93.0732776503 c 0,48,49
 111 97 111 97 111.427407628 104.693337311 c 0,50,51
 112 115 112 115 103.025291078 117.243677231 c 0,52,53
 96 119 96 119 70 119 c 2,54,-1
 43 119 l 1,55,-1
 43 88 l 1,43,-1
EndSplineSet
EndChar

StartChar: uni029A
Encoding: 666 666 274
GlifName: uni029A_
Width: 133
Flags: W
HStem: -1 29<42.3847 83.229> 62 25<58.8516 81> 119 28<45.1892 82.709>
VStem: 10.5005 28.4995<32.4344 52.7491 94.3122 115.578> 96 28<42.9436 103.392>
LayerCount: 2
Fore
SplineSet
96 73.114379083 m 0,0,1
 96 119 96 119 66 119 c 2,2,-1
 64 119 l 2,3,4
 51 119 51 119 45 116 c 128,-1,5
 39 113 39 113 38.7199728638 105.719294458 c 0,6,7
 38 87 38 87 81 87 c 1,8,-1
 81 62 l 1,9,10
 39 61 39 61 39 42.0346230359 c 0,11,12
 39 28 39 28 62 28 c 2,13,14
 62 28 62 28 64 28 c 2,15,-1
 66 28 l 1,16,17
 66 28 66 28 67 28 c 0,18,19
 96 28 96 28 96 73.114379083 c 0,0,1
124 75.1073988084 m 0,20,21
 124 -1 124 -1 57.2008166004 -1 c 0,22,23
 10 -1 10 -1 10.500538667 37.0409386953 c 128,-1,24
 11 75 11 75 58 75 c 1,25,26
 11 75 11 75 11.6589572319 110.583690522 c 0,27,28
 12 129 12 129 25.0323747884 138.022413315 c 128,-1,29
 38 147 38 147 64 147 c 2,30,-1
 66 147 l 2,31,32
 124 147 124 147 124 75.1073988084 c 0,20,21
EndSplineSet
EndChar

StartChar: uni029B
Encoding: 667 667 275
GlifName: uni029B_
Width: 191
Flags: W
HStem: 1 27.419<57.6782 104.175> 53 25<78 118> 119 27<54.6666 99.8585 148.323 182>
VStem: 8 30<48.4801 102.097> 115 29<88 101.373> 118 26<41.793 53>
LayerCount: 2
Fore
SplineSet
8 73.5 m 128,-1,1
 8 146 8 146 76.0478395709 146 c 0,2,3
 107 146 107 146 125 131 c 1,4,5
 139 146 139 146 172 146 c 2,6,-1
 182 146 l 1,7,-1
 182 119 l 1,8,-1
 172 119 l 2,9,10
 142 119 142 119 142 101.514688115 c 0,11,12
 142 97 142 97 144 88 c 1,13,-1
 115 88 l 1,14,15
 112 119 112 119 75 119 c 2,16,17
 75 119 75 119 73.2156424423 118.95177412 c 0,18,19
 38 118 38 118 38 75.7199266379 c 0,20,21
 38 29 38 29 80.4149211568 28.4189736828 c 0,22,23
 111 28 111 28 118 52 c 1,24,-1
 118 53 l 1,25,-1
 78 53 l 1,26,-1
 78 78 l 1,27,-1
 144 78 l 1,28,-1
 144 53 l 1,29,-1
 144 49 l 1,30,31
 130 1 130 1 75.2666927579 1 c 0,32,0
 8 1 8 1 8 73.5 c 128,-1,1
EndSplineSet
EndChar

StartChar: uni029C
Encoding: 668 668 276
GlifName: uni029C_
Width: 165
Flags: W
HStem: 0 21G<16 43 121 148> 63 27<43 121> 126 20G<16 43 121 148>
VStem: 16 27<0 63 90 146> 121 27<0 63 90 146>
LayerCount: 2
Fore
SplineSet
16 0 m 1,0,-1
 16 146 l 1,1,-1
 43 146 l 1,2,-1
 43 90 l 1,3,-1
 121 90 l 1,4,-1
 121 146 l 1,5,-1
 148 146 l 1,6,-1
 148 0 l 1,7,-1
 121 0 l 1,8,-1
 121 63 l 1,9,-1
 43 63 l 1,10,-1
 43 0 l 1,11,-1
 16 0 l 1,0,-1
EndSplineSet
EndChar

StartChar: uni029D
Encoding: 669 669 277
GlifName: uni029D_
Width: 66
Flags: W
HStem: -42 28<-1.92017 16.5277> 17 29<-0.674579 18.9687 48 85> 180 26<19 47>
VStem: -32.9666 28.9666<-12.1213 13.7106> 19 28<-12.1406 17 48 150 180 206>
LayerCount: 2
Fore
SplineSet
19 180 m 1,0,-1
 19 206 l 1,1,-1
 47 206 l 1,2,-1
 47 180 l 1,3,-1
 19 180 l 1,0,-1
20 17 m 1,4,5
 20 17 20 17 12.5 17 c 2,6,7
 12.5 17 12.5 17 12 17 c 0,8,9
 -4 17 -4 17 -4 0.38715006927 c 0,10,11
 -4 -14 -4 -14 7.02050421754 -14 c 0,12,13
 19 -14 19 -14 19.8141171834 3.91057803499 c 0,14,15
 20 8 20 8 20 17 c 1,4,5
47 46 m 1,16,-1
 85 46 l 1,17,-1
 85 17 l 1,18,-1
 48 17 l 1,19,-1
 48 -2 l 1,20,21
 48 -2 48 -2 48 -3 c 0,22,23
 48 -42 48 -42 8 -42 c 0,24,25
 -32 -41 -32 -41 -32.9666474929 -0.400805299976 c 0,26,27
 -33 1 -33 1 -33 2.27857511253 c 0,28,29
 -33 46 -33 46 5.03646189002 46 c 0,30,31
 15 46 15 46 16.9581212141 48.6108282855 c 0,32,33
 18 50 18 50 19 48 c 1,34,-1
 19 150 l 1,35,-1
 47 150 l 1,36,-1
 47 46 l 1,16,-1
EndSplineSet
EndChar

StartChar: uni029E
Encoding: 670 670 278
GlifName: uni029E_
Width: 171
Flags: W
HStem: 1 21G<7 58.4737> 126 20G<6 56.125 127 154>
VStem: 127 27<-43 77 99 146>
LayerCount: 2
Fore
SplineSet
154 146 m 1,0,-1
 154 -43 l 1,1,-1
 127 -43 l 1,2,-1
 127 77 l 1,3,-1
 34 1 l 1,4,-1
 7 1 l 1,5,-1
 93 72 l 1,6,-1
 6 146 l 1,7,-1
 33 146 l 1,8,-1
 107 82 l 1,9,-1
 127 99 l 1,10,-1
 127 146 l 1,11,-1
 154 146 l 1,0,-1
EndSplineSet
EndChar

StartChar: uni029F
Encoding: 671 671 279
GlifName: uni029F_
Width: 133
Flags: W
HStem: 0 28<43 127> 127 20G<16 43>
VStem: 16 27<28 147>
LayerCount: 2
Fore
SplineSet
16 0 m 1,0,-1
 16 147 l 1,1,-1
 43 147 l 1,2,-1
 43 28 l 1,3,-1
 127 28 l 1,4,-1
 127 0 l 1,5,-1
 16 0 l 1,0,-1
EndSplineSet
EndChar

StartChar: uni02A0
Encoding: 672 672 280
GlifName: uni02A_0
Width: 179
Flags: W
HStem: -61 21G<125 152> 0 28<52.9584 104.7> 119 28<51.9346 100.698> 187 27<153.9 177>
VStem: 7 29<46.5427 101.824> 125 27<-61 20 47.8788 95.9431 117 184.906>
LayerCount: 2
Fore
SplineSet
124 176 m 2,0,1
 124 214 124 214 166 214 c 2,2,-1
 177 214 l 1,3,-1
 177 187 l 1,4,-1
 166 187 l 2,5,6
 152 187 152 187 152 176 c 2,7,-1
 152 146 l 1,8,-1
 152 71 l 1,9,-1
 152 0 l 1,10,-1
 152 -61 l 1,11,-1
 125 -61 l 1,12,-1
 125 20 l 1,13,14
 117 0 117 0 79.3743612302 0 c 0,15,16
 7 0 7 0 7 74.1376932646 c 0,17,18
 7 146 7 146 75 147 c 1,19,-1
 78 147 l 2,20,21
 116 147 116 147 125 117 c 1,22,-1
 124 176 l 2,0,1
36 74.0987878967 m 0,23,24
 36 28 36 28 75 28 c 2,25,-1
 78 28 l 2,26,27
 125 28 125 28 124.505206433 72.0366274724 c 0,28,29
 124 117 124 117 75 119 c 1,30,-1
 73 119 l 2,31,32
 36 119 36 119 36 74.0987878967 c 0,23,24
EndSplineSet
EndChar

StartChar: uni02A1
Encoding: 673 673 281
GlifName: uni02A_1
Width: 169
Flags: W
HStem: -1 21G<63 93> 19 26<40 63 93 110> 185.601 27.3988<50.4192 106.887>
VStem: 4 29<152 171.167> 63 30<-1 19 45 59.553> 133 27<117.542 161.728>
LayerCount: 2
Fore
SplineSet
64 45 m 1,0,1
 70 90 70 90 113 104 c 1,2,3
 133 115 133 115 133 138.956529442 c 0,4,5
 133 159 133 159 120.192509953 171.350079688 c 0,6,7
 105 186 105 186 76.2875753573 185.601216324 c 0,8,9
 33 185 33 185 33 152 c 1,10,-1
 4 152 l 1,11,12
 4 213 4 213 77.1000454959 213 c 0,13,14
 121 213 121 213 142.587397191 190.305556799 c 0,15,16
 160 172 160 172 160 140.669931475 c 0,17,18
 160 95 160 95 123.068137728 79.7582790622 c 0,19,20
 97 69 97 69 93 45 c 1,21,-1
 110 45 l 1,22,-1
 110 19 l 1,23,-1
 93 19 l 1,24,-1
 93 -1 l 1,25,-1
 63 -1 l 1,26,-1
 63 19 l 1,27,-1
 61 19 l 1,28,-1
 40 19 l 1,29,-1
 40 45 l 1,30,-1
 64 45 l 1,0,1
EndSplineSet
EndChar

StartChar: uni02A2
Encoding: 674 674 282
GlifName: uni02A_2
Width: 169
Flags: W
HStem: -1 21G<78 107> 19 26<53 77 107 123> 185 27.3738<63.1462 120.666>
VStem: 10 27<118.079 161.638> 78 29<-1 19 45 58.0856> 137 28<152 171.148>
LayerCount: 2
Fore
SplineSet
46.8579535777 79.7887810632 m 0,0,1
 10 95 10 95 10 140.325350649 c 0,2,3
 10 172 10 172 28.0226686378 190.484788346 c 0,4,5
 49 212 49 212 92.3628441534 212.373817622 c 0,6,7
 165 213 165 213 165 152 c 1,8,-1
 137 152 l 1,9,10
 137 185 137 185 93.3990178281 185 c 0,11,12
 65 185 65 185 50.0307238309 171.099957843 c 0,13,14
 37 159 37 159 37 139.347353716 c 0,15,16
 37 115 37 115 57 104 c 1,17,-1
 58 104 l 1,18,19
 100 90 100 90 106 45 c 1,20,-1
 123 45 l 1,21,-1
 123 19 l 1,22,-1
 107 19 l 1,23,-1
 107 -1 l 1,24,-1
 78 -1 l 1,25,-1
 78 19 l 1,26,-1
 74 19 l 1,27,-1
 53 19 l 1,28,-1
 53 45 l 1,29,-1
 77 45 l 1,30,31
 73 69 73 69 46.8579535777 79.7887810632 c 0,0,1
EndSplineSet
EndChar

StartChar: uni02A3
Encoding: 675 675 283
GlifName: uni02A_3
Width: 283
Flags: W
HStem: -2 28<53.8906 102.268> 0 28<198 270> 119 27<56.2931 105.759 153 242> 193 20G<127 153>
VStem: 9 29<43.1311 99.0582> 127 26<0 29 50.5526 97.7182 146 213>
LayerCount: 2
Fore
SplineSet
169 0 m 1,0,-1
 169 28 l 1,1,-1
 242 119 l 1,2,-1
 153 119 l 1,3,-1
 153 74 l 1,4,-1
 153 0 l 1,5,-1
 127 0 l 1,6,-1
 127 29 l 1,7,8
 118 -2 118 -2 79 -2 c 2,9,-1
 77 -2 l 1,10,11
 9 0 9 0 9 71.4640742577 c 0,12,13
 9 145 9 145 80.6392126618 145 c 0,14,15
 118 145 118 145 127 125 c 1,16,-1
 127 213 l 1,17,-1
 153 213 l 1,18,-1
 153 146 l 1,19,-1
 270 146 l 1,20,-1
 270 119 l 1,21,-1
 198 28 l 1,22,-1
 270 28 l 1,23,-1
 270 1 l 1,24,-1
 169 0 l 1,0,-1
38 71.0796317053 m 0,25,26
 38 26 38 26 74 26 c 2,27,28
 74 26 74 26 75 26 c 2,29,-1
 77 26 l 1,30,31
 126 28 126 28 126 73.9740097723 c 0,32,33
 126 119 126 119 79 119 c 2,34,-1
 77 119 l 1,35,36
 38 118 38 118 38 71.0796317053 c 0,25,26
EndSplineSet
EndChar

StartChar: uni02A4
Encoding: 676 676 284
GlifName: uni02A_4
Width: 268
Flags: W
HStem: -55 25<164.413 221.47> -2 28<52.8906 101.268> 0 21G<126 153> 119 26<55.404 104.562> 121 24<153 225> 193 20G<126 153>
VStem: 8 29<43.373 99.6553> 126 27<0 29 50.5526 97.7182 145 213> 233.544 24.9727<-18.6063 12.6736>
LayerCount: 2
Fore
SplineSet
37 71.0796317053 m 0,0,1
 37 26 37 26 73 26 c 2,2,3
 73 26 73 26 74 26 c 2,4,-1
 76 26 l 1,5,6
 125 28 125 28 125 73.9740097723 c 0,7,8
 125 119 125 119 78 119 c 2,9,-1
 76 119 l 1,10,11
 37 118 37 118 37 71.0796317053 c 0,0,1
8 70.4497856268 m 0,12,13
 8 145 8 145 79.8072187731 145 c 0,14,15
 117 145 117 145 126 125 c 1,16,-1
 126 213 l 1,17,-1
 153 213 l 1,18,-1
 153 145 l 1,19,-1
 254 145 l 1,20,-1
 254 121 l 1,21,-1
 202 52 l 1,22,23
 259 44 259 44 258.516372677 -3.87910496507 c 0,24,25
 258 -55 258 -55 193 -55 c 0,26,27
 131 -55 131 -55 127 -10 c 1,28,-1
 153 -10 l 1,29,30
 158 -30 158 -30 191 -30 c 2,31,-1
 193 -30 l 2,32,33
 234 -30 234 -30 233.543700406 -3.07832395275 c 0,34,35
 233 29 233 29 175 30 c 1,36,-1
 175 54 l 1,37,-1
 225 121 l 1,38,-1
 153 121 l 1,39,-1
 153 74 l 1,40,-1
 153 0 l 1,41,-1
 126 0 l 1,42,-1
 126 29 l 1,43,44
 117 -2 117 -2 78 -2 c 2,45,-1
 76 -2 l 2,46,47
 8 -2 8 -2 8 70.4497856268 c 0,12,13
EndSplineSet
EndChar

StartChar: uni02A5
Encoding: 677 677 285
GlifName: uni02A_5
Width: 365
Flags: W
HStem: -2 28<53.2132 101.268> 0 28<198 253 283 319.719> 69 29.4729<292.025 325.769> 119 27<55.3399 104.759 153 241> 193 20G<126 153>
VStem: 8.50896 28.491<43.3621 99.8124> 126 27<0 29 50.5526 97.7182 146 213> 253 30<-37 0 28 59.6076> 331 26<38.0611 64.1996>
LayerCount: 2
Fore
SplineSet
283 0 m 1,0,-1
 283 -37 l 1,1,-1
 254 -37 l 1,2,-1
 253 0 l 1,3,-1
 168 0 l 1,4,-1
 168 28 l 1,5,-1
 241 119 l 1,6,-1
 168 119 l 1,7,-1
 153 119 l 1,8,-1
 153 74 l 1,9,-1
 153 0 l 1,10,-1
 126 0 l 1,11,-1
 126 29 l 1,12,13
 117 -2 117 -2 78 -2 c 2,14,-1
 76 -2 l 1,15,16
 9 0 9 0 8.50895651605 71.2013051724 c 0,17,18
 8 145 8 145 79.682993932 145 c 0,19,20
 117 145 117 145 126 125 c 1,21,-1
 126 213 l 1,22,-1
 153 213 l 1,23,-1
 153 146 l 1,24,-1
 168 146 l 1,25,-1
 269 146 l 1,26,-1
 269 119 l 1,27,-1
 198 28 l 1,28,29
 198 28 198 28 253 28 c 1,30,-1
 253 36 l 1,31,32
 253 36 253 36 253 37 c 0,33,34
 253 99 253 99 307.817598819 98.4729077037 c 0,35,36
 357 98 357 98 357 48.4440176985 c 0,37,38
 357 0 357 0 310 0 c 2,39,-1
 283 0 l 1,0,-1
283 28 m 1,40,41
 290 28 290 28 293.988901634 28.0972902838 c 0,42,43
 331 29 331 29 331 51.5863138646 c 0,44,45
 331 69 331 69 308 69 c 0,46,47
 282 69 282 69 283 36 c 1,48,-1
 283 28 l 1,40,41
37 71.0796317053 m 0,49,50
 37 26 37 26 73 26 c 2,51,52
 73 26 73 26 74 26 c 2,53,-1
 76 26 l 1,54,55
 125 28 125 28 125 73.9740097723 c 0,56,57
 125 119 125 119 78 119 c 2,58,-1
 76 119 l 1,59,60
 37 118 37 118 37 71.0796317053 c 0,49,50
EndSplineSet
EndChar

StartChar: uni02A6
Encoding: 678 678 286
GlifName: uni02A_6
Width: 216
Flags: W
HStem: -1 28<75.6671 166.2> 119 27<119.635 172.858> 121 26<7 28 55 77> 194 20G<28 55>
VStem: 28 27<42.3401 121 147 214> 86 28.5187<95.0066 113.909> 180 28<37.0112 54.7768 101 112.351>
LayerCount: 2
Fore
SplineSet
117 27 m 0,0,1
 180 27 180 27 180 46.0242202264 c 0,2,3
 180 60 180 60 145.868660243 60 c 0,4,5
 86 60 86 60 86 102.623961492 c 0,6,7
 86 146 86 146 148.517317254 146 c 0,8,9
 180 146 180 146 193.86221137 134.70486481 c 0,10,11
 207 124 207 124 207 101 c 1,12,-1
 180 101 l 1,13,14
 180 119 180 119 146.019662378 119 c 0,15,16
 115 119 115 119 114.5186709 104.560127009 c 0,17,18
 114 89 114 89 151.713438547 86.5927592417 c 0,19,20
 208 83 208 83 208 46.02012483 c 0,21,22
 208 -1 208 -1 119.652254925 -1 c 0,23,24
 81 -1 81 -1 59.8453789257 7.78116346482 c 0,25,26
 28 21 28 21 28 57 c 2,27,-1
 28 121 l 1,28,-1
 7 121 l 1,29,-1
 7 147 l 1,30,-1
 28 147 l 1,31,-1
 28 214 l 1,32,-1
 55 214 l 1,33,-1
 55 147 l 1,34,-1
 77 147 l 1,35,-1
 77 121 l 1,36,-1
 55 121 l 1,37,-1
 55 57 l 2,38,39
 55 27 55 27 117 27 c 0,0,1
EndSplineSet
EndChar

StartChar: uni02A7
Encoding: 679 679 287
GlifName: uni02A_7
Width: 138
Flags: W
HStem: -56 28<53 70.2815> 0.23653 27.7635<59.1692 78.5389> 121 26<7 28 55 77> 187 27<118.033 135>
VStem: 28 27<30.9734 121 147 214> 81 27<-17.311 1 30.6334 176.727>
LayerCount: 2
Fore
SplineSet
108 0 m 2,0,1
 108 -55 108 -55 53 -56 c 1,2,-1
 53 -28 l 1,3,4
 81 -26 81 -26 81 0 c 2,5,-1
 81 1 l 1,6,7
 75 0 75 0 67.9040879568 0.23653040144 c 0,8,9
 45 1 45 1 35.9076766998 15.9755913179 c 0,10,11
 28 29 28 29 28 57 c 2,12,-1
 28 121 l 1,13,-1
 7 121 l 1,14,-1
 7 147 l 1,15,-1
 28 147 l 1,16,-1
 28 214 l 1,17,-1
 55 214 l 1,18,-1
 55 147 l 1,19,-1
 77 147 l 1,20,-1
 77 121 l 1,21,-1
 55 121 l 1,22,-1
 55 57 l 2,23,24
 55 29 55 29 66 28 c 1,25,-1
 67 28 l 1,26,27
 67 28 67 28 70 28 c 0,28,29
 72 28 72 28 73.8301270189 28.3660254038 c 0,30,31
 77 29 77 29 78.588920913 30.588920913 c 128,-1,32
 80 32 80 32 80 35 c 0,33,34
 80 40 80 40 81 42 c 1,35,-1
 81 48 l 1,36,-1
 81 54 l 1,37,-1
 81 150 l 1,38,-1
 81 158 l 2,39,40
 81 213 81 213 135 214 c 1,41,-1
 135 187 l 1,42,43
 108 185 108 185 108 158 c 2,44,-1
 108 150 l 1,45,-1
 108 54 l 1,46,-1
 108 1 l 1,47,-1
 108 0 l 2,0,1
EndSplineSet
EndChar

StartChar: uni02A8
Encoding: 680 680 288
GlifName: uni02A_8
Width: 244
Flags: W
HStem: 0 28<59.213 71.5813 140.316 193.275> 55 23<184.826 220.601> 119 26<135.949 191> 121 26<7 28 55 77> 194 20G<28 55>
VStem: 28 27<31.3545 121 147 214> 90 27<47.2705 98.8945> 204 28.3655<37.8943 54.5888 96 107.484>
LayerCount: 2
Fore
SplineSet
140 31 m 1,0,1
 147 28 147 28 154.41429022 27.4296699831 c 0,2,3
 160 27 160 27 163 28 c 1,4,-1
 166 28 l 1,5,6
 204 30 204 30 204 48.3454176121 c 0,7,8
 204 55 204 55 198.930433317 55 c 0,9,10
 195 55 195 55 185 51 c 2,11,-1
 140 31 l 1,0,1
112 13 m 1,12,-1
 67 0 l 1,13,14
 45 1 45 1 36.1689430124 15.0257963921 c 0,15,16
 28 28 28 28 28 57 c 2,17,-1
 28 121 l 1,18,-1
 7 121 l 1,19,-1
 7 147 l 1,20,-1
 28 147 l 1,21,-1
 28 214 l 1,22,-1
 55 214 l 1,23,-1
 55 147 l 1,24,-1
 77 147 l 1,25,-1
 77 121 l 1,26,-1
 55 121 l 1,27,-1
 55 57 l 2,28,29
 55 29 55 29 66 28 c 1,30,-1
 67 28 l 1,31,-1
 97 36 l 1,32,33
 90 52 90 52 90 74.4658914638 c 0,34,35
 90 145 90 145 159 145 c 2,36,-1
 161 145 l 2,37,38
 229 145 229 145 233 96 c 1,39,-1
 204 96 l 1,40,41
 199 119 199 119 165 119 c 2,42,43
 165 119 165 119 164 119 c 2,44,-1
 161 119 l 2,45,46
 117 119 117 119 117 73.3788773186 c 0,47,48
 117 58 117 58 122 47 c 1,49,-1
 181 71 l 2,50,51
 198 78 198 78 209.201156039 78 c 0,52,53
 232 78 232 78 232.365454053 49.4945838349 c 0,54,55
 233 0 233 0 163 0 c 2,56,-1
 161 0 l 2,57,58
 124 0 124 0 112 13 c 1,12,-1
EndSplineSet
EndChar

StartChar: uni02A9
Encoding: 681 681 289
GlifName: uni02A_9
Width: 217
Flags: W
HStem: -61 28<133 164.308> 0 21G<28 55 76 104.282> 119 26<7 28 55 76 123.156 159.594> 187 27<65.0327 82>
VStem: 28 27<0 119 145 176.727> 76 29<0 98.7112> 76 27<0 63.616 117 119> 175 29<-23.075 103.089>
LayerCount: 2
Fore
SplineSet
7 119 m 1,0,-1
 7 145 l 1,1,-1
 28 145 l 1,2,-1
 28 158 l 2,3,4
 28 213 28 213 82 214 c 1,5,-1
 82 187 l 1,6,7
 55 185 55 185 55 158 c 2,8,-1
 55 145 l 1,9,-1
 76 145 l 1,10,-1
 77 145 l 1,11,-1
 103 145 l 1,12,-1
 103 117 l 1,13,14
 111 145 111 145 145 145 c 2,15,-1
 146 145 l 2,16,17
 204 145 204 145 204 79 c 2,18,-1
 204 7 l 2,19,20
 204 -33 204 -33 187.087874603 -47.2696058036 c 0,21,22
 172 -60 172 -60 133 -61 c 1,23,-1
 133 -33 l 1,24,25
 157 -32 157 -32 165.030825493 -27.0922733098 c 0,26,27
 175 -21 175 -21 175 0 c 2,28,-1
 175 1 l 1,29,-1
 175 79 l 2,30,31
 175 118 175 118 142.108137657 118 c 0,32,33
 106 118 106 118 105 71 c 2,34,-1
 104 0 l 1,35,-1
 76 0 l 1,36,-1
 76 71 l 1,37,-1
 76 119 l 1,38,-1
 55 119 l 1,39,-1
 55 0 l 1,40,-1
 28 0 l 1,41,-1
 28 119 l 1,42,-1
 7 119 l 1,0,-1
EndSplineSet
EndChar

StartChar: uni02AB
Encoding: 683 683 290
GlifName: uni02A_B_
Width: 175
Flags: W
HStem: 0 28<90 162> 119 27<45 133>
VStem: 18 27<0 119 146 218>
LayerCount: 2
Fore
SplineSet
18 0 m 1,0,-1
 18 218 l 1,1,-1
 45 218 l 1,2,-1
 45 146 l 1,3,-1
 162 146 l 1,4,-1
 162 119 l 1,5,-1
 90 28 l 1,6,-1
 162 28 l 1,7,-1
 162 1 l 1,8,-1
 61 0 l 1,9,-1
 61 28 l 1,10,-1
 133 119 l 1,11,-1
 45 119 l 1,12,-1
 45 74 l 1,13,-1
 45 0 l 1,14,-1
 18 0 l 1,0,-1
EndSplineSet
AlternateSubs2: "Alternate Substitution lookup 2 subtable" l.mart
Substitution2: "'smcp' Lowercase to Small Capitals lookup 1 subtable" l.sc
EndChar

StartChar: uni02AC
Encoding: 684 684 291
GlifName: uni02A_C_
Width: 132
Flags: W
HStem: 0 21G<27.382 55.8276 76.1379 104.067> 193 20G<8 30.9649 51.7368 78.6667 102 125>
LayerCount: 2
Fore
SplineSet
8 213 m 1,0,-1
 25 213 l 1,1,-1
 42 156 l 1,2,-1
 57 213 l 1,3,-1
 73 213 l 1,4,-1
 90 153 l 1,5,-1
 108 213 l 1,6,-1
 125 213 l 1,7,-1
 98 123 l 1,8,-1
 82 123 l 1,9,-1
 65 181 l 1,10,-1
 51 123 l 1,11,-1
 33 123 l 1,12,-1
 8 213 l 1,0,-1
8 89 m 1,13,-1
 25 89 l 1,14,-1
 42 33 l 1,15,-1
 57 89 l 1,16,-1
 73 89 l 1,17,-1
 90 30 l 1,18,-1
 108 89 l 1,19,-1
 125 89 l 1,20,-1
 98 0 l 1,21,-1
 82 0 l 1,22,-1
 65 58 l 1,23,-1
 51 0 l 1,24,-1
 33 0 l 1,25,-1
 8 89 l 1,13,-1
EndSplineSet
Substitution2: "'smcp' Lowercase to Small Capitals lookup 1 subtable" w.sc
EndChar

StartChar: uni02AA
Encoding: 682 682 292
GlifName: uni02A_A_
Width: 184
Flags: W
HStem: 0 28<56.93 141.023> 60 26.6188<88.8822 140.474> 119 27<87.7366 141.098>
VStem: 18 28<0 10 35.3828 218> 53 29<93.371 113.097> 148 26<35.1352 53.0642 101 112.351>
LayerCount: 2
Fore
SplineSet
53 102.466860204 m 0,0,1
 53 146 53 146 115.555155334 146 c 0,2,3
 147 146 147 146 160.858218955 134.708117889 c 0,4,5
 174 124 174 124 174 101 c 1,6,-1
 148 101 l 1,7,8
 148 119 148 119 114.0285707 119 c 0,9,10
 82 119 82 119 82 103.46742935 c 0,11,12
 82 87 82 87 117.830262192 86.618826998 c 0,13,14
 176 86 176 86 175.533614585 45.8908543219 c 0,15,16
 175 0 175 0 98.7716284697 0 c 0,17,18
 69 0 69 0 52.6917310375 6.523307585 c 0,19,20
 49 8 49 8 46 10 c 1,21,-1
 46 0 l 1,22,-1
 18 0 l 1,23,-1
 18 218 l 1,24,-1
 46 218 l 1,25,-1
 46 38 l 1,26,27
 60 29 60 29 112 28 c 0,28,29
 147 28 147 28 147.49652761 43.88888353 c 0,30,31
 148 60 148 60 111.789345865 60 c 0,32,33
 53 60 53 60 53 102.466860204 c 0,0,1
EndSplineSet
EndChar

StartChar: gravecomb
Encoding: 768 768 293
GlifName: gravecomb
Width: 0
Flags: W
HStem: 223 41
VStem: -25 50
LayerCount: 2
Fore
SplineSet
-25 264 m 1,0,-1
 1 264 l 1,1,-1
 25 223 l 1,2,-1
 3 223 l 1,3,-1
 -25 264 l 1,0,-1
EndSplineSet
Substitution2: "sosis-'smcp' Lowercase to Small Capitals lookup 1 subtable" gravecomb.taboldstyle
EndChar

StartChar: acutecomb
Encoding: 769 769 294
GlifName: acutecomb
Width: 0
Flags: W
HStem: 223 41
VStem: -25 50
LayerCount: 2
Fore
SplineSet
-25 223 m 1,0,-1
 -3 264 l 1,1,-1
 25 264 l 1,2,-1
 -3 223 l 1,3,-1
 -25 223 l 1,0,-1
EndSplineSet
Substitution2: "sosis-'smcp' Lowercase to Small Capitals lookup 1 subtable" acutecomb.taboldstyle
EndChar

StartChar: uni0302
Encoding: 770 770 295
GlifName: uni0302
Width: 0
Flags: W
HStem: 223 41
VStem: -37 74
LayerCount: 2
Fore
SplineSet
-37 223 m 1,0,-1
 -14 264 l 1,1,-1
 13 264 l 1,2,-1
 37 223 l 1,3,-1
 15 223 l 1,4,-1
 -1 244 l 1,5,-1
 -14 223 l 1,6,-1
 -37 223 l 1,0,-1
EndSplineSet
Substitution2: "sosis-'smcp' Lowercase to Small Capitals lookup 1 subtable" uni0302.taboldstyle
EndChar

StartChar: tildecomb
Encoding: 771 771 296
GlifName: tildecomb
Width: 0
Flags: W
HStem: 222 26<17.3638 44.82> 254 27<-44.3139 -12.89>
VStem: -78 27<223 247.588> 52 26<255.999 280>
LayerCount: 2
Fore
SplineSet
-78 223 m 1,0,1
 -78 223 -78 223 -78 224 c 0,2,3
 -78 281 -78 281 -26.9725110636 281 c 0,4,5
 4 281 4 281 12.5124555484 260.934926207 c 0,6,7
 18 248 18 248 31.2148111915 248 c 0,8,9
 52 248 52 248 52 280 c 1,10,-1
 78 280 l 1,11,12
 78 222 78 222 29.8331040803 222 c 0,13,14
 3 222 3 222 -6.02837405212 240.056748104 c 0,15,16
 -13 254 -13 254 -29 254 c 2,17,18
 -29 254 -29 254 -30 254 c 2,19,-1
 -33 254 l 2,20,21
 -51 254 -51 254 -51 223 c 1,22,-1
 -78 223 l 1,0,1
EndSplineSet
Substitution2: "sosis-'smcp' Lowercase to Small Capitals lookup 1 subtable" tildecomb.taboldstyle
EndChar

StartChar: uni0304
Encoding: 772 772 297
GlifName: uni0304
Width: 0
Flags: W
HStem: 222 26<-44 44>
LayerCount: 2
Fore
SplineSet
-44 222 m 1,0,-1
 -44 248 l 1,1,-1
 44 248 l 1,2,-1
 44 222 l 1,3,-1
 -44 222 l 1,0,-1
EndSplineSet
Substitution2: "sosis-'smcp' Lowercase to Small Capitals lookup 1 subtable" uni0304.taboldstyle
EndChar

StartChar: uni0305
Encoding: 773 773 298
GlifName: uni0305
Width: 0
Flags: W
HStem: 222 26<-90 90>
LayerCount: 2
Fore
SplineSet
-90 222 m 1,0,-1
 -90 248 l 1,1,-1
 90 248 l 1,2,-1
 90 222 l 1,3,-1
 -90 222 l 1,0,-1
EndSplineSet
Substitution2: "sosis-'smcp' Lowercase to Small Capitals lookup 1 subtable" uni0304.taboldstyle
EndChar

StartChar: uni0306
Encoding: 774 774 299
GlifName: uni0306
Width: 0
Flags: W
HStem: 222 27<-18.8845 20.0928>
VStem: -50 27<253.018 264> 24 26<253.018 264>
LayerCount: 2
Fore
SplineSet
-50 264 m 1,0,-1
 -23 264 l 1,1,2
 -23 249 -23 249 0.5 249 c 128,-1,3
 24 249 24 249 24 264 c 1,4,-1
 50 264 l 1,5,6
 50 222 50 222 1 222 c 2,7,8
 1 222 1 222 0 222 c 2,9,10
 0 222 0 222 -1 222 c 0,11,12
 -50 222 -50 222 -50 264 c 1,0,-1
EndSplineSet
Substitution2: "sosis-'smcp' Lowercase to Small Capitals lookup 1 subtable" uni0306.taboldstyle
EndChar

StartChar: uni0307
Encoding: 775 775 300
GlifName: uni0307
Width: 0
Flags: W
HStem: 222 26<-14 14>
VStem: -14 28<222 248>
LayerCount: 2
Fore
SplineSet
-14 222 m 1,0,-1
 -14 248 l 1,1,-1
 14 248 l 1,2,-1
 14 222 l 1,3,-1
 -14 222 l 1,0,-1
EndSplineSet
Substitution2: "sosis-'smcp' Lowercase to Small Capitals lookup 1 subtable" uni0307.taboldstyle
EndChar

StartChar: uni0308
Encoding: 776 776 301
GlifName: uni0308
Width: 0
Flags: W
HStem: 222 26<-35 -8 8 35>
VStem: -35 27<222 248> 8 27<222 248>
LayerCount: 2
Fore
SplineSet
8 222 m 1,0,-1
 8 248 l 1,1,-1
 35 248 l 1,2,-1
 35 222 l 1,3,-1
 8 222 l 1,0,-1
-35 222 m 1,4,-1
 -35 248 l 1,5,-1
 -8 248 l 1,6,-1
 -8 222 l 1,7,-1
 -35 222 l 1,4,-1
EndSplineSet
Substitution2: "sosis-'smcp' Lowercase to Small Capitals lookup 1 subtable" uni0308.taboldstyle
EndChar

StartChar: hookabovecomb
Encoding: 777 777 302
GlifName: hookabovecomb
Width: 0
Flags: W
HStem: 219 30<-3 0.339844>
VStem: -25 50
LayerCount: 2
Fore
SplineSet
-25 228 m 1,0,1
 -17 233 -17 233 -14.6808164115 234.159591794 c 0,2,3
 -9 237 -9 237 -5.8737153914 241.168379478 c 0,4,5
 -3 245 -3 245 -3 249 c 1,6,-1
 25 249 l 1,7,8
 19 229 19 229 -3 219 c 1,9,-1
 -25 228 l 1,0,1
EndSplineSet
Substitution2: "sosis-'smcp' Lowercase to Small Capitals lookup 1 subtable" hookabovecomb.taboldstyle
EndChar

